G04 #@! TF.GenerationSoftware,KiCad,Pcbnew,(2018-02-10 revision a04965c)-master*
G04 #@! TF.CreationDate,2018-04-09T10:07:04-05:00*
G04 #@! TF.ProjectId,pcb_panel,7063625F70616E656C2E6B696361645F,rev?*
G04 #@! TF.SameCoordinates,Original*
G04 #@! TF.FileFunction,Soldermask,Top*
G04 #@! TF.FilePolarity,Negative*
%FSLAX46Y46*%
G04 Gerber Fmt 4.6, Leading zero omitted, Abs format (unit mm)*
G04 Created by KiCad (PCBNEW (2018-02-10 revision a04965c)-master) date Monday, April 09, 2018 at 10:07:04 AM*
%MOMM*%
%LPD*%
G01*
G04 APERTURE LIST*
%ADD10C,0.010000*%
%ADD11C,6.600000*%
%ADD12C,3.600000*%
G04 APERTURE END LIST*
D10*
G36*
X7246000Y-9153167D02*
X8113833Y-9153167D01*
X8113833Y-9513000D01*
X6843833Y-9513000D01*
X6843833Y-7396333D01*
X7246000Y-7396333D01*
X7246000Y-9153167D01*
X7246000Y-9153167D01*
G37*
X7246000Y-9153167D02*
X8113833Y-9153167D01*
X8113833Y-9513000D01*
X6843833Y-9513000D01*
X6843833Y-7396333D01*
X7246000Y-7396333D01*
X7246000Y-9153167D01*
G36*
X7839269Y-10880467D02*
X8034046Y-10890564D01*
X8203240Y-10905908D01*
X8282412Y-10916688D01*
X8742334Y-11010216D01*
X9184976Y-11141447D01*
X9608721Y-11308755D01*
X10011953Y-11510514D01*
X10393057Y-11745098D01*
X10750417Y-12010882D01*
X11082418Y-12306239D01*
X11387444Y-12629545D01*
X11663879Y-12979173D01*
X11910108Y-13353498D01*
X12124515Y-13750893D01*
X12305484Y-14169735D01*
X12451400Y-14608395D01*
X12560648Y-15065250D01*
X12594124Y-15255286D01*
X12611171Y-15397270D01*
X12623477Y-15571096D01*
X12631039Y-15766536D01*
X12633854Y-15973363D01*
X12631918Y-16181351D01*
X12625231Y-16380273D01*
X12613788Y-16559904D01*
X12597587Y-16710015D01*
X12594519Y-16730833D01*
X12525486Y-17105083D01*
X12436535Y-17453284D01*
X12323536Y-17788665D01*
X12182357Y-18124457D01*
X12115323Y-18265417D01*
X11935679Y-18604142D01*
X11741969Y-18913170D01*
X11526580Y-19203096D01*
X11281898Y-19484516D01*
X11117650Y-19653904D01*
X10778314Y-19961823D01*
X10413450Y-20236882D01*
X10025723Y-20477802D01*
X9617797Y-20683305D01*
X9192335Y-20852112D01*
X8752002Y-20982944D01*
X8299460Y-21074523D01*
X8101993Y-21101489D01*
X7977084Y-21112689D01*
X7822977Y-21121289D01*
X7651732Y-21127088D01*
X7475408Y-21129887D01*
X7306064Y-21129485D01*
X7155759Y-21125683D01*
X7044916Y-21119031D01*
X6596265Y-21059354D01*
X6158949Y-20960344D01*
X5735053Y-20823860D01*
X5326663Y-20651760D01*
X4935867Y-20445902D01*
X4564749Y-20208144D01*
X4215396Y-19940346D01*
X3889894Y-19644365D01*
X3590329Y-19322059D01*
X3318788Y-18975287D01*
X3077356Y-18605907D01*
X2868119Y-18215778D01*
X2693164Y-17806757D01*
X2554577Y-17380704D01*
X2475196Y-17048333D01*
X2426562Y-16751814D01*
X2394046Y-16430362D01*
X2378200Y-16098401D01*
X2378289Y-16077096D01*
X2655521Y-16077096D01*
X2658057Y-16264015D01*
X2666089Y-16428793D01*
X2672270Y-16499518D01*
X2737588Y-16926610D01*
X2842767Y-17350818D01*
X2985600Y-17766748D01*
X3163876Y-18169007D01*
X3375385Y-18552201D01*
X3617920Y-18910939D01*
X3707884Y-19027417D01*
X3934876Y-19288316D01*
X4192738Y-19544180D01*
X4470315Y-19784898D01*
X4756449Y-20000357D01*
X4854166Y-20066367D01*
X5238609Y-20293032D01*
X5644144Y-20483761D01*
X6067996Y-20637583D01*
X6507395Y-20753529D01*
X6959566Y-20830628D01*
X7076666Y-20843965D01*
X7166134Y-20849922D01*
X7286741Y-20853466D01*
X7427367Y-20854692D01*
X7576891Y-20853693D01*
X7724193Y-20850565D01*
X7858153Y-20845401D01*
X7967651Y-20838295D01*
X7989882Y-20836228D01*
X8431168Y-20770653D01*
X8863487Y-20664558D01*
X9283953Y-20519321D01*
X9689682Y-20336314D01*
X10077787Y-20116914D01*
X10445383Y-19862495D01*
X10789585Y-19574434D01*
X10940087Y-19430187D01*
X11219773Y-19127404D01*
X11466166Y-18810340D01*
X11685092Y-18470740D01*
X11882381Y-18100350D01*
X11889557Y-18085500D01*
X12028848Y-17770900D01*
X12141884Y-17457131D01*
X12232596Y-17131489D01*
X12304921Y-16781272D01*
X12318850Y-16699083D01*
X12336852Y-16553159D01*
X12349445Y-16375941D01*
X12356635Y-16178122D01*
X12358428Y-15970394D01*
X12354829Y-15763450D01*
X12345843Y-15567981D01*
X12331478Y-15394680D01*
X12318101Y-15291500D01*
X12227391Y-14845203D01*
X12098918Y-14415267D01*
X11934420Y-14003512D01*
X11735632Y-13611757D01*
X11504290Y-13241821D01*
X11242132Y-12895524D01*
X10950892Y-12574684D01*
X10632307Y-12281122D01*
X10288113Y-12016655D01*
X9920047Y-11783103D01*
X9529844Y-11582287D01*
X9119241Y-11416023D01*
X8689974Y-11286133D01*
X8441916Y-11229928D01*
X8174046Y-11184390D01*
X7906714Y-11156204D01*
X7622757Y-11143765D01*
X7510583Y-11142833D01*
X7055601Y-11163519D01*
X6610159Y-11225033D01*
X6176182Y-11326560D01*
X5755591Y-11467288D01*
X5350312Y-11646402D01*
X4962267Y-11863087D01*
X4593381Y-12116529D01*
X4245576Y-12405915D01*
X4027660Y-12617075D01*
X3723865Y-12958275D01*
X3457534Y-13318542D01*
X3228240Y-13698704D01*
X3035559Y-14099593D01*
X2879066Y-14522038D01*
X2758337Y-14966872D01*
X2713503Y-15185667D01*
X2693607Y-15322459D01*
X2677524Y-15490719D01*
X2665591Y-15679727D01*
X2658145Y-15878760D01*
X2655521Y-16077096D01*
X2378289Y-16077096D01*
X2379577Y-15770356D01*
X2398729Y-15460651D01*
X2410335Y-15354368D01*
X2487207Y-14902326D01*
X2603512Y-14462439D01*
X2757599Y-14037027D01*
X2947817Y-13628412D01*
X3172515Y-13238914D01*
X3430044Y-12870855D01*
X3718751Y-12526556D01*
X4036987Y-12208338D01*
X4383100Y-11918522D01*
X4755440Y-11659429D01*
X5152356Y-11433381D01*
X5224583Y-11397215D01*
X5523549Y-11259722D01*
X5812956Y-11146853D01*
X6106394Y-11054196D01*
X6417457Y-10977340D01*
X6674487Y-10926699D01*
X6819841Y-10906579D01*
X6997590Y-10891344D01*
X7198069Y-10881055D01*
X7411618Y-10875772D01*
X7628572Y-10875556D01*
X7839269Y-10880467D01*
X7839269Y-10880467D01*
G37*
X7839269Y-10880467D02*
X8034046Y-10890564D01*
X8203240Y-10905908D01*
X8282412Y-10916688D01*
X8742334Y-11010216D01*
X9184976Y-11141447D01*
X9608721Y-11308755D01*
X10011953Y-11510514D01*
X10393057Y-11745098D01*
X10750417Y-12010882D01*
X11082418Y-12306239D01*
X11387444Y-12629545D01*
X11663879Y-12979173D01*
X11910108Y-13353498D01*
X12124515Y-13750893D01*
X12305484Y-14169735D01*
X12451400Y-14608395D01*
X12560648Y-15065250D01*
X12594124Y-15255286D01*
X12611171Y-15397270D01*
X12623477Y-15571096D01*
X12631039Y-15766536D01*
X12633854Y-15973363D01*
X12631918Y-16181351D01*
X12625231Y-16380273D01*
X12613788Y-16559904D01*
X12597587Y-16710015D01*
X12594519Y-16730833D01*
X12525486Y-17105083D01*
X12436535Y-17453284D01*
X12323536Y-17788665D01*
X12182357Y-18124457D01*
X12115323Y-18265417D01*
X11935679Y-18604142D01*
X11741969Y-18913170D01*
X11526580Y-19203096D01*
X11281898Y-19484516D01*
X11117650Y-19653904D01*
X10778314Y-19961823D01*
X10413450Y-20236882D01*
X10025723Y-20477802D01*
X9617797Y-20683305D01*
X9192335Y-20852112D01*
X8752002Y-20982944D01*
X8299460Y-21074523D01*
X8101993Y-21101489D01*
X7977084Y-21112689D01*
X7822977Y-21121289D01*
X7651732Y-21127088D01*
X7475408Y-21129887D01*
X7306064Y-21129485D01*
X7155759Y-21125683D01*
X7044916Y-21119031D01*
X6596265Y-21059354D01*
X6158949Y-20960344D01*
X5735053Y-20823860D01*
X5326663Y-20651760D01*
X4935867Y-20445902D01*
X4564749Y-20208144D01*
X4215396Y-19940346D01*
X3889894Y-19644365D01*
X3590329Y-19322059D01*
X3318788Y-18975287D01*
X3077356Y-18605907D01*
X2868119Y-18215778D01*
X2693164Y-17806757D01*
X2554577Y-17380704D01*
X2475196Y-17048333D01*
X2426562Y-16751814D01*
X2394046Y-16430362D01*
X2378200Y-16098401D01*
X2378289Y-16077096D01*
X2655521Y-16077096D01*
X2658057Y-16264015D01*
X2666089Y-16428793D01*
X2672270Y-16499518D01*
X2737588Y-16926610D01*
X2842767Y-17350818D01*
X2985600Y-17766748D01*
X3163876Y-18169007D01*
X3375385Y-18552201D01*
X3617920Y-18910939D01*
X3707884Y-19027417D01*
X3934876Y-19288316D01*
X4192738Y-19544180D01*
X4470315Y-19784898D01*
X4756449Y-20000357D01*
X4854166Y-20066367D01*
X5238609Y-20293032D01*
X5644144Y-20483761D01*
X6067996Y-20637583D01*
X6507395Y-20753529D01*
X6959566Y-20830628D01*
X7076666Y-20843965D01*
X7166134Y-20849922D01*
X7286741Y-20853466D01*
X7427367Y-20854692D01*
X7576891Y-20853693D01*
X7724193Y-20850565D01*
X7858153Y-20845401D01*
X7967651Y-20838295D01*
X7989882Y-20836228D01*
X8431168Y-20770653D01*
X8863487Y-20664558D01*
X9283953Y-20519321D01*
X9689682Y-20336314D01*
X10077787Y-20116914D01*
X10445383Y-19862495D01*
X10789585Y-19574434D01*
X10940087Y-19430187D01*
X11219773Y-19127404D01*
X11466166Y-18810340D01*
X11685092Y-18470740D01*
X11882381Y-18100350D01*
X11889557Y-18085500D01*
X12028848Y-17770900D01*
X12141884Y-17457131D01*
X12232596Y-17131489D01*
X12304921Y-16781272D01*
X12318850Y-16699083D01*
X12336852Y-16553159D01*
X12349445Y-16375941D01*
X12356635Y-16178122D01*
X12358428Y-15970394D01*
X12354829Y-15763450D01*
X12345843Y-15567981D01*
X12331478Y-15394680D01*
X12318101Y-15291500D01*
X12227391Y-14845203D01*
X12098918Y-14415267D01*
X11934420Y-14003512D01*
X11735632Y-13611757D01*
X11504290Y-13241821D01*
X11242132Y-12895524D01*
X10950892Y-12574684D01*
X10632307Y-12281122D01*
X10288113Y-12016655D01*
X9920047Y-11783103D01*
X9529844Y-11582287D01*
X9119241Y-11416023D01*
X8689974Y-11286133D01*
X8441916Y-11229928D01*
X8174046Y-11184390D01*
X7906714Y-11156204D01*
X7622757Y-11143765D01*
X7510583Y-11142833D01*
X7055601Y-11163519D01*
X6610159Y-11225033D01*
X6176182Y-11326560D01*
X5755591Y-11467288D01*
X5350312Y-11646402D01*
X4962267Y-11863087D01*
X4593381Y-12116529D01*
X4245576Y-12405915D01*
X4027660Y-12617075D01*
X3723865Y-12958275D01*
X3457534Y-13318542D01*
X3228240Y-13698704D01*
X3035559Y-14099593D01*
X2879066Y-14522038D01*
X2758337Y-14966872D01*
X2713503Y-15185667D01*
X2693607Y-15322459D01*
X2677524Y-15490719D01*
X2665591Y-15679727D01*
X2658145Y-15878760D01*
X2655521Y-16077096D01*
X2378289Y-16077096D01*
X2379577Y-15770356D01*
X2398729Y-15460651D01*
X2410335Y-15354368D01*
X2487207Y-14902326D01*
X2603512Y-14462439D01*
X2757599Y-14037027D01*
X2947817Y-13628412D01*
X3172515Y-13238914D01*
X3430044Y-12870855D01*
X3718751Y-12526556D01*
X4036987Y-12208338D01*
X4383100Y-11918522D01*
X4755440Y-11659429D01*
X5152356Y-11433381D01*
X5224583Y-11397215D01*
X5523549Y-11259722D01*
X5812956Y-11146853D01*
X6106394Y-11054196D01*
X6417457Y-10977340D01*
X6674487Y-10926699D01*
X6819841Y-10906579D01*
X6997590Y-10891344D01*
X7198069Y-10881055D01*
X7411618Y-10875772D01*
X7628572Y-10875556D01*
X7839269Y-10880467D01*
G36*
X7525844Y-21973463D02*
X7579497Y-22014241D01*
X7601647Y-22049451D01*
X7618508Y-22101539D01*
X7608351Y-22150254D01*
X7601538Y-22165375D01*
X7573206Y-22205917D01*
X7529213Y-22224912D01*
X7489163Y-22229838D01*
X7427192Y-22227612D01*
X7383273Y-22213761D01*
X7378196Y-22209730D01*
X7360779Y-22172255D01*
X7352063Y-22114211D01*
X7351833Y-22103421D01*
X7368016Y-22031557D01*
X7409488Y-21984414D01*
X7465636Y-21964285D01*
X7525844Y-21973463D01*
X7525844Y-21973463D01*
G37*
X7525844Y-21973463D02*
X7579497Y-22014241D01*
X7601647Y-22049451D01*
X7618508Y-22101539D01*
X7608351Y-22150254D01*
X7601538Y-22165375D01*
X7573206Y-22205917D01*
X7529213Y-22224912D01*
X7489163Y-22229838D01*
X7427192Y-22227612D01*
X7383273Y-22213761D01*
X7378196Y-22209730D01*
X7360779Y-22172255D01*
X7352063Y-22114211D01*
X7351833Y-22103421D01*
X7368016Y-22031557D01*
X7409488Y-21984414D01*
X7465636Y-21964285D01*
X7525844Y-21973463D01*
G36*
X7540748Y-22519563D02*
X7582134Y-22554908D01*
X7604512Y-22601108D01*
X7612315Y-22672956D01*
X7586130Y-22738340D01*
X7555039Y-22768301D01*
X7501693Y-22783501D01*
X7437508Y-22777545D01*
X7386796Y-22752875D01*
X7385095Y-22751238D01*
X7361800Y-22707486D01*
X7351838Y-22648188D01*
X7351833Y-22646917D01*
X7367513Y-22571531D01*
X7411908Y-22524350D01*
X7475053Y-22509657D01*
X7540748Y-22519563D01*
X7540748Y-22519563D01*
G37*
X7540748Y-22519563D02*
X7582134Y-22554908D01*
X7604512Y-22601108D01*
X7612315Y-22672956D01*
X7586130Y-22738340D01*
X7555039Y-22768301D01*
X7501693Y-22783501D01*
X7437508Y-22777545D01*
X7386796Y-22752875D01*
X7385095Y-22751238D01*
X7361800Y-22707486D01*
X7351838Y-22648188D01*
X7351833Y-22646917D01*
X7367513Y-22571531D01*
X7411908Y-22524350D01*
X7475053Y-22509657D01*
X7540748Y-22519563D01*
G36*
X7546230Y-21320199D02*
X7568357Y-21339875D01*
X7591648Y-21371349D01*
X7633478Y-21433024D01*
X7690960Y-21520317D01*
X7761209Y-21628648D01*
X7841341Y-21753437D01*
X7928470Y-21890102D01*
X8019711Y-22034062D01*
X8112179Y-22180738D01*
X8202988Y-22325548D01*
X8289255Y-22463911D01*
X8368093Y-22591246D01*
X8436618Y-22702973D01*
X8491944Y-22794511D01*
X8531187Y-22861278D01*
X8551460Y-22898695D01*
X8553567Y-22904137D01*
X8544688Y-22954185D01*
X8509031Y-23002469D01*
X8459984Y-23033863D01*
X8434613Y-23038500D01*
X8391635Y-23023636D01*
X8356831Y-22995704D01*
X8336579Y-22968142D01*
X8296617Y-22909257D01*
X8239859Y-22823505D01*
X8169219Y-22715345D01*
X8087612Y-22589232D01*
X7997953Y-22449625D01*
X7924313Y-22334246D01*
X7817314Y-22166662D01*
X7730216Y-22031669D01*
X7660590Y-21925895D01*
X7606007Y-21845966D01*
X7564038Y-21788510D01*
X7532253Y-21750152D01*
X7508224Y-21727520D01*
X7489522Y-21717240D01*
X7478833Y-21715583D01*
X7462396Y-21719502D01*
X7442246Y-21733497D01*
X7415967Y-21760926D01*
X7381143Y-21805148D01*
X7335361Y-21869521D01*
X7276204Y-21957403D01*
X7201257Y-22072153D01*
X7108105Y-22217129D01*
X7029752Y-22340000D01*
X6935737Y-22487371D01*
X6847850Y-22624461D01*
X6768931Y-22746892D01*
X6701819Y-22850288D01*
X6649353Y-22930271D01*
X6614372Y-22982462D01*
X6600721Y-23001458D01*
X6549070Y-23034376D01*
X6489617Y-23029004D01*
X6441666Y-22996167D01*
X6410161Y-22952859D01*
X6399333Y-22918477D01*
X6410272Y-22894982D01*
X6441195Y-22840380D01*
X6489260Y-22759217D01*
X6551626Y-22656037D01*
X6625452Y-22535388D01*
X6707896Y-22401814D01*
X6796117Y-22259861D01*
X6887274Y-22114075D01*
X6978525Y-21969001D01*
X7067029Y-21829186D01*
X7149944Y-21699175D01*
X7224430Y-21583513D01*
X7287644Y-21486747D01*
X7336746Y-21413421D01*
X7366225Y-21371625D01*
X7423638Y-21319640D01*
X7486960Y-21301976D01*
X7546230Y-21320199D01*
X7546230Y-21320199D01*
G37*
X7546230Y-21320199D02*
X7568357Y-21339875D01*
X7591648Y-21371349D01*
X7633478Y-21433024D01*
X7690960Y-21520317D01*
X7761209Y-21628648D01*
X7841341Y-21753437D01*
X7928470Y-21890102D01*
X8019711Y-22034062D01*
X8112179Y-22180738D01*
X8202988Y-22325548D01*
X8289255Y-22463911D01*
X8368093Y-22591246D01*
X8436618Y-22702973D01*
X8491944Y-22794511D01*
X8531187Y-22861278D01*
X8551460Y-22898695D01*
X8553567Y-22904137D01*
X8544688Y-22954185D01*
X8509031Y-23002469D01*
X8459984Y-23033863D01*
X8434613Y-23038500D01*
X8391635Y-23023636D01*
X8356831Y-22995704D01*
X8336579Y-22968142D01*
X8296617Y-22909257D01*
X8239859Y-22823505D01*
X8169219Y-22715345D01*
X8087612Y-22589232D01*
X7997953Y-22449625D01*
X7924313Y-22334246D01*
X7817314Y-22166662D01*
X7730216Y-22031669D01*
X7660590Y-21925895D01*
X7606007Y-21845966D01*
X7564038Y-21788510D01*
X7532253Y-21750152D01*
X7508224Y-21727520D01*
X7489522Y-21717240D01*
X7478833Y-21715583D01*
X7462396Y-21719502D01*
X7442246Y-21733497D01*
X7415967Y-21760926D01*
X7381143Y-21805148D01*
X7335361Y-21869521D01*
X7276204Y-21957403D01*
X7201257Y-22072153D01*
X7108105Y-22217129D01*
X7029752Y-22340000D01*
X6935737Y-22487371D01*
X6847850Y-22624461D01*
X6768931Y-22746892D01*
X6701819Y-22850288D01*
X6649353Y-22930271D01*
X6614372Y-22982462D01*
X6600721Y-23001458D01*
X6549070Y-23034376D01*
X6489617Y-23029004D01*
X6441666Y-22996167D01*
X6410161Y-22952859D01*
X6399333Y-22918477D01*
X6410272Y-22894982D01*
X6441195Y-22840380D01*
X6489260Y-22759217D01*
X6551626Y-22656037D01*
X6625452Y-22535388D01*
X6707896Y-22401814D01*
X6796117Y-22259861D01*
X6887274Y-22114075D01*
X6978525Y-21969001D01*
X7067029Y-21829186D01*
X7149944Y-21699175D01*
X7224430Y-21583513D01*
X7287644Y-21486747D01*
X7336746Y-21413421D01*
X7366225Y-21371625D01*
X7423638Y-21319640D01*
X7486960Y-21301976D01*
X7546230Y-21320199D01*
G36*
X7541842Y-23068329D02*
X7582600Y-23088967D01*
X7583448Y-23089949D01*
X7608703Y-23149230D01*
X7606951Y-23219133D01*
X7580000Y-23280028D01*
X7564474Y-23295967D01*
X7501128Y-23330464D01*
X7439520Y-23324705D01*
X7398876Y-23301883D01*
X7366311Y-23257280D01*
X7351157Y-23193074D01*
X7355312Y-23128277D01*
X7377233Y-23085067D01*
X7419518Y-23065913D01*
X7480935Y-23060489D01*
X7541842Y-23068329D01*
X7541842Y-23068329D01*
G37*
X7541842Y-23068329D02*
X7582600Y-23088967D01*
X7583448Y-23089949D01*
X7608703Y-23149230D01*
X7606951Y-23219133D01*
X7580000Y-23280028D01*
X7564474Y-23295967D01*
X7501128Y-23330464D01*
X7439520Y-23324705D01*
X7398876Y-23301883D01*
X7366311Y-23257280D01*
X7351157Y-23193074D01*
X7355312Y-23128277D01*
X7377233Y-23085067D01*
X7419518Y-23065913D01*
X7480935Y-23060489D01*
X7541842Y-23068329D01*
G36*
X7525844Y-23603296D02*
X7579497Y-23644075D01*
X7601647Y-23679284D01*
X7618508Y-23731372D01*
X7608351Y-23780088D01*
X7601538Y-23795208D01*
X7573206Y-23835750D01*
X7529213Y-23854745D01*
X7489163Y-23859671D01*
X7427192Y-23857445D01*
X7383273Y-23843594D01*
X7378196Y-23839563D01*
X7360779Y-23802088D01*
X7352063Y-23744044D01*
X7351833Y-23733254D01*
X7368016Y-23661390D01*
X7409488Y-23614247D01*
X7465636Y-23594118D01*
X7525844Y-23603296D01*
X7525844Y-23603296D01*
G37*
X7525844Y-23603296D02*
X7579497Y-23644075D01*
X7601647Y-23679284D01*
X7618508Y-23731372D01*
X7608351Y-23780088D01*
X7601538Y-23795208D01*
X7573206Y-23835750D01*
X7529213Y-23854745D01*
X7489163Y-23859671D01*
X7427192Y-23857445D01*
X7383273Y-23843594D01*
X7378196Y-23839563D01*
X7360779Y-23802088D01*
X7352063Y-23744044D01*
X7351833Y-23733254D01*
X7368016Y-23661390D01*
X7409488Y-23614247D01*
X7465636Y-23594118D01*
X7525844Y-23603296D01*
G36*
X7540748Y-24149396D02*
X7582134Y-24184741D01*
X7604512Y-24230942D01*
X7612315Y-24302789D01*
X7586130Y-24368173D01*
X7555039Y-24398134D01*
X7501693Y-24413334D01*
X7437508Y-24407379D01*
X7386796Y-24382708D01*
X7385095Y-24381071D01*
X7361800Y-24337319D01*
X7351838Y-24278021D01*
X7351833Y-24276750D01*
X7367513Y-24201365D01*
X7411908Y-24154184D01*
X7475053Y-24139491D01*
X7540748Y-24149396D01*
X7540748Y-24149396D01*
G37*
X7540748Y-24149396D02*
X7582134Y-24184741D01*
X7604512Y-24230942D01*
X7612315Y-24302789D01*
X7586130Y-24368173D01*
X7555039Y-24398134D01*
X7501693Y-24413334D01*
X7437508Y-24407379D01*
X7386796Y-24382708D01*
X7385095Y-24381071D01*
X7361800Y-24337319D01*
X7351838Y-24278021D01*
X7351833Y-24276750D01*
X7367513Y-24201365D01*
X7411908Y-24154184D01*
X7475053Y-24139491D01*
X7540748Y-24149396D01*
G36*
X7541842Y-24698162D02*
X7582600Y-24718800D01*
X7583448Y-24719783D01*
X7608703Y-24779063D01*
X7606951Y-24848966D01*
X7580000Y-24909861D01*
X7564474Y-24925800D01*
X7501128Y-24960298D01*
X7439520Y-24954538D01*
X7398876Y-24931716D01*
X7366311Y-24887113D01*
X7351157Y-24822907D01*
X7355312Y-24758111D01*
X7377233Y-24714900D01*
X7419518Y-24695746D01*
X7480935Y-24690322D01*
X7541842Y-24698162D01*
X7541842Y-24698162D01*
G37*
X7541842Y-24698162D02*
X7582600Y-24718800D01*
X7583448Y-24719783D01*
X7608703Y-24779063D01*
X7606951Y-24848966D01*
X7580000Y-24909861D01*
X7564474Y-24925800D01*
X7501128Y-24960298D01*
X7439520Y-24954538D01*
X7398876Y-24931716D01*
X7366311Y-24887113D01*
X7351157Y-24822907D01*
X7355312Y-24758111D01*
X7377233Y-24714900D01*
X7419518Y-24695746D01*
X7480935Y-24690322D01*
X7541842Y-24698162D01*
G36*
X7525844Y-25233129D02*
X7579497Y-25273908D01*
X7601647Y-25309117D01*
X7618508Y-25361205D01*
X7608351Y-25409921D01*
X7601538Y-25425042D01*
X7573206Y-25465584D01*
X7529213Y-25484578D01*
X7489163Y-25489505D01*
X7427192Y-25487278D01*
X7383273Y-25473428D01*
X7378196Y-25469396D01*
X7360779Y-25431921D01*
X7352063Y-25373878D01*
X7351833Y-25363088D01*
X7368016Y-25291224D01*
X7409488Y-25244080D01*
X7465636Y-25223951D01*
X7525844Y-25233129D01*
X7525844Y-25233129D01*
G37*
X7525844Y-25233129D02*
X7579497Y-25273908D01*
X7601647Y-25309117D01*
X7618508Y-25361205D01*
X7608351Y-25409921D01*
X7601538Y-25425042D01*
X7573206Y-25465584D01*
X7529213Y-25484578D01*
X7489163Y-25489505D01*
X7427192Y-25487278D01*
X7383273Y-25473428D01*
X7378196Y-25469396D01*
X7360779Y-25431921D01*
X7352063Y-25373878D01*
X7351833Y-25363088D01*
X7368016Y-25291224D01*
X7409488Y-25244080D01*
X7465636Y-25223951D01*
X7525844Y-25233129D01*
G36*
X7540748Y-25779229D02*
X7582134Y-25814575D01*
X7604512Y-25860775D01*
X7612315Y-25932623D01*
X7586130Y-25998006D01*
X7555039Y-26027967D01*
X7501693Y-26043168D01*
X7437508Y-26037212D01*
X7386796Y-26012541D01*
X7385095Y-26010905D01*
X7361800Y-25967153D01*
X7351838Y-25907855D01*
X7351833Y-25906583D01*
X7367513Y-25831198D01*
X7411908Y-25784017D01*
X7475053Y-25769324D01*
X7540748Y-25779229D01*
X7540748Y-25779229D01*
G37*
X7540748Y-25779229D02*
X7582134Y-25814575D01*
X7604512Y-25860775D01*
X7612315Y-25932623D01*
X7586130Y-25998006D01*
X7555039Y-26027967D01*
X7501693Y-26043168D01*
X7437508Y-26037212D01*
X7386796Y-26012541D01*
X7385095Y-26010905D01*
X7361800Y-25967153D01*
X7351838Y-25907855D01*
X7351833Y-25906583D01*
X7367513Y-25831198D01*
X7411908Y-25784017D01*
X7475053Y-25769324D01*
X7540748Y-25779229D01*
G36*
X7541842Y-26327995D02*
X7582600Y-26348634D01*
X7583448Y-26349616D01*
X7608703Y-26408897D01*
X7606951Y-26478800D01*
X7580000Y-26539694D01*
X7564474Y-26555633D01*
X7501128Y-26590131D01*
X7439520Y-26584372D01*
X7398876Y-26561550D01*
X7366311Y-26516946D01*
X7351157Y-26452740D01*
X7355312Y-26387944D01*
X7377233Y-26344733D01*
X7419518Y-26325580D01*
X7480935Y-26320155D01*
X7541842Y-26327995D01*
X7541842Y-26327995D01*
G37*
X7541842Y-26327995D02*
X7582600Y-26348634D01*
X7583448Y-26349616D01*
X7608703Y-26408897D01*
X7606951Y-26478800D01*
X7580000Y-26539694D01*
X7564474Y-26555633D01*
X7501128Y-26590131D01*
X7439520Y-26584372D01*
X7398876Y-26561550D01*
X7366311Y-26516946D01*
X7351157Y-26452740D01*
X7355312Y-26387944D01*
X7377233Y-26344733D01*
X7419518Y-26325580D01*
X7480935Y-26320155D01*
X7541842Y-26327995D01*
G36*
X7525844Y-26862963D02*
X7579497Y-26903741D01*
X7601647Y-26938951D01*
X7618508Y-26991039D01*
X7608351Y-27039754D01*
X7601538Y-27054875D01*
X7573206Y-27095417D01*
X7529213Y-27114412D01*
X7489163Y-27119338D01*
X7427192Y-27117112D01*
X7383273Y-27103261D01*
X7378196Y-27099230D01*
X7360779Y-27061755D01*
X7352063Y-27003711D01*
X7351833Y-26992921D01*
X7368016Y-26921057D01*
X7409488Y-26873914D01*
X7465636Y-26853785D01*
X7525844Y-26862963D01*
X7525844Y-26862963D01*
G37*
X7525844Y-26862963D02*
X7579497Y-26903741D01*
X7601647Y-26938951D01*
X7618508Y-26991039D01*
X7608351Y-27039754D01*
X7601538Y-27054875D01*
X7573206Y-27095417D01*
X7529213Y-27114412D01*
X7489163Y-27119338D01*
X7427192Y-27117112D01*
X7383273Y-27103261D01*
X7378196Y-27099230D01*
X7360779Y-27061755D01*
X7352063Y-27003711D01*
X7351833Y-26992921D01*
X7368016Y-26921057D01*
X7409488Y-26873914D01*
X7465636Y-26853785D01*
X7525844Y-26862963D01*
G36*
X7540748Y-27409063D02*
X7582134Y-27444408D01*
X7604512Y-27490608D01*
X7612315Y-27562456D01*
X7586130Y-27627840D01*
X7555039Y-27657801D01*
X7501693Y-27673001D01*
X7437508Y-27667045D01*
X7386796Y-27642375D01*
X7385095Y-27640738D01*
X7361800Y-27596986D01*
X7351838Y-27537688D01*
X7351833Y-27536417D01*
X7367513Y-27461031D01*
X7411908Y-27413850D01*
X7475053Y-27399157D01*
X7540748Y-27409063D01*
X7540748Y-27409063D01*
G37*
X7540748Y-27409063D02*
X7582134Y-27444408D01*
X7604512Y-27490608D01*
X7612315Y-27562456D01*
X7586130Y-27627840D01*
X7555039Y-27657801D01*
X7501693Y-27673001D01*
X7437508Y-27667045D01*
X7386796Y-27642375D01*
X7385095Y-27640738D01*
X7361800Y-27596986D01*
X7351838Y-27537688D01*
X7351833Y-27536417D01*
X7367513Y-27461031D01*
X7411908Y-27413850D01*
X7475053Y-27399157D01*
X7540748Y-27409063D01*
G36*
X7541842Y-27957829D02*
X7582600Y-27978467D01*
X7583448Y-27979449D01*
X7608703Y-28038730D01*
X7606951Y-28108633D01*
X7580000Y-28169528D01*
X7564474Y-28185467D01*
X7501128Y-28219964D01*
X7439520Y-28214205D01*
X7398876Y-28191383D01*
X7366311Y-28146780D01*
X7351157Y-28082574D01*
X7355312Y-28017777D01*
X7377233Y-27974567D01*
X7419518Y-27955413D01*
X7480935Y-27949989D01*
X7541842Y-27957829D01*
X7541842Y-27957829D01*
G37*
X7541842Y-27957829D02*
X7582600Y-27978467D01*
X7583448Y-27979449D01*
X7608703Y-28038730D01*
X7606951Y-28108633D01*
X7580000Y-28169528D01*
X7564474Y-28185467D01*
X7501128Y-28219964D01*
X7439520Y-28214205D01*
X7398876Y-28191383D01*
X7366311Y-28146780D01*
X7351157Y-28082574D01*
X7355312Y-28017777D01*
X7377233Y-27974567D01*
X7419518Y-27955413D01*
X7480935Y-27949989D01*
X7541842Y-27957829D01*
G36*
X7525844Y-28492796D02*
X7579497Y-28533575D01*
X7601647Y-28568784D01*
X7618508Y-28620872D01*
X7608351Y-28669588D01*
X7601538Y-28684708D01*
X7573206Y-28725250D01*
X7529213Y-28744245D01*
X7489163Y-28749171D01*
X7427192Y-28746945D01*
X7383273Y-28733094D01*
X7378196Y-28729063D01*
X7360779Y-28691588D01*
X7352063Y-28633544D01*
X7351833Y-28622754D01*
X7368016Y-28550890D01*
X7409488Y-28503747D01*
X7465636Y-28483618D01*
X7525844Y-28492796D01*
X7525844Y-28492796D01*
G37*
X7525844Y-28492796D02*
X7579497Y-28533575D01*
X7601647Y-28568784D01*
X7618508Y-28620872D01*
X7608351Y-28669588D01*
X7601538Y-28684708D01*
X7573206Y-28725250D01*
X7529213Y-28744245D01*
X7489163Y-28749171D01*
X7427192Y-28746945D01*
X7383273Y-28733094D01*
X7378196Y-28729063D01*
X7360779Y-28691588D01*
X7352063Y-28633544D01*
X7351833Y-28622754D01*
X7368016Y-28550890D01*
X7409488Y-28503747D01*
X7465636Y-28483618D01*
X7525844Y-28492796D01*
G36*
X7540748Y-29038896D02*
X7582134Y-29074241D01*
X7604512Y-29120442D01*
X7612315Y-29192289D01*
X7586130Y-29257673D01*
X7555039Y-29287634D01*
X7501693Y-29302834D01*
X7437508Y-29296879D01*
X7386796Y-29272208D01*
X7385095Y-29270571D01*
X7361800Y-29226819D01*
X7351838Y-29167521D01*
X7351833Y-29166250D01*
X7367513Y-29090865D01*
X7411908Y-29043684D01*
X7475053Y-29028991D01*
X7540748Y-29038896D01*
X7540748Y-29038896D01*
G37*
X7540748Y-29038896D02*
X7582134Y-29074241D01*
X7604512Y-29120442D01*
X7612315Y-29192289D01*
X7586130Y-29257673D01*
X7555039Y-29287634D01*
X7501693Y-29302834D01*
X7437508Y-29296879D01*
X7386796Y-29272208D01*
X7385095Y-29270571D01*
X7361800Y-29226819D01*
X7351838Y-29167521D01*
X7351833Y-29166250D01*
X7367513Y-29090865D01*
X7411908Y-29043684D01*
X7475053Y-29028991D01*
X7540748Y-29038896D01*
G36*
X7541842Y-29587662D02*
X7582600Y-29608300D01*
X7583448Y-29609283D01*
X7608703Y-29668563D01*
X7606951Y-29738466D01*
X7580000Y-29799361D01*
X7564474Y-29815300D01*
X7501128Y-29849798D01*
X7439520Y-29844038D01*
X7398876Y-29821216D01*
X7366311Y-29776613D01*
X7351157Y-29712407D01*
X7355312Y-29647611D01*
X7377233Y-29604400D01*
X7419518Y-29585246D01*
X7480935Y-29579822D01*
X7541842Y-29587662D01*
X7541842Y-29587662D01*
G37*
X7541842Y-29587662D02*
X7582600Y-29608300D01*
X7583448Y-29609283D01*
X7608703Y-29668563D01*
X7606951Y-29738466D01*
X7580000Y-29799361D01*
X7564474Y-29815300D01*
X7501128Y-29849798D01*
X7439520Y-29844038D01*
X7398876Y-29821216D01*
X7366311Y-29776613D01*
X7351157Y-29712407D01*
X7355312Y-29647611D01*
X7377233Y-29604400D01*
X7419518Y-29585246D01*
X7480935Y-29579822D01*
X7541842Y-29587662D01*
G36*
X7525844Y-30122629D02*
X7579497Y-30163408D01*
X7601647Y-30198617D01*
X7618508Y-30250705D01*
X7608351Y-30299421D01*
X7601538Y-30314542D01*
X7573206Y-30355084D01*
X7529213Y-30374078D01*
X7489163Y-30379005D01*
X7427192Y-30376778D01*
X7383273Y-30362928D01*
X7378196Y-30358896D01*
X7360779Y-30321421D01*
X7352063Y-30263378D01*
X7351833Y-30252588D01*
X7368016Y-30180724D01*
X7409488Y-30133580D01*
X7465636Y-30113451D01*
X7525844Y-30122629D01*
X7525844Y-30122629D01*
G37*
X7525844Y-30122629D02*
X7579497Y-30163408D01*
X7601647Y-30198617D01*
X7618508Y-30250705D01*
X7608351Y-30299421D01*
X7601538Y-30314542D01*
X7573206Y-30355084D01*
X7529213Y-30374078D01*
X7489163Y-30379005D01*
X7427192Y-30376778D01*
X7383273Y-30362928D01*
X7378196Y-30358896D01*
X7360779Y-30321421D01*
X7352063Y-30263378D01*
X7351833Y-30252588D01*
X7368016Y-30180724D01*
X7409488Y-30133580D01*
X7465636Y-30113451D01*
X7525844Y-30122629D01*
G36*
X7540748Y-30668729D02*
X7582134Y-30704075D01*
X7604512Y-30750275D01*
X7612315Y-30822123D01*
X7586130Y-30887506D01*
X7555039Y-30917467D01*
X7501693Y-30932668D01*
X7437508Y-30926712D01*
X7386796Y-30902041D01*
X7385095Y-30900405D01*
X7361800Y-30856653D01*
X7351838Y-30797355D01*
X7351833Y-30796083D01*
X7367513Y-30720698D01*
X7411908Y-30673517D01*
X7475053Y-30658824D01*
X7540748Y-30668729D01*
X7540748Y-30668729D01*
G37*
X7540748Y-30668729D02*
X7582134Y-30704075D01*
X7604512Y-30750275D01*
X7612315Y-30822123D01*
X7586130Y-30887506D01*
X7555039Y-30917467D01*
X7501693Y-30932668D01*
X7437508Y-30926712D01*
X7386796Y-30902041D01*
X7385095Y-30900405D01*
X7361800Y-30856653D01*
X7351838Y-30797355D01*
X7351833Y-30796083D01*
X7367513Y-30720698D01*
X7411908Y-30673517D01*
X7475053Y-30658824D01*
X7540748Y-30668729D01*
G36*
X7541842Y-31217495D02*
X7582600Y-31238134D01*
X7583448Y-31239116D01*
X7608703Y-31298397D01*
X7606951Y-31368300D01*
X7580000Y-31429194D01*
X7564474Y-31445133D01*
X7501128Y-31479631D01*
X7439520Y-31473872D01*
X7398876Y-31451050D01*
X7366311Y-31406446D01*
X7351157Y-31342240D01*
X7355312Y-31277444D01*
X7377233Y-31234233D01*
X7419518Y-31215080D01*
X7480935Y-31209655D01*
X7541842Y-31217495D01*
X7541842Y-31217495D01*
G37*
X7541842Y-31217495D02*
X7582600Y-31238134D01*
X7583448Y-31239116D01*
X7608703Y-31298397D01*
X7606951Y-31368300D01*
X7580000Y-31429194D01*
X7564474Y-31445133D01*
X7501128Y-31479631D01*
X7439520Y-31473872D01*
X7398876Y-31451050D01*
X7366311Y-31406446D01*
X7351157Y-31342240D01*
X7355312Y-31277444D01*
X7377233Y-31234233D01*
X7419518Y-31215080D01*
X7480935Y-31209655D01*
X7541842Y-31217495D01*
G36*
X7525844Y-31752463D02*
X7579497Y-31793241D01*
X7601647Y-31828451D01*
X7618508Y-31880539D01*
X7608351Y-31929254D01*
X7601538Y-31944375D01*
X7573206Y-31984917D01*
X7529213Y-32003912D01*
X7489163Y-32008838D01*
X7427192Y-32006612D01*
X7383273Y-31992761D01*
X7378196Y-31988730D01*
X7360779Y-31951255D01*
X7352063Y-31893211D01*
X7351833Y-31882421D01*
X7368016Y-31810557D01*
X7409488Y-31763414D01*
X7465636Y-31743285D01*
X7525844Y-31752463D01*
X7525844Y-31752463D01*
G37*
X7525844Y-31752463D02*
X7579497Y-31793241D01*
X7601647Y-31828451D01*
X7618508Y-31880539D01*
X7608351Y-31929254D01*
X7601538Y-31944375D01*
X7573206Y-31984917D01*
X7529213Y-32003912D01*
X7489163Y-32008838D01*
X7427192Y-32006612D01*
X7383273Y-31992761D01*
X7378196Y-31988730D01*
X7360779Y-31951255D01*
X7352063Y-31893211D01*
X7351833Y-31882421D01*
X7368016Y-31810557D01*
X7409488Y-31763414D01*
X7465636Y-31743285D01*
X7525844Y-31752463D01*
G36*
X7540748Y-32298563D02*
X7582134Y-32333908D01*
X7604512Y-32380108D01*
X7612315Y-32451956D01*
X7586130Y-32517340D01*
X7555039Y-32547301D01*
X7501693Y-32562501D01*
X7437508Y-32556545D01*
X7386796Y-32531875D01*
X7385095Y-32530238D01*
X7361800Y-32486486D01*
X7351838Y-32427188D01*
X7351833Y-32425917D01*
X7367513Y-32350531D01*
X7411908Y-32303350D01*
X7475053Y-32288657D01*
X7540748Y-32298563D01*
X7540748Y-32298563D01*
G37*
X7540748Y-32298563D02*
X7582134Y-32333908D01*
X7604512Y-32380108D01*
X7612315Y-32451956D01*
X7586130Y-32517340D01*
X7555039Y-32547301D01*
X7501693Y-32562501D01*
X7437508Y-32556545D01*
X7386796Y-32531875D01*
X7385095Y-32530238D01*
X7361800Y-32486486D01*
X7351838Y-32427188D01*
X7351833Y-32425917D01*
X7367513Y-32350531D01*
X7411908Y-32303350D01*
X7475053Y-32288657D01*
X7540748Y-32298563D01*
G36*
X7541842Y-32847329D02*
X7582600Y-32867967D01*
X7583448Y-32868949D01*
X7608703Y-32928230D01*
X7606951Y-32998133D01*
X7580000Y-33059028D01*
X7564474Y-33074967D01*
X7501128Y-33109464D01*
X7439520Y-33103705D01*
X7398876Y-33080883D01*
X7366311Y-33036280D01*
X7351157Y-32972074D01*
X7355312Y-32907277D01*
X7377233Y-32864067D01*
X7419518Y-32844913D01*
X7480935Y-32839489D01*
X7541842Y-32847329D01*
X7541842Y-32847329D01*
G37*
X7541842Y-32847329D02*
X7582600Y-32867967D01*
X7583448Y-32868949D01*
X7608703Y-32928230D01*
X7606951Y-32998133D01*
X7580000Y-33059028D01*
X7564474Y-33074967D01*
X7501128Y-33109464D01*
X7439520Y-33103705D01*
X7398876Y-33080883D01*
X7366311Y-33036280D01*
X7351157Y-32972074D01*
X7355312Y-32907277D01*
X7377233Y-32864067D01*
X7419518Y-32844913D01*
X7480935Y-32839489D01*
X7541842Y-32847329D01*
G36*
X7525844Y-33382296D02*
X7579497Y-33423075D01*
X7601647Y-33458284D01*
X7618508Y-33510372D01*
X7608351Y-33559088D01*
X7601538Y-33574208D01*
X7573206Y-33614750D01*
X7529213Y-33633745D01*
X7489163Y-33638671D01*
X7427192Y-33636445D01*
X7383273Y-33622594D01*
X7378196Y-33618563D01*
X7360779Y-33581088D01*
X7352063Y-33523044D01*
X7351833Y-33512254D01*
X7368016Y-33440390D01*
X7409488Y-33393247D01*
X7465636Y-33373118D01*
X7525844Y-33382296D01*
X7525844Y-33382296D01*
G37*
X7525844Y-33382296D02*
X7579497Y-33423075D01*
X7601647Y-33458284D01*
X7618508Y-33510372D01*
X7608351Y-33559088D01*
X7601538Y-33574208D01*
X7573206Y-33614750D01*
X7529213Y-33633745D01*
X7489163Y-33638671D01*
X7427192Y-33636445D01*
X7383273Y-33622594D01*
X7378196Y-33618563D01*
X7360779Y-33581088D01*
X7352063Y-33523044D01*
X7351833Y-33512254D01*
X7368016Y-33440390D01*
X7409488Y-33393247D01*
X7465636Y-33373118D01*
X7525844Y-33382296D01*
G36*
X7540748Y-33928396D02*
X7582134Y-33963741D01*
X7604512Y-34009942D01*
X7612315Y-34081789D01*
X7586130Y-34147173D01*
X7555039Y-34177134D01*
X7501693Y-34192334D01*
X7437508Y-34186379D01*
X7386796Y-34161708D01*
X7385095Y-34160071D01*
X7361800Y-34116319D01*
X7351838Y-34057021D01*
X7351833Y-34055750D01*
X7367513Y-33980365D01*
X7411908Y-33933184D01*
X7475053Y-33918491D01*
X7540748Y-33928396D01*
X7540748Y-33928396D01*
G37*
X7540748Y-33928396D02*
X7582134Y-33963741D01*
X7604512Y-34009942D01*
X7612315Y-34081789D01*
X7586130Y-34147173D01*
X7555039Y-34177134D01*
X7501693Y-34192334D01*
X7437508Y-34186379D01*
X7386796Y-34161708D01*
X7385095Y-34160071D01*
X7361800Y-34116319D01*
X7351838Y-34057021D01*
X7351833Y-34055750D01*
X7367513Y-33980365D01*
X7411908Y-33933184D01*
X7475053Y-33918491D01*
X7540748Y-33928396D01*
G36*
X7541842Y-34477162D02*
X7582600Y-34497800D01*
X7583448Y-34498783D01*
X7608703Y-34558063D01*
X7606951Y-34627966D01*
X7580000Y-34688861D01*
X7564474Y-34704800D01*
X7501128Y-34739298D01*
X7439520Y-34733538D01*
X7398876Y-34710716D01*
X7366311Y-34666113D01*
X7351157Y-34601907D01*
X7355312Y-34537111D01*
X7377233Y-34493900D01*
X7419518Y-34474746D01*
X7480935Y-34469322D01*
X7541842Y-34477162D01*
X7541842Y-34477162D01*
G37*
X7541842Y-34477162D02*
X7582600Y-34497800D01*
X7583448Y-34498783D01*
X7608703Y-34558063D01*
X7606951Y-34627966D01*
X7580000Y-34688861D01*
X7564474Y-34704800D01*
X7501128Y-34739298D01*
X7439520Y-34733538D01*
X7398876Y-34710716D01*
X7366311Y-34666113D01*
X7351157Y-34601907D01*
X7355312Y-34537111D01*
X7377233Y-34493900D01*
X7419518Y-34474746D01*
X7480935Y-34469322D01*
X7541842Y-34477162D01*
G36*
X7525844Y-35012129D02*
X7579497Y-35052908D01*
X7601647Y-35088117D01*
X7618508Y-35140205D01*
X7608351Y-35188921D01*
X7601538Y-35204042D01*
X7573206Y-35244584D01*
X7529213Y-35263578D01*
X7489163Y-35268505D01*
X7427192Y-35266278D01*
X7383273Y-35252428D01*
X7378196Y-35248396D01*
X7360779Y-35210921D01*
X7352063Y-35152878D01*
X7351833Y-35142088D01*
X7368016Y-35070224D01*
X7409488Y-35023080D01*
X7465636Y-35002951D01*
X7525844Y-35012129D01*
X7525844Y-35012129D01*
G37*
X7525844Y-35012129D02*
X7579497Y-35052908D01*
X7601647Y-35088117D01*
X7618508Y-35140205D01*
X7608351Y-35188921D01*
X7601538Y-35204042D01*
X7573206Y-35244584D01*
X7529213Y-35263578D01*
X7489163Y-35268505D01*
X7427192Y-35266278D01*
X7383273Y-35252428D01*
X7378196Y-35248396D01*
X7360779Y-35210921D01*
X7352063Y-35152878D01*
X7351833Y-35142088D01*
X7368016Y-35070224D01*
X7409488Y-35023080D01*
X7465636Y-35002951D01*
X7525844Y-35012129D01*
G36*
X7540748Y-35558229D02*
X7582134Y-35593575D01*
X7604512Y-35639775D01*
X7612315Y-35711623D01*
X7586130Y-35777006D01*
X7555039Y-35806967D01*
X7501693Y-35822168D01*
X7437508Y-35816212D01*
X7386796Y-35791541D01*
X7385095Y-35789905D01*
X7361800Y-35746153D01*
X7351838Y-35686855D01*
X7351833Y-35685583D01*
X7367513Y-35610198D01*
X7411908Y-35563017D01*
X7475053Y-35548324D01*
X7540748Y-35558229D01*
X7540748Y-35558229D01*
G37*
X7540748Y-35558229D02*
X7582134Y-35593575D01*
X7604512Y-35639775D01*
X7612315Y-35711623D01*
X7586130Y-35777006D01*
X7555039Y-35806967D01*
X7501693Y-35822168D01*
X7437508Y-35816212D01*
X7386796Y-35791541D01*
X7385095Y-35789905D01*
X7361800Y-35746153D01*
X7351838Y-35686855D01*
X7351833Y-35685583D01*
X7367513Y-35610198D01*
X7411908Y-35563017D01*
X7475053Y-35548324D01*
X7540748Y-35558229D01*
G36*
X7541842Y-36106995D02*
X7582600Y-36127634D01*
X7583448Y-36128616D01*
X7608703Y-36187897D01*
X7606951Y-36257800D01*
X7580000Y-36318694D01*
X7564474Y-36334633D01*
X7501128Y-36369131D01*
X7439520Y-36363372D01*
X7398876Y-36340550D01*
X7366311Y-36295946D01*
X7351157Y-36231740D01*
X7355312Y-36166944D01*
X7377233Y-36123733D01*
X7419518Y-36104580D01*
X7480935Y-36099155D01*
X7541842Y-36106995D01*
X7541842Y-36106995D01*
G37*
X7541842Y-36106995D02*
X7582600Y-36127634D01*
X7583448Y-36128616D01*
X7608703Y-36187897D01*
X7606951Y-36257800D01*
X7580000Y-36318694D01*
X7564474Y-36334633D01*
X7501128Y-36369131D01*
X7439520Y-36363372D01*
X7398876Y-36340550D01*
X7366311Y-36295946D01*
X7351157Y-36231740D01*
X7355312Y-36166944D01*
X7377233Y-36123733D01*
X7419518Y-36104580D01*
X7480935Y-36099155D01*
X7541842Y-36106995D01*
G36*
X7525844Y-36641963D02*
X7579497Y-36682741D01*
X7601647Y-36717951D01*
X7618508Y-36770039D01*
X7608351Y-36818754D01*
X7601538Y-36833875D01*
X7573206Y-36874417D01*
X7529213Y-36893412D01*
X7489163Y-36898338D01*
X7427192Y-36896112D01*
X7383273Y-36882261D01*
X7378196Y-36878230D01*
X7360779Y-36840755D01*
X7352063Y-36782711D01*
X7351833Y-36771921D01*
X7368016Y-36700057D01*
X7409488Y-36652914D01*
X7465636Y-36632785D01*
X7525844Y-36641963D01*
X7525844Y-36641963D01*
G37*
X7525844Y-36641963D02*
X7579497Y-36682741D01*
X7601647Y-36717951D01*
X7618508Y-36770039D01*
X7608351Y-36818754D01*
X7601538Y-36833875D01*
X7573206Y-36874417D01*
X7529213Y-36893412D01*
X7489163Y-36898338D01*
X7427192Y-36896112D01*
X7383273Y-36882261D01*
X7378196Y-36878230D01*
X7360779Y-36840755D01*
X7352063Y-36782711D01*
X7351833Y-36771921D01*
X7368016Y-36700057D01*
X7409488Y-36652914D01*
X7465636Y-36632785D01*
X7525844Y-36641963D01*
G36*
X7540748Y-37188063D02*
X7582134Y-37223408D01*
X7604512Y-37269608D01*
X7612315Y-37341456D01*
X7586130Y-37406840D01*
X7555039Y-37436801D01*
X7501693Y-37452001D01*
X7437508Y-37446045D01*
X7386796Y-37421375D01*
X7385095Y-37419738D01*
X7361800Y-37375986D01*
X7351838Y-37316688D01*
X7351833Y-37315417D01*
X7367513Y-37240031D01*
X7411908Y-37192850D01*
X7475053Y-37178157D01*
X7540748Y-37188063D01*
X7540748Y-37188063D01*
G37*
X7540748Y-37188063D02*
X7582134Y-37223408D01*
X7604512Y-37269608D01*
X7612315Y-37341456D01*
X7586130Y-37406840D01*
X7555039Y-37436801D01*
X7501693Y-37452001D01*
X7437508Y-37446045D01*
X7386796Y-37421375D01*
X7385095Y-37419738D01*
X7361800Y-37375986D01*
X7351838Y-37316688D01*
X7351833Y-37315417D01*
X7367513Y-37240031D01*
X7411908Y-37192850D01*
X7475053Y-37178157D01*
X7540748Y-37188063D01*
G36*
X7541842Y-37736829D02*
X7582600Y-37757467D01*
X7583448Y-37758449D01*
X7608703Y-37817730D01*
X7606951Y-37887633D01*
X7580000Y-37948528D01*
X7564474Y-37964467D01*
X7501128Y-37998964D01*
X7439520Y-37993205D01*
X7398876Y-37970383D01*
X7366311Y-37925780D01*
X7351157Y-37861574D01*
X7355312Y-37796777D01*
X7377233Y-37753567D01*
X7419518Y-37734413D01*
X7480935Y-37728989D01*
X7541842Y-37736829D01*
X7541842Y-37736829D01*
G37*
X7541842Y-37736829D02*
X7582600Y-37757467D01*
X7583448Y-37758449D01*
X7608703Y-37817730D01*
X7606951Y-37887633D01*
X7580000Y-37948528D01*
X7564474Y-37964467D01*
X7501128Y-37998964D01*
X7439520Y-37993205D01*
X7398876Y-37970383D01*
X7366311Y-37925780D01*
X7351157Y-37861574D01*
X7355312Y-37796777D01*
X7377233Y-37753567D01*
X7419518Y-37734413D01*
X7480935Y-37728989D01*
X7541842Y-37736829D01*
G36*
X7525844Y-38271796D02*
X7579497Y-38312575D01*
X7601647Y-38347784D01*
X7618508Y-38399872D01*
X7608351Y-38448588D01*
X7601538Y-38463708D01*
X7573206Y-38504250D01*
X7529213Y-38523245D01*
X7489163Y-38528171D01*
X7427192Y-38525945D01*
X7383273Y-38512094D01*
X7378196Y-38508063D01*
X7360779Y-38470588D01*
X7352063Y-38412544D01*
X7351833Y-38401754D01*
X7368016Y-38329890D01*
X7409488Y-38282747D01*
X7465636Y-38262618D01*
X7525844Y-38271796D01*
X7525844Y-38271796D01*
G37*
X7525844Y-38271796D02*
X7579497Y-38312575D01*
X7601647Y-38347784D01*
X7618508Y-38399872D01*
X7608351Y-38448588D01*
X7601538Y-38463708D01*
X7573206Y-38504250D01*
X7529213Y-38523245D01*
X7489163Y-38528171D01*
X7427192Y-38525945D01*
X7383273Y-38512094D01*
X7378196Y-38508063D01*
X7360779Y-38470588D01*
X7352063Y-38412544D01*
X7351833Y-38401754D01*
X7368016Y-38329890D01*
X7409488Y-38282747D01*
X7465636Y-38262618D01*
X7525844Y-38271796D01*
G36*
X7540748Y-38817896D02*
X7582134Y-38853241D01*
X7604512Y-38899442D01*
X7612315Y-38971289D01*
X7586130Y-39036673D01*
X7555039Y-39066634D01*
X7501693Y-39081834D01*
X7437508Y-39075879D01*
X7386796Y-39051208D01*
X7385095Y-39049571D01*
X7361800Y-39005819D01*
X7351838Y-38946521D01*
X7351833Y-38945250D01*
X7367513Y-38869865D01*
X7411908Y-38822684D01*
X7475053Y-38807991D01*
X7540748Y-38817896D01*
X7540748Y-38817896D01*
G37*
X7540748Y-38817896D02*
X7582134Y-38853241D01*
X7604512Y-38899442D01*
X7612315Y-38971289D01*
X7586130Y-39036673D01*
X7555039Y-39066634D01*
X7501693Y-39081834D01*
X7437508Y-39075879D01*
X7386796Y-39051208D01*
X7385095Y-39049571D01*
X7361800Y-39005819D01*
X7351838Y-38946521D01*
X7351833Y-38945250D01*
X7367513Y-38869865D01*
X7411908Y-38822684D01*
X7475053Y-38807991D01*
X7540748Y-38817896D01*
G36*
X7541842Y-39366662D02*
X7582600Y-39387300D01*
X7583448Y-39388283D01*
X7608703Y-39447563D01*
X7606951Y-39517466D01*
X7580000Y-39578361D01*
X7564474Y-39594300D01*
X7501128Y-39628798D01*
X7439520Y-39623038D01*
X7398876Y-39600216D01*
X7366311Y-39555613D01*
X7351157Y-39491407D01*
X7355312Y-39426611D01*
X7377233Y-39383400D01*
X7419518Y-39364246D01*
X7480935Y-39358822D01*
X7541842Y-39366662D01*
X7541842Y-39366662D01*
G37*
X7541842Y-39366662D02*
X7582600Y-39387300D01*
X7583448Y-39388283D01*
X7608703Y-39447563D01*
X7606951Y-39517466D01*
X7580000Y-39578361D01*
X7564474Y-39594300D01*
X7501128Y-39628798D01*
X7439520Y-39623038D01*
X7398876Y-39600216D01*
X7366311Y-39555613D01*
X7351157Y-39491407D01*
X7355312Y-39426611D01*
X7377233Y-39383400D01*
X7419518Y-39364246D01*
X7480935Y-39358822D01*
X7541842Y-39366662D01*
G36*
X7525844Y-39901629D02*
X7579497Y-39942408D01*
X7601647Y-39977617D01*
X7618508Y-40029705D01*
X7608351Y-40078421D01*
X7601538Y-40093542D01*
X7573206Y-40134084D01*
X7529213Y-40153078D01*
X7489163Y-40158005D01*
X7427192Y-40155778D01*
X7383273Y-40141928D01*
X7378196Y-40137896D01*
X7360779Y-40100421D01*
X7352063Y-40042378D01*
X7351833Y-40031588D01*
X7368016Y-39959724D01*
X7409488Y-39912580D01*
X7465636Y-39892451D01*
X7525844Y-39901629D01*
X7525844Y-39901629D01*
G37*
X7525844Y-39901629D02*
X7579497Y-39942408D01*
X7601647Y-39977617D01*
X7618508Y-40029705D01*
X7608351Y-40078421D01*
X7601538Y-40093542D01*
X7573206Y-40134084D01*
X7529213Y-40153078D01*
X7489163Y-40158005D01*
X7427192Y-40155778D01*
X7383273Y-40141928D01*
X7378196Y-40137896D01*
X7360779Y-40100421D01*
X7352063Y-40042378D01*
X7351833Y-40031588D01*
X7368016Y-39959724D01*
X7409488Y-39912580D01*
X7465636Y-39892451D01*
X7525844Y-39901629D01*
G36*
X7540748Y-40447729D02*
X7582134Y-40483075D01*
X7604512Y-40529275D01*
X7612315Y-40601123D01*
X7586130Y-40666506D01*
X7555039Y-40696467D01*
X7501693Y-40711668D01*
X7437508Y-40705712D01*
X7386796Y-40681041D01*
X7385095Y-40679405D01*
X7361800Y-40635653D01*
X7351838Y-40576355D01*
X7351833Y-40575083D01*
X7367513Y-40499698D01*
X7411908Y-40452517D01*
X7475053Y-40437824D01*
X7540748Y-40447729D01*
X7540748Y-40447729D01*
G37*
X7540748Y-40447729D02*
X7582134Y-40483075D01*
X7604512Y-40529275D01*
X7612315Y-40601123D01*
X7586130Y-40666506D01*
X7555039Y-40696467D01*
X7501693Y-40711668D01*
X7437508Y-40705712D01*
X7386796Y-40681041D01*
X7385095Y-40679405D01*
X7361800Y-40635653D01*
X7351838Y-40576355D01*
X7351833Y-40575083D01*
X7367513Y-40499698D01*
X7411908Y-40452517D01*
X7475053Y-40437824D01*
X7540748Y-40447729D01*
G36*
X7541842Y-40996495D02*
X7582600Y-41017134D01*
X7583448Y-41018116D01*
X7608703Y-41077397D01*
X7606951Y-41147300D01*
X7580000Y-41208194D01*
X7564474Y-41224133D01*
X7501128Y-41258631D01*
X7439520Y-41252872D01*
X7398876Y-41230050D01*
X7366311Y-41185446D01*
X7351157Y-41121240D01*
X7355312Y-41056444D01*
X7377233Y-41013233D01*
X7419518Y-40994080D01*
X7480935Y-40988655D01*
X7541842Y-40996495D01*
X7541842Y-40996495D01*
G37*
X7541842Y-40996495D02*
X7582600Y-41017134D01*
X7583448Y-41018116D01*
X7608703Y-41077397D01*
X7606951Y-41147300D01*
X7580000Y-41208194D01*
X7564474Y-41224133D01*
X7501128Y-41258631D01*
X7439520Y-41252872D01*
X7398876Y-41230050D01*
X7366311Y-41185446D01*
X7351157Y-41121240D01*
X7355312Y-41056444D01*
X7377233Y-41013233D01*
X7419518Y-40994080D01*
X7480935Y-40988655D01*
X7541842Y-40996495D01*
G36*
X7525844Y-41531463D02*
X7579497Y-41572241D01*
X7601647Y-41607451D01*
X7618508Y-41659539D01*
X7608351Y-41708254D01*
X7601538Y-41723375D01*
X7573206Y-41763917D01*
X7529213Y-41782912D01*
X7489163Y-41787838D01*
X7427192Y-41785612D01*
X7383273Y-41771761D01*
X7378196Y-41767730D01*
X7360779Y-41730255D01*
X7352063Y-41672211D01*
X7351833Y-41661421D01*
X7368016Y-41589557D01*
X7409488Y-41542414D01*
X7465636Y-41522285D01*
X7525844Y-41531463D01*
X7525844Y-41531463D01*
G37*
X7525844Y-41531463D02*
X7579497Y-41572241D01*
X7601647Y-41607451D01*
X7618508Y-41659539D01*
X7608351Y-41708254D01*
X7601538Y-41723375D01*
X7573206Y-41763917D01*
X7529213Y-41782912D01*
X7489163Y-41787838D01*
X7427192Y-41785612D01*
X7383273Y-41771761D01*
X7378196Y-41767730D01*
X7360779Y-41730255D01*
X7352063Y-41672211D01*
X7351833Y-41661421D01*
X7368016Y-41589557D01*
X7409488Y-41542414D01*
X7465636Y-41522285D01*
X7525844Y-41531463D01*
G36*
X7540748Y-42077563D02*
X7582134Y-42112908D01*
X7604512Y-42159108D01*
X7612315Y-42230956D01*
X7586130Y-42296340D01*
X7555039Y-42326301D01*
X7501693Y-42341501D01*
X7437508Y-42335545D01*
X7386796Y-42310875D01*
X7385095Y-42309238D01*
X7361800Y-42265486D01*
X7351838Y-42206188D01*
X7351833Y-42204917D01*
X7367513Y-42129531D01*
X7411908Y-42082350D01*
X7475053Y-42067657D01*
X7540748Y-42077563D01*
X7540748Y-42077563D01*
G37*
X7540748Y-42077563D02*
X7582134Y-42112908D01*
X7604512Y-42159108D01*
X7612315Y-42230956D01*
X7586130Y-42296340D01*
X7555039Y-42326301D01*
X7501693Y-42341501D01*
X7437508Y-42335545D01*
X7386796Y-42310875D01*
X7385095Y-42309238D01*
X7361800Y-42265486D01*
X7351838Y-42206188D01*
X7351833Y-42204917D01*
X7367513Y-42129531D01*
X7411908Y-42082350D01*
X7475053Y-42067657D01*
X7540748Y-42077563D01*
G36*
X7541842Y-42626329D02*
X7582600Y-42646967D01*
X7583448Y-42647949D01*
X7608703Y-42707230D01*
X7606951Y-42777133D01*
X7580000Y-42838028D01*
X7564474Y-42853967D01*
X7501128Y-42888464D01*
X7439520Y-42882705D01*
X7398876Y-42859883D01*
X7366311Y-42815280D01*
X7351157Y-42751074D01*
X7355312Y-42686277D01*
X7377233Y-42643067D01*
X7419518Y-42623913D01*
X7480935Y-42618489D01*
X7541842Y-42626329D01*
X7541842Y-42626329D01*
G37*
X7541842Y-42626329D02*
X7582600Y-42646967D01*
X7583448Y-42647949D01*
X7608703Y-42707230D01*
X7606951Y-42777133D01*
X7580000Y-42838028D01*
X7564474Y-42853967D01*
X7501128Y-42888464D01*
X7439520Y-42882705D01*
X7398876Y-42859883D01*
X7366311Y-42815280D01*
X7351157Y-42751074D01*
X7355312Y-42686277D01*
X7377233Y-42643067D01*
X7419518Y-42623913D01*
X7480935Y-42618489D01*
X7541842Y-42626329D01*
G36*
X7525844Y-43161296D02*
X7579497Y-43202075D01*
X7601647Y-43237284D01*
X7618508Y-43289372D01*
X7608351Y-43338088D01*
X7601538Y-43353208D01*
X7573206Y-43393750D01*
X7529213Y-43412745D01*
X7489163Y-43417671D01*
X7427192Y-43415445D01*
X7383273Y-43401594D01*
X7378196Y-43397563D01*
X7360779Y-43360088D01*
X7352063Y-43302044D01*
X7351833Y-43291254D01*
X7368016Y-43219390D01*
X7409488Y-43172247D01*
X7465636Y-43152118D01*
X7525844Y-43161296D01*
X7525844Y-43161296D01*
G37*
X7525844Y-43161296D02*
X7579497Y-43202075D01*
X7601647Y-43237284D01*
X7618508Y-43289372D01*
X7608351Y-43338088D01*
X7601538Y-43353208D01*
X7573206Y-43393750D01*
X7529213Y-43412745D01*
X7489163Y-43417671D01*
X7427192Y-43415445D01*
X7383273Y-43401594D01*
X7378196Y-43397563D01*
X7360779Y-43360088D01*
X7352063Y-43302044D01*
X7351833Y-43291254D01*
X7368016Y-43219390D01*
X7409488Y-43172247D01*
X7465636Y-43152118D01*
X7525844Y-43161296D01*
G36*
X7540748Y-43707396D02*
X7582134Y-43742741D01*
X7604512Y-43788942D01*
X7612315Y-43860789D01*
X7586130Y-43926173D01*
X7555039Y-43956134D01*
X7501693Y-43971334D01*
X7437508Y-43965379D01*
X7386796Y-43940708D01*
X7385095Y-43939071D01*
X7361800Y-43895319D01*
X7351838Y-43836021D01*
X7351833Y-43834750D01*
X7367513Y-43759365D01*
X7411908Y-43712184D01*
X7475053Y-43697491D01*
X7540748Y-43707396D01*
X7540748Y-43707396D01*
G37*
X7540748Y-43707396D02*
X7582134Y-43742741D01*
X7604512Y-43788942D01*
X7612315Y-43860789D01*
X7586130Y-43926173D01*
X7555039Y-43956134D01*
X7501693Y-43971334D01*
X7437508Y-43965379D01*
X7386796Y-43940708D01*
X7385095Y-43939071D01*
X7361800Y-43895319D01*
X7351838Y-43836021D01*
X7351833Y-43834750D01*
X7367513Y-43759365D01*
X7411908Y-43712184D01*
X7475053Y-43697491D01*
X7540748Y-43707396D01*
G36*
X7541842Y-44256162D02*
X7582600Y-44276800D01*
X7583448Y-44277783D01*
X7608703Y-44337063D01*
X7606951Y-44406966D01*
X7580000Y-44467861D01*
X7564474Y-44483800D01*
X7501128Y-44518298D01*
X7439520Y-44512538D01*
X7398876Y-44489716D01*
X7366311Y-44445113D01*
X7351157Y-44380907D01*
X7355312Y-44316111D01*
X7377233Y-44272900D01*
X7419518Y-44253746D01*
X7480935Y-44248322D01*
X7541842Y-44256162D01*
X7541842Y-44256162D01*
G37*
X7541842Y-44256162D02*
X7582600Y-44276800D01*
X7583448Y-44277783D01*
X7608703Y-44337063D01*
X7606951Y-44406966D01*
X7580000Y-44467861D01*
X7564474Y-44483800D01*
X7501128Y-44518298D01*
X7439520Y-44512538D01*
X7398876Y-44489716D01*
X7366311Y-44445113D01*
X7351157Y-44380907D01*
X7355312Y-44316111D01*
X7377233Y-44272900D01*
X7419518Y-44253746D01*
X7480935Y-44248322D01*
X7541842Y-44256162D01*
G36*
X7525844Y-44791129D02*
X7579497Y-44831908D01*
X7601647Y-44867117D01*
X7618508Y-44919205D01*
X7608351Y-44967921D01*
X7601538Y-44983042D01*
X7573206Y-45023584D01*
X7529213Y-45042578D01*
X7489163Y-45047505D01*
X7427192Y-45045278D01*
X7383273Y-45031428D01*
X7378196Y-45027396D01*
X7360779Y-44989921D01*
X7352063Y-44931878D01*
X7351833Y-44921088D01*
X7368016Y-44849224D01*
X7409488Y-44802080D01*
X7465636Y-44781951D01*
X7525844Y-44791129D01*
X7525844Y-44791129D01*
G37*
X7525844Y-44791129D02*
X7579497Y-44831908D01*
X7601647Y-44867117D01*
X7618508Y-44919205D01*
X7608351Y-44967921D01*
X7601538Y-44983042D01*
X7573206Y-45023584D01*
X7529213Y-45042578D01*
X7489163Y-45047505D01*
X7427192Y-45045278D01*
X7383273Y-45031428D01*
X7378196Y-45027396D01*
X7360779Y-44989921D01*
X7352063Y-44931878D01*
X7351833Y-44921088D01*
X7368016Y-44849224D01*
X7409488Y-44802080D01*
X7465636Y-44781951D01*
X7525844Y-44791129D01*
G36*
X7540748Y-45337229D02*
X7582134Y-45372575D01*
X7604512Y-45418775D01*
X7612315Y-45490623D01*
X7586130Y-45556006D01*
X7555039Y-45585967D01*
X7501693Y-45601168D01*
X7437508Y-45595212D01*
X7386796Y-45570541D01*
X7385095Y-45568905D01*
X7361800Y-45525153D01*
X7351838Y-45465855D01*
X7351833Y-45464583D01*
X7367513Y-45389198D01*
X7411908Y-45342017D01*
X7475053Y-45327324D01*
X7540748Y-45337229D01*
X7540748Y-45337229D01*
G37*
X7540748Y-45337229D02*
X7582134Y-45372575D01*
X7604512Y-45418775D01*
X7612315Y-45490623D01*
X7586130Y-45556006D01*
X7555039Y-45585967D01*
X7501693Y-45601168D01*
X7437508Y-45595212D01*
X7386796Y-45570541D01*
X7385095Y-45568905D01*
X7361800Y-45525153D01*
X7351838Y-45465855D01*
X7351833Y-45464583D01*
X7367513Y-45389198D01*
X7411908Y-45342017D01*
X7475053Y-45327324D01*
X7540748Y-45337229D01*
G36*
X7541842Y-45885995D02*
X7582600Y-45906634D01*
X7583448Y-45907616D01*
X7608703Y-45966897D01*
X7606951Y-46036800D01*
X7580000Y-46097694D01*
X7564474Y-46113633D01*
X7501128Y-46148131D01*
X7439520Y-46142372D01*
X7398876Y-46119550D01*
X7366311Y-46074946D01*
X7351157Y-46010740D01*
X7355312Y-45945944D01*
X7377233Y-45902733D01*
X7419518Y-45883580D01*
X7480935Y-45878155D01*
X7541842Y-45885995D01*
X7541842Y-45885995D01*
G37*
X7541842Y-45885995D02*
X7582600Y-45906634D01*
X7583448Y-45907616D01*
X7608703Y-45966897D01*
X7606951Y-46036800D01*
X7580000Y-46097694D01*
X7564474Y-46113633D01*
X7501128Y-46148131D01*
X7439520Y-46142372D01*
X7398876Y-46119550D01*
X7366311Y-46074946D01*
X7351157Y-46010740D01*
X7355312Y-45945944D01*
X7377233Y-45902733D01*
X7419518Y-45883580D01*
X7480935Y-45878155D01*
X7541842Y-45885995D01*
G36*
X7525844Y-46420963D02*
X7579497Y-46461741D01*
X7601647Y-46496951D01*
X7618508Y-46549039D01*
X7608351Y-46597754D01*
X7601538Y-46612875D01*
X7573206Y-46653417D01*
X7529213Y-46672412D01*
X7489163Y-46677338D01*
X7427192Y-46675112D01*
X7383273Y-46661261D01*
X7378196Y-46657230D01*
X7360779Y-46619755D01*
X7352063Y-46561711D01*
X7351833Y-46550921D01*
X7368016Y-46479057D01*
X7409488Y-46431914D01*
X7465636Y-46411785D01*
X7525844Y-46420963D01*
X7525844Y-46420963D01*
G37*
X7525844Y-46420963D02*
X7579497Y-46461741D01*
X7601647Y-46496951D01*
X7618508Y-46549039D01*
X7608351Y-46597754D01*
X7601538Y-46612875D01*
X7573206Y-46653417D01*
X7529213Y-46672412D01*
X7489163Y-46677338D01*
X7427192Y-46675112D01*
X7383273Y-46661261D01*
X7378196Y-46657230D01*
X7360779Y-46619755D01*
X7352063Y-46561711D01*
X7351833Y-46550921D01*
X7368016Y-46479057D01*
X7409488Y-46431914D01*
X7465636Y-46411785D01*
X7525844Y-46420963D01*
G36*
X7540748Y-46967063D02*
X7582134Y-47002408D01*
X7604512Y-47048608D01*
X7612315Y-47120456D01*
X7586130Y-47185840D01*
X7555039Y-47215801D01*
X7501693Y-47231001D01*
X7437508Y-47225045D01*
X7386796Y-47200375D01*
X7385095Y-47198738D01*
X7361800Y-47154986D01*
X7351838Y-47095688D01*
X7351833Y-47094417D01*
X7367513Y-47019031D01*
X7411908Y-46971850D01*
X7475053Y-46957157D01*
X7540748Y-46967063D01*
X7540748Y-46967063D01*
G37*
X7540748Y-46967063D02*
X7582134Y-47002408D01*
X7604512Y-47048608D01*
X7612315Y-47120456D01*
X7586130Y-47185840D01*
X7555039Y-47215801D01*
X7501693Y-47231001D01*
X7437508Y-47225045D01*
X7386796Y-47200375D01*
X7385095Y-47198738D01*
X7361800Y-47154986D01*
X7351838Y-47095688D01*
X7351833Y-47094417D01*
X7367513Y-47019031D01*
X7411908Y-46971850D01*
X7475053Y-46957157D01*
X7540748Y-46967063D01*
G36*
X7541842Y-47515829D02*
X7582600Y-47536467D01*
X7583448Y-47537449D01*
X7608703Y-47596730D01*
X7606951Y-47666633D01*
X7580000Y-47727528D01*
X7564474Y-47743467D01*
X7501128Y-47777964D01*
X7439520Y-47772205D01*
X7398876Y-47749383D01*
X7366311Y-47704780D01*
X7351157Y-47640574D01*
X7355312Y-47575777D01*
X7377233Y-47532567D01*
X7419518Y-47513413D01*
X7480935Y-47507989D01*
X7541842Y-47515829D01*
X7541842Y-47515829D01*
G37*
X7541842Y-47515829D02*
X7582600Y-47536467D01*
X7583448Y-47537449D01*
X7608703Y-47596730D01*
X7606951Y-47666633D01*
X7580000Y-47727528D01*
X7564474Y-47743467D01*
X7501128Y-47777964D01*
X7439520Y-47772205D01*
X7398876Y-47749383D01*
X7366311Y-47704780D01*
X7351157Y-47640574D01*
X7355312Y-47575777D01*
X7377233Y-47532567D01*
X7419518Y-47513413D01*
X7480935Y-47507989D01*
X7541842Y-47515829D01*
G36*
X7525844Y-48050796D02*
X7579497Y-48091575D01*
X7601647Y-48126784D01*
X7618508Y-48178872D01*
X7608351Y-48227588D01*
X7601538Y-48242708D01*
X7573206Y-48283250D01*
X7529213Y-48302245D01*
X7489163Y-48307171D01*
X7427192Y-48304945D01*
X7383273Y-48291094D01*
X7378196Y-48287063D01*
X7360779Y-48249588D01*
X7352063Y-48191544D01*
X7351833Y-48180754D01*
X7368016Y-48108890D01*
X7409488Y-48061747D01*
X7465636Y-48041618D01*
X7525844Y-48050796D01*
X7525844Y-48050796D01*
G37*
X7525844Y-48050796D02*
X7579497Y-48091575D01*
X7601647Y-48126784D01*
X7618508Y-48178872D01*
X7608351Y-48227588D01*
X7601538Y-48242708D01*
X7573206Y-48283250D01*
X7529213Y-48302245D01*
X7489163Y-48307171D01*
X7427192Y-48304945D01*
X7383273Y-48291094D01*
X7378196Y-48287063D01*
X7360779Y-48249588D01*
X7352063Y-48191544D01*
X7351833Y-48180754D01*
X7368016Y-48108890D01*
X7409488Y-48061747D01*
X7465636Y-48041618D01*
X7525844Y-48050796D01*
G36*
X7540748Y-48596896D02*
X7582134Y-48632241D01*
X7604512Y-48678442D01*
X7612315Y-48750289D01*
X7586130Y-48815673D01*
X7555039Y-48845634D01*
X7501693Y-48860834D01*
X7437508Y-48854879D01*
X7386796Y-48830208D01*
X7385095Y-48828571D01*
X7361800Y-48784819D01*
X7351838Y-48725521D01*
X7351833Y-48724250D01*
X7367513Y-48648865D01*
X7411908Y-48601684D01*
X7475053Y-48586991D01*
X7540748Y-48596896D01*
X7540748Y-48596896D01*
G37*
X7540748Y-48596896D02*
X7582134Y-48632241D01*
X7604512Y-48678442D01*
X7612315Y-48750289D01*
X7586130Y-48815673D01*
X7555039Y-48845634D01*
X7501693Y-48860834D01*
X7437508Y-48854879D01*
X7386796Y-48830208D01*
X7385095Y-48828571D01*
X7361800Y-48784819D01*
X7351838Y-48725521D01*
X7351833Y-48724250D01*
X7367513Y-48648865D01*
X7411908Y-48601684D01*
X7475053Y-48586991D01*
X7540748Y-48596896D01*
G36*
X7541842Y-49145662D02*
X7582600Y-49166300D01*
X7583448Y-49167283D01*
X7608703Y-49226563D01*
X7606951Y-49296466D01*
X7580000Y-49357361D01*
X7564474Y-49373300D01*
X7501128Y-49407798D01*
X7439520Y-49402038D01*
X7398876Y-49379216D01*
X7366311Y-49334613D01*
X7351157Y-49270407D01*
X7355312Y-49205611D01*
X7377233Y-49162400D01*
X7419518Y-49143246D01*
X7480935Y-49137822D01*
X7541842Y-49145662D01*
X7541842Y-49145662D01*
G37*
X7541842Y-49145662D02*
X7582600Y-49166300D01*
X7583448Y-49167283D01*
X7608703Y-49226563D01*
X7606951Y-49296466D01*
X7580000Y-49357361D01*
X7564474Y-49373300D01*
X7501128Y-49407798D01*
X7439520Y-49402038D01*
X7398876Y-49379216D01*
X7366311Y-49334613D01*
X7351157Y-49270407D01*
X7355312Y-49205611D01*
X7377233Y-49162400D01*
X7419518Y-49143246D01*
X7480935Y-49137822D01*
X7541842Y-49145662D01*
G36*
X7525844Y-49680629D02*
X7579497Y-49721408D01*
X7601647Y-49756617D01*
X7618508Y-49808705D01*
X7608351Y-49857421D01*
X7601538Y-49872542D01*
X7573206Y-49913084D01*
X7529213Y-49932078D01*
X7489163Y-49937005D01*
X7427192Y-49934778D01*
X7383273Y-49920928D01*
X7378196Y-49916896D01*
X7360779Y-49879421D01*
X7352063Y-49821378D01*
X7351833Y-49810588D01*
X7368016Y-49738724D01*
X7409488Y-49691580D01*
X7465636Y-49671451D01*
X7525844Y-49680629D01*
X7525844Y-49680629D01*
G37*
X7525844Y-49680629D02*
X7579497Y-49721408D01*
X7601647Y-49756617D01*
X7618508Y-49808705D01*
X7608351Y-49857421D01*
X7601538Y-49872542D01*
X7573206Y-49913084D01*
X7529213Y-49932078D01*
X7489163Y-49937005D01*
X7427192Y-49934778D01*
X7383273Y-49920928D01*
X7378196Y-49916896D01*
X7360779Y-49879421D01*
X7352063Y-49821378D01*
X7351833Y-49810588D01*
X7368016Y-49738724D01*
X7409488Y-49691580D01*
X7465636Y-49671451D01*
X7525844Y-49680629D01*
G36*
X7540748Y-50226729D02*
X7582134Y-50262075D01*
X7604512Y-50308275D01*
X7612315Y-50380123D01*
X7586130Y-50445506D01*
X7555039Y-50475467D01*
X7501693Y-50490668D01*
X7437508Y-50484712D01*
X7386796Y-50460041D01*
X7385095Y-50458405D01*
X7361800Y-50414653D01*
X7351838Y-50355355D01*
X7351833Y-50354083D01*
X7367513Y-50278698D01*
X7411908Y-50231517D01*
X7475053Y-50216824D01*
X7540748Y-50226729D01*
X7540748Y-50226729D01*
G37*
X7540748Y-50226729D02*
X7582134Y-50262075D01*
X7604512Y-50308275D01*
X7612315Y-50380123D01*
X7586130Y-50445506D01*
X7555039Y-50475467D01*
X7501693Y-50490668D01*
X7437508Y-50484712D01*
X7386796Y-50460041D01*
X7385095Y-50458405D01*
X7361800Y-50414653D01*
X7351838Y-50355355D01*
X7351833Y-50354083D01*
X7367513Y-50278698D01*
X7411908Y-50231517D01*
X7475053Y-50216824D01*
X7540748Y-50226729D01*
G36*
X7541842Y-50775495D02*
X7582600Y-50796134D01*
X7583448Y-50797116D01*
X7608703Y-50856397D01*
X7606951Y-50926300D01*
X7580000Y-50987194D01*
X7564474Y-51003133D01*
X7501128Y-51037631D01*
X7439520Y-51031872D01*
X7398876Y-51009050D01*
X7366311Y-50964446D01*
X7351157Y-50900240D01*
X7355312Y-50835444D01*
X7377233Y-50792233D01*
X7419518Y-50773080D01*
X7480935Y-50767655D01*
X7541842Y-50775495D01*
X7541842Y-50775495D01*
G37*
X7541842Y-50775495D02*
X7582600Y-50796134D01*
X7583448Y-50797116D01*
X7608703Y-50856397D01*
X7606951Y-50926300D01*
X7580000Y-50987194D01*
X7564474Y-51003133D01*
X7501128Y-51037631D01*
X7439520Y-51031872D01*
X7398876Y-51009050D01*
X7366311Y-50964446D01*
X7351157Y-50900240D01*
X7355312Y-50835444D01*
X7377233Y-50792233D01*
X7419518Y-50773080D01*
X7480935Y-50767655D01*
X7541842Y-50775495D01*
G36*
X7525844Y-51310463D02*
X7579497Y-51351241D01*
X7601647Y-51386451D01*
X7618508Y-51438539D01*
X7608351Y-51487254D01*
X7601538Y-51502375D01*
X7573206Y-51542917D01*
X7529213Y-51561912D01*
X7489163Y-51566838D01*
X7427192Y-51564612D01*
X7383273Y-51550761D01*
X7378196Y-51546730D01*
X7360779Y-51509255D01*
X7352063Y-51451211D01*
X7351833Y-51440421D01*
X7368016Y-51368557D01*
X7409488Y-51321414D01*
X7465636Y-51301285D01*
X7525844Y-51310463D01*
X7525844Y-51310463D01*
G37*
X7525844Y-51310463D02*
X7579497Y-51351241D01*
X7601647Y-51386451D01*
X7618508Y-51438539D01*
X7608351Y-51487254D01*
X7601538Y-51502375D01*
X7573206Y-51542917D01*
X7529213Y-51561912D01*
X7489163Y-51566838D01*
X7427192Y-51564612D01*
X7383273Y-51550761D01*
X7378196Y-51546730D01*
X7360779Y-51509255D01*
X7352063Y-51451211D01*
X7351833Y-51440421D01*
X7368016Y-51368557D01*
X7409488Y-51321414D01*
X7465636Y-51301285D01*
X7525844Y-51310463D01*
G36*
X7540748Y-51856563D02*
X7582134Y-51891908D01*
X7604512Y-51938108D01*
X7612315Y-52009956D01*
X7586130Y-52075340D01*
X7555039Y-52105301D01*
X7501693Y-52120501D01*
X7437508Y-52114545D01*
X7386796Y-52089875D01*
X7385095Y-52088238D01*
X7361800Y-52044486D01*
X7351838Y-51985188D01*
X7351833Y-51983917D01*
X7367513Y-51908531D01*
X7411908Y-51861350D01*
X7475053Y-51846657D01*
X7540748Y-51856563D01*
X7540748Y-51856563D01*
G37*
X7540748Y-51856563D02*
X7582134Y-51891908D01*
X7604512Y-51938108D01*
X7612315Y-52009956D01*
X7586130Y-52075340D01*
X7555039Y-52105301D01*
X7501693Y-52120501D01*
X7437508Y-52114545D01*
X7386796Y-52089875D01*
X7385095Y-52088238D01*
X7361800Y-52044486D01*
X7351838Y-51985188D01*
X7351833Y-51983917D01*
X7367513Y-51908531D01*
X7411908Y-51861350D01*
X7475053Y-51846657D01*
X7540748Y-51856563D01*
G36*
X7541842Y-52405329D02*
X7582600Y-52425967D01*
X7583448Y-52426949D01*
X7608703Y-52486230D01*
X7606951Y-52556133D01*
X7580000Y-52617028D01*
X7564474Y-52632967D01*
X7501128Y-52667464D01*
X7439520Y-52661705D01*
X7398876Y-52638883D01*
X7366311Y-52594280D01*
X7351157Y-52530074D01*
X7355312Y-52465277D01*
X7377233Y-52422067D01*
X7419518Y-52402913D01*
X7480935Y-52397489D01*
X7541842Y-52405329D01*
X7541842Y-52405329D01*
G37*
X7541842Y-52405329D02*
X7582600Y-52425967D01*
X7583448Y-52426949D01*
X7608703Y-52486230D01*
X7606951Y-52556133D01*
X7580000Y-52617028D01*
X7564474Y-52632967D01*
X7501128Y-52667464D01*
X7439520Y-52661705D01*
X7398876Y-52638883D01*
X7366311Y-52594280D01*
X7351157Y-52530074D01*
X7355312Y-52465277D01*
X7377233Y-52422067D01*
X7419518Y-52402913D01*
X7480935Y-52397489D01*
X7541842Y-52405329D01*
G36*
X7525844Y-52940296D02*
X7579497Y-52981075D01*
X7601647Y-53016284D01*
X7618508Y-53068372D01*
X7608351Y-53117088D01*
X7601538Y-53132208D01*
X7573206Y-53172750D01*
X7529213Y-53191745D01*
X7489163Y-53196671D01*
X7427192Y-53194445D01*
X7383273Y-53180594D01*
X7378196Y-53176563D01*
X7360779Y-53139088D01*
X7352063Y-53081044D01*
X7351833Y-53070254D01*
X7368016Y-52998390D01*
X7409488Y-52951247D01*
X7465636Y-52931118D01*
X7525844Y-52940296D01*
X7525844Y-52940296D01*
G37*
X7525844Y-52940296D02*
X7579497Y-52981075D01*
X7601647Y-53016284D01*
X7618508Y-53068372D01*
X7608351Y-53117088D01*
X7601538Y-53132208D01*
X7573206Y-53172750D01*
X7529213Y-53191745D01*
X7489163Y-53196671D01*
X7427192Y-53194445D01*
X7383273Y-53180594D01*
X7378196Y-53176563D01*
X7360779Y-53139088D01*
X7352063Y-53081044D01*
X7351833Y-53070254D01*
X7368016Y-52998390D01*
X7409488Y-52951247D01*
X7465636Y-52931118D01*
X7525844Y-52940296D01*
G36*
X7540748Y-53486396D02*
X7582134Y-53521741D01*
X7604512Y-53567942D01*
X7612315Y-53639789D01*
X7586130Y-53705173D01*
X7555039Y-53735134D01*
X7501693Y-53750334D01*
X7437508Y-53744379D01*
X7386796Y-53719708D01*
X7385095Y-53718071D01*
X7361800Y-53674319D01*
X7351838Y-53615021D01*
X7351833Y-53613750D01*
X7367513Y-53538365D01*
X7411908Y-53491184D01*
X7475053Y-53476491D01*
X7540748Y-53486396D01*
X7540748Y-53486396D01*
G37*
X7540748Y-53486396D02*
X7582134Y-53521741D01*
X7604512Y-53567942D01*
X7612315Y-53639789D01*
X7586130Y-53705173D01*
X7555039Y-53735134D01*
X7501693Y-53750334D01*
X7437508Y-53744379D01*
X7386796Y-53719708D01*
X7385095Y-53718071D01*
X7361800Y-53674319D01*
X7351838Y-53615021D01*
X7351833Y-53613750D01*
X7367513Y-53538365D01*
X7411908Y-53491184D01*
X7475053Y-53476491D01*
X7540748Y-53486396D01*
G36*
X7541842Y-54035162D02*
X7582600Y-54055800D01*
X7583448Y-54056783D01*
X7608703Y-54116063D01*
X7606951Y-54185966D01*
X7580000Y-54246861D01*
X7564474Y-54262800D01*
X7501128Y-54297298D01*
X7439520Y-54291538D01*
X7398876Y-54268716D01*
X7366311Y-54224113D01*
X7351157Y-54159907D01*
X7355312Y-54095111D01*
X7377233Y-54051900D01*
X7419518Y-54032746D01*
X7480935Y-54027322D01*
X7541842Y-54035162D01*
X7541842Y-54035162D01*
G37*
X7541842Y-54035162D02*
X7582600Y-54055800D01*
X7583448Y-54056783D01*
X7608703Y-54116063D01*
X7606951Y-54185966D01*
X7580000Y-54246861D01*
X7564474Y-54262800D01*
X7501128Y-54297298D01*
X7439520Y-54291538D01*
X7398876Y-54268716D01*
X7366311Y-54224113D01*
X7351157Y-54159907D01*
X7355312Y-54095111D01*
X7377233Y-54051900D01*
X7419518Y-54032746D01*
X7480935Y-54027322D01*
X7541842Y-54035162D01*
G36*
X7525844Y-54570129D02*
X7579497Y-54610908D01*
X7601647Y-54646117D01*
X7618508Y-54698205D01*
X7608351Y-54746921D01*
X7601538Y-54762042D01*
X7573206Y-54802584D01*
X7529213Y-54821578D01*
X7489163Y-54826505D01*
X7427192Y-54824278D01*
X7383273Y-54810428D01*
X7378196Y-54806396D01*
X7360779Y-54768921D01*
X7352063Y-54710878D01*
X7351833Y-54700088D01*
X7368016Y-54628224D01*
X7409488Y-54581080D01*
X7465636Y-54560951D01*
X7525844Y-54570129D01*
X7525844Y-54570129D01*
G37*
X7525844Y-54570129D02*
X7579497Y-54610908D01*
X7601647Y-54646117D01*
X7618508Y-54698205D01*
X7608351Y-54746921D01*
X7601538Y-54762042D01*
X7573206Y-54802584D01*
X7529213Y-54821578D01*
X7489163Y-54826505D01*
X7427192Y-54824278D01*
X7383273Y-54810428D01*
X7378196Y-54806396D01*
X7360779Y-54768921D01*
X7352063Y-54710878D01*
X7351833Y-54700088D01*
X7368016Y-54628224D01*
X7409488Y-54581080D01*
X7465636Y-54560951D01*
X7525844Y-54570129D01*
G36*
X7540748Y-55116229D02*
X7582134Y-55151575D01*
X7604512Y-55197775D01*
X7612315Y-55269623D01*
X7586130Y-55335006D01*
X7555039Y-55364967D01*
X7501693Y-55380168D01*
X7437508Y-55374212D01*
X7386796Y-55349541D01*
X7385095Y-55347905D01*
X7361800Y-55304153D01*
X7351838Y-55244855D01*
X7351833Y-55243583D01*
X7367513Y-55168198D01*
X7411908Y-55121017D01*
X7475053Y-55106324D01*
X7540748Y-55116229D01*
X7540748Y-55116229D01*
G37*
X7540748Y-55116229D02*
X7582134Y-55151575D01*
X7604512Y-55197775D01*
X7612315Y-55269623D01*
X7586130Y-55335006D01*
X7555039Y-55364967D01*
X7501693Y-55380168D01*
X7437508Y-55374212D01*
X7386796Y-55349541D01*
X7385095Y-55347905D01*
X7361800Y-55304153D01*
X7351838Y-55244855D01*
X7351833Y-55243583D01*
X7367513Y-55168198D01*
X7411908Y-55121017D01*
X7475053Y-55106324D01*
X7540748Y-55116229D01*
G36*
X7541842Y-55664995D02*
X7582600Y-55685634D01*
X7583448Y-55686616D01*
X7608703Y-55745897D01*
X7606951Y-55815800D01*
X7580000Y-55876694D01*
X7564474Y-55892633D01*
X7501128Y-55927131D01*
X7439520Y-55921372D01*
X7398876Y-55898550D01*
X7366311Y-55853946D01*
X7351157Y-55789740D01*
X7355312Y-55724944D01*
X7377233Y-55681733D01*
X7419518Y-55662580D01*
X7480935Y-55657155D01*
X7541842Y-55664995D01*
X7541842Y-55664995D01*
G37*
X7541842Y-55664995D02*
X7582600Y-55685634D01*
X7583448Y-55686616D01*
X7608703Y-55745897D01*
X7606951Y-55815800D01*
X7580000Y-55876694D01*
X7564474Y-55892633D01*
X7501128Y-55927131D01*
X7439520Y-55921372D01*
X7398876Y-55898550D01*
X7366311Y-55853946D01*
X7351157Y-55789740D01*
X7355312Y-55724944D01*
X7377233Y-55681733D01*
X7419518Y-55662580D01*
X7480935Y-55657155D01*
X7541842Y-55664995D01*
G36*
X7525844Y-56199963D02*
X7579497Y-56240741D01*
X7601647Y-56275951D01*
X7618508Y-56328039D01*
X7608351Y-56376754D01*
X7601538Y-56391875D01*
X7573206Y-56432417D01*
X7529213Y-56451412D01*
X7489163Y-56456338D01*
X7427192Y-56454112D01*
X7383273Y-56440261D01*
X7378196Y-56436230D01*
X7360779Y-56398755D01*
X7352063Y-56340711D01*
X7351833Y-56329921D01*
X7368016Y-56258057D01*
X7409488Y-56210914D01*
X7465636Y-56190785D01*
X7525844Y-56199963D01*
X7525844Y-56199963D01*
G37*
X7525844Y-56199963D02*
X7579497Y-56240741D01*
X7601647Y-56275951D01*
X7618508Y-56328039D01*
X7608351Y-56376754D01*
X7601538Y-56391875D01*
X7573206Y-56432417D01*
X7529213Y-56451412D01*
X7489163Y-56456338D01*
X7427192Y-56454112D01*
X7383273Y-56440261D01*
X7378196Y-56436230D01*
X7360779Y-56398755D01*
X7352063Y-56340711D01*
X7351833Y-56329921D01*
X7368016Y-56258057D01*
X7409488Y-56210914D01*
X7465636Y-56190785D01*
X7525844Y-56199963D01*
G36*
X7540748Y-56746063D02*
X7582134Y-56781408D01*
X7604512Y-56827608D01*
X7612315Y-56899456D01*
X7586130Y-56964840D01*
X7555039Y-56994801D01*
X7501693Y-57010001D01*
X7437508Y-57004045D01*
X7386796Y-56979375D01*
X7385095Y-56977738D01*
X7361800Y-56933986D01*
X7351838Y-56874688D01*
X7351833Y-56873417D01*
X7367513Y-56798031D01*
X7411908Y-56750850D01*
X7475053Y-56736157D01*
X7540748Y-56746063D01*
X7540748Y-56746063D01*
G37*
X7540748Y-56746063D02*
X7582134Y-56781408D01*
X7604512Y-56827608D01*
X7612315Y-56899456D01*
X7586130Y-56964840D01*
X7555039Y-56994801D01*
X7501693Y-57010001D01*
X7437508Y-57004045D01*
X7386796Y-56979375D01*
X7385095Y-56977738D01*
X7361800Y-56933986D01*
X7351838Y-56874688D01*
X7351833Y-56873417D01*
X7367513Y-56798031D01*
X7411908Y-56750850D01*
X7475053Y-56736157D01*
X7540748Y-56746063D01*
G36*
X7541842Y-57294829D02*
X7582600Y-57315467D01*
X7583448Y-57316449D01*
X7608703Y-57375730D01*
X7606951Y-57445633D01*
X7580000Y-57506528D01*
X7564474Y-57522467D01*
X7501128Y-57556964D01*
X7439520Y-57551205D01*
X7398876Y-57528383D01*
X7366311Y-57483780D01*
X7351157Y-57419574D01*
X7355312Y-57354777D01*
X7377233Y-57311567D01*
X7419518Y-57292413D01*
X7480935Y-57286989D01*
X7541842Y-57294829D01*
X7541842Y-57294829D01*
G37*
X7541842Y-57294829D02*
X7582600Y-57315467D01*
X7583448Y-57316449D01*
X7608703Y-57375730D01*
X7606951Y-57445633D01*
X7580000Y-57506528D01*
X7564474Y-57522467D01*
X7501128Y-57556964D01*
X7439520Y-57551205D01*
X7398876Y-57528383D01*
X7366311Y-57483780D01*
X7351157Y-57419574D01*
X7355312Y-57354777D01*
X7377233Y-57311567D01*
X7419518Y-57292413D01*
X7480935Y-57286989D01*
X7541842Y-57294829D01*
G36*
X7525844Y-57829796D02*
X7579497Y-57870575D01*
X7601647Y-57905784D01*
X7618508Y-57957872D01*
X7608351Y-58006588D01*
X7601538Y-58021708D01*
X7573206Y-58062250D01*
X7529213Y-58081245D01*
X7489163Y-58086171D01*
X7427192Y-58083945D01*
X7383273Y-58070094D01*
X7378196Y-58066063D01*
X7360779Y-58028588D01*
X7352063Y-57970544D01*
X7351833Y-57959754D01*
X7368016Y-57887890D01*
X7409488Y-57840747D01*
X7465636Y-57820618D01*
X7525844Y-57829796D01*
X7525844Y-57829796D01*
G37*
X7525844Y-57829796D02*
X7579497Y-57870575D01*
X7601647Y-57905784D01*
X7618508Y-57957872D01*
X7608351Y-58006588D01*
X7601538Y-58021708D01*
X7573206Y-58062250D01*
X7529213Y-58081245D01*
X7489163Y-58086171D01*
X7427192Y-58083945D01*
X7383273Y-58070094D01*
X7378196Y-58066063D01*
X7360779Y-58028588D01*
X7352063Y-57970544D01*
X7351833Y-57959754D01*
X7368016Y-57887890D01*
X7409488Y-57840747D01*
X7465636Y-57820618D01*
X7525844Y-57829796D01*
G36*
X7540748Y-58375896D02*
X7582134Y-58411241D01*
X7604512Y-58457442D01*
X7612315Y-58529289D01*
X7586130Y-58594673D01*
X7555039Y-58624634D01*
X7501693Y-58639834D01*
X7437508Y-58633879D01*
X7386796Y-58609208D01*
X7385095Y-58607571D01*
X7361800Y-58563819D01*
X7351838Y-58504521D01*
X7351833Y-58503250D01*
X7367513Y-58427865D01*
X7411908Y-58380684D01*
X7475053Y-58365991D01*
X7540748Y-58375896D01*
X7540748Y-58375896D01*
G37*
X7540748Y-58375896D02*
X7582134Y-58411241D01*
X7604512Y-58457442D01*
X7612315Y-58529289D01*
X7586130Y-58594673D01*
X7555039Y-58624634D01*
X7501693Y-58639834D01*
X7437508Y-58633879D01*
X7386796Y-58609208D01*
X7385095Y-58607571D01*
X7361800Y-58563819D01*
X7351838Y-58504521D01*
X7351833Y-58503250D01*
X7367513Y-58427865D01*
X7411908Y-58380684D01*
X7475053Y-58365991D01*
X7540748Y-58375896D01*
G36*
X7541842Y-58924662D02*
X7582600Y-58945300D01*
X7583448Y-58946283D01*
X7608703Y-59005563D01*
X7606951Y-59075466D01*
X7580000Y-59136361D01*
X7564474Y-59152300D01*
X7501128Y-59186798D01*
X7439520Y-59181038D01*
X7398876Y-59158216D01*
X7366311Y-59113613D01*
X7351157Y-59049407D01*
X7355312Y-58984611D01*
X7377233Y-58941400D01*
X7419518Y-58922246D01*
X7480935Y-58916822D01*
X7541842Y-58924662D01*
X7541842Y-58924662D01*
G37*
X7541842Y-58924662D02*
X7582600Y-58945300D01*
X7583448Y-58946283D01*
X7608703Y-59005563D01*
X7606951Y-59075466D01*
X7580000Y-59136361D01*
X7564474Y-59152300D01*
X7501128Y-59186798D01*
X7439520Y-59181038D01*
X7398876Y-59158216D01*
X7366311Y-59113613D01*
X7351157Y-59049407D01*
X7355312Y-58984611D01*
X7377233Y-58941400D01*
X7419518Y-58922246D01*
X7480935Y-58916822D01*
X7541842Y-58924662D01*
G36*
X7517209Y-59663384D02*
X7576442Y-59692952D01*
X7616659Y-59744665D01*
X7627000Y-59794417D01*
X7609245Y-59857508D01*
X7564097Y-59903865D01*
X7503733Y-59928475D01*
X7440330Y-59926323D01*
X7386863Y-59893291D01*
X7357995Y-59835198D01*
X7355072Y-59766465D01*
X7377744Y-59706327D01*
X7390541Y-59691864D01*
X7451173Y-59661256D01*
X7517209Y-59663384D01*
X7517209Y-59663384D01*
G37*
X7517209Y-59663384D02*
X7576442Y-59692952D01*
X7616659Y-59744665D01*
X7627000Y-59794417D01*
X7609245Y-59857508D01*
X7564097Y-59903865D01*
X7503733Y-59928475D01*
X7440330Y-59926323D01*
X7386863Y-59893291D01*
X7357995Y-59835198D01*
X7355072Y-59766465D01*
X7377744Y-59706327D01*
X7390541Y-59691864D01*
X7451173Y-59661256D01*
X7517209Y-59663384D01*
G36*
X8059100Y-59684641D02*
X8109123Y-59710950D01*
X8144561Y-59758629D01*
X8156595Y-59823875D01*
X8144006Y-59888198D01*
X8122904Y-59919905D01*
X8068644Y-59948619D01*
X8001823Y-59951943D01*
X7940930Y-59931096D01*
X7913950Y-59906123D01*
X7883796Y-59835199D01*
X7895048Y-59770128D01*
X7936771Y-59721869D01*
X8001048Y-59684586D01*
X8059100Y-59684641D01*
X8059100Y-59684641D01*
G37*
X8059100Y-59684641D02*
X8109123Y-59710950D01*
X8144561Y-59758629D01*
X8156595Y-59823875D01*
X8144006Y-59888198D01*
X8122904Y-59919905D01*
X8068644Y-59948619D01*
X8001823Y-59951943D01*
X7940930Y-59931096D01*
X7913950Y-59906123D01*
X7883796Y-59835199D01*
X7895048Y-59770128D01*
X7936771Y-59721869D01*
X8001048Y-59684586D01*
X8059100Y-59684641D01*
G36*
X7017322Y-59715778D02*
X7063044Y-59762276D01*
X7076666Y-59823633D01*
X7059921Y-59897703D01*
X7016255Y-59946739D01*
X6955521Y-59965854D01*
X6887571Y-59950164D01*
X6858792Y-59931660D01*
X6812449Y-59874322D01*
X6801902Y-59812172D01*
X6823377Y-59755443D01*
X6873098Y-59714370D01*
X6944529Y-59699167D01*
X7017322Y-59715778D01*
X7017322Y-59715778D01*
G37*
X7017322Y-59715778D02*
X7063044Y-59762276D01*
X7076666Y-59823633D01*
X7059921Y-59897703D01*
X7016255Y-59946739D01*
X6955521Y-59965854D01*
X6887571Y-59950164D01*
X6858792Y-59931660D01*
X6812449Y-59874322D01*
X6801902Y-59812172D01*
X6823377Y-59755443D01*
X6873098Y-59714370D01*
X6944529Y-59699167D01*
X7017322Y-59715778D01*
G36*
X8596402Y-59786738D02*
X8655141Y-59811786D01*
X8673549Y-59830876D01*
X8703316Y-59896631D01*
X8692889Y-59957087D01*
X8654545Y-60007045D01*
X8591878Y-60050641D01*
X8529965Y-60052550D01*
X8472483Y-60019965D01*
X8435517Y-59968216D01*
X8423672Y-59903898D01*
X8437661Y-59843675D01*
X8463601Y-59812587D01*
X8526833Y-59786506D01*
X8596402Y-59786738D01*
X8596402Y-59786738D01*
G37*
X8596402Y-59786738D02*
X8655141Y-59811786D01*
X8673549Y-59830876D01*
X8703316Y-59896631D01*
X8692889Y-59957087D01*
X8654545Y-60007045D01*
X8591878Y-60050641D01*
X8529965Y-60052550D01*
X8472483Y-60019965D01*
X8435517Y-59968216D01*
X8423672Y-59903898D01*
X8437661Y-59843675D01*
X8463601Y-59812587D01*
X8526833Y-59786506D01*
X8596402Y-59786738D01*
G36*
X6473007Y-59801588D02*
X6519365Y-59846736D01*
X6543974Y-59907099D01*
X6541823Y-59970503D01*
X6508791Y-60023969D01*
X6450697Y-60052838D01*
X6381965Y-60055760D01*
X6321827Y-60033088D01*
X6307363Y-60020291D01*
X6276755Y-59959660D01*
X6278883Y-59893623D01*
X6308452Y-59834391D01*
X6360165Y-59794173D01*
X6409916Y-59783833D01*
X6473007Y-59801588D01*
X6473007Y-59801588D01*
G37*
X6473007Y-59801588D02*
X6519365Y-59846736D01*
X6543974Y-59907099D01*
X6541823Y-59970503D01*
X6508791Y-60023969D01*
X6450697Y-60052838D01*
X6381965Y-60055760D01*
X6321827Y-60033088D01*
X6307363Y-60020291D01*
X6276755Y-59959660D01*
X6278883Y-59893623D01*
X6308452Y-59834391D01*
X6360165Y-59794173D01*
X6409916Y-59783833D01*
X6473007Y-59801588D01*
G36*
X9165378Y-59962958D02*
X9204431Y-60015035D01*
X9214500Y-60067503D01*
X9201871Y-60131850D01*
X9175791Y-60172136D01*
X9117697Y-60201004D01*
X9048965Y-60203927D01*
X8988827Y-60181255D01*
X8974363Y-60168458D01*
X8943693Y-60106136D01*
X8946405Y-60035679D01*
X8981666Y-59974333D01*
X9042503Y-59938008D01*
X9107572Y-59935749D01*
X9165378Y-59962958D01*
X9165378Y-59962958D01*
G37*
X9165378Y-59962958D02*
X9204431Y-60015035D01*
X9214500Y-60067503D01*
X9201871Y-60131850D01*
X9175791Y-60172136D01*
X9117697Y-60201004D01*
X9048965Y-60203927D01*
X8988827Y-60181255D01*
X8974363Y-60168458D01*
X8943693Y-60106136D01*
X8946405Y-60035679D01*
X8981666Y-59974333D01*
X9042503Y-59938008D01*
X9107572Y-59935749D01*
X9165378Y-59962958D01*
G36*
X5930992Y-59959290D02*
X5987686Y-59992596D01*
X6018780Y-60038912D01*
X6034207Y-60089479D01*
X6024975Y-60128688D01*
X6003491Y-60160890D01*
X5945461Y-60207137D01*
X5871247Y-60224996D01*
X5810590Y-60214351D01*
X5774298Y-60178782D01*
X5755870Y-60119792D01*
X5759400Y-60053990D01*
X5766056Y-60033672D01*
X5807599Y-59979567D01*
X5866770Y-59954861D01*
X5930992Y-59959290D01*
X5930992Y-59959290D01*
G37*
X5930992Y-59959290D02*
X5987686Y-59992596D01*
X6018780Y-60038912D01*
X6034207Y-60089479D01*
X6024975Y-60128688D01*
X6003491Y-60160890D01*
X5945461Y-60207137D01*
X5871247Y-60224996D01*
X5810590Y-60214351D01*
X5774298Y-60178782D01*
X5755870Y-60119792D01*
X5759400Y-60053990D01*
X5766056Y-60033672D01*
X5807599Y-59979567D01*
X5866770Y-59954861D01*
X5930992Y-59959290D01*
G36*
X9643493Y-60178075D02*
X9689169Y-60211338D01*
X9689549Y-60211876D01*
X9719316Y-60277631D01*
X9708889Y-60338087D01*
X9670545Y-60388045D01*
X9607878Y-60431641D01*
X9545965Y-60433550D01*
X9488483Y-60400965D01*
X9451239Y-60346789D01*
X9440176Y-60277587D01*
X9457283Y-60212688D01*
X9467563Y-60197711D01*
X9514571Y-60170105D01*
X9579254Y-60163945D01*
X9643493Y-60178075D01*
X9643493Y-60178075D01*
G37*
X9643493Y-60178075D02*
X9689169Y-60211338D01*
X9689549Y-60211876D01*
X9719316Y-60277631D01*
X9708889Y-60338087D01*
X9670545Y-60388045D01*
X9607878Y-60431641D01*
X9545965Y-60433550D01*
X9488483Y-60400965D01*
X9451239Y-60346789D01*
X9440176Y-60277587D01*
X9457283Y-60212688D01*
X9467563Y-60197711D01*
X9514571Y-60170105D01*
X9579254Y-60163945D01*
X9643493Y-60178075D01*
G36*
X5481213Y-60206281D02*
X5498238Y-60219262D01*
X5526454Y-60274163D01*
X5527170Y-60342101D01*
X5501223Y-60404660D01*
X5489166Y-60418833D01*
X5430613Y-60454897D01*
X5360795Y-60452683D01*
X5341000Y-60446477D01*
X5288944Y-60408242D01*
X5261015Y-60348697D01*
X5260290Y-60282938D01*
X5289847Y-60226062D01*
X5295041Y-60221030D01*
X5351387Y-60193108D01*
X5420125Y-60188133D01*
X5481213Y-60206281D01*
X5481213Y-60206281D01*
G37*
X5481213Y-60206281D02*
X5498238Y-60219262D01*
X5526454Y-60274163D01*
X5527170Y-60342101D01*
X5501223Y-60404660D01*
X5489166Y-60418833D01*
X5430613Y-60454897D01*
X5360795Y-60452683D01*
X5341000Y-60446477D01*
X5288944Y-60408242D01*
X5261015Y-60348697D01*
X5260290Y-60282938D01*
X5289847Y-60226062D01*
X5295041Y-60221030D01*
X5351387Y-60193108D01*
X5420125Y-60188133D01*
X5481213Y-60206281D01*
G36*
X10119428Y-60463305D02*
X10162853Y-60506558D01*
X10180129Y-60564270D01*
X10164343Y-60628442D01*
X10151526Y-60648568D01*
X10092910Y-60698255D01*
X10024722Y-60708875D01*
X9959504Y-60682130D01*
X9927376Y-60650271D01*
X9916017Y-60606185D01*
X9917171Y-60560116D01*
X9926110Y-60500864D01*
X9947469Y-60468910D01*
X9981791Y-60452182D01*
X10056769Y-60442513D01*
X10119428Y-60463305D01*
X10119428Y-60463305D01*
G37*
X10119428Y-60463305D02*
X10162853Y-60506558D01*
X10180129Y-60564270D01*
X10164343Y-60628442D01*
X10151526Y-60648568D01*
X10092910Y-60698255D01*
X10024722Y-60708875D01*
X9959504Y-60682130D01*
X9927376Y-60650271D01*
X9916017Y-60606185D01*
X9917171Y-60560116D01*
X9926110Y-60500864D01*
X9947469Y-60468910D01*
X9981791Y-60452182D01*
X10056769Y-60442513D01*
X10119428Y-60463305D01*
G36*
X5003498Y-60479682D02*
X5049365Y-60529934D01*
X5065833Y-60602428D01*
X5048398Y-60670101D01*
X5003679Y-60716058D01*
X4943056Y-60735823D01*
X4877909Y-60724921D01*
X4833000Y-60694000D01*
X4797724Y-60633945D01*
X4796885Y-60569520D01*
X4825554Y-60511919D01*
X4878800Y-60472337D01*
X4935552Y-60461167D01*
X5003498Y-60479682D01*
X5003498Y-60479682D01*
G37*
X5003498Y-60479682D02*
X5049365Y-60529934D01*
X5065833Y-60602428D01*
X5048398Y-60670101D01*
X5003679Y-60716058D01*
X4943056Y-60735823D01*
X4877909Y-60724921D01*
X4833000Y-60694000D01*
X4797724Y-60633945D01*
X4796885Y-60569520D01*
X4825554Y-60511919D01*
X4878800Y-60472337D01*
X4935552Y-60461167D01*
X5003498Y-60479682D01*
G36*
X10552118Y-60794768D02*
X10590764Y-60843096D01*
X10606631Y-60902750D01*
X10594217Y-60963604D01*
X10556887Y-61009052D01*
X10505181Y-61043323D01*
X10461986Y-61049106D01*
X10406976Y-61028903D01*
X10404664Y-61027794D01*
X10357755Y-60985085D01*
X10338625Y-60924775D01*
X10346041Y-60860088D01*
X10378768Y-60804249D01*
X10428485Y-60772609D01*
X10496191Y-60767897D01*
X10552118Y-60794768D01*
X10552118Y-60794768D01*
G37*
X10552118Y-60794768D02*
X10590764Y-60843096D01*
X10606631Y-60902750D01*
X10594217Y-60963604D01*
X10556887Y-61009052D01*
X10505181Y-61043323D01*
X10461986Y-61049106D01*
X10406976Y-61028903D01*
X10404664Y-61027794D01*
X10357755Y-60985085D01*
X10338625Y-60924775D01*
X10346041Y-60860088D01*
X10378768Y-60804249D01*
X10428485Y-60772609D01*
X10496191Y-60767897D01*
X10552118Y-60794768D01*
G36*
X4580164Y-60818349D02*
X4626031Y-60868601D01*
X4642500Y-60941094D01*
X4625064Y-61008767D01*
X4580345Y-61054725D01*
X4519723Y-61074490D01*
X4454576Y-61063588D01*
X4409666Y-61032667D01*
X4374390Y-60972612D01*
X4373552Y-60908187D01*
X4402221Y-60850586D01*
X4455466Y-60811004D01*
X4512219Y-60799833D01*
X4580164Y-60818349D01*
X4580164Y-60818349D01*
G37*
X4580164Y-60818349D02*
X4626031Y-60868601D01*
X4642500Y-60941094D01*
X4625064Y-61008767D01*
X4580345Y-61054725D01*
X4519723Y-61074490D01*
X4454576Y-61063588D01*
X4409666Y-61032667D01*
X4374390Y-60972612D01*
X4373552Y-60908187D01*
X4402221Y-60850586D01*
X4455466Y-60811004D01*
X4512219Y-60799833D01*
X4580164Y-60818349D01*
G36*
X10912169Y-61157887D02*
X10963146Y-61196639D01*
X10990525Y-61259402D01*
X10992500Y-61284133D01*
X10975728Y-61358525D01*
X10931938Y-61407485D01*
X10870918Y-61426226D01*
X10802456Y-61409961D01*
X10773467Y-61391249D01*
X10728617Y-61333667D01*
X10721673Y-61268208D01*
X10752166Y-61204868D01*
X10783581Y-61175401D01*
X10848634Y-61148892D01*
X10912169Y-61157887D01*
X10912169Y-61157887D01*
G37*
X10912169Y-61157887D02*
X10963146Y-61196639D01*
X10990525Y-61259402D01*
X10992500Y-61284133D01*
X10975728Y-61358525D01*
X10931938Y-61407485D01*
X10870918Y-61426226D01*
X10802456Y-61409961D01*
X10773467Y-61391249D01*
X10728617Y-61333667D01*
X10721673Y-61268208D01*
X10752166Y-61204868D01*
X10783581Y-61175401D01*
X10848634Y-61148892D01*
X10912169Y-61157887D01*
G36*
X4212378Y-61211791D02*
X4251431Y-61263868D01*
X4261500Y-61316336D01*
X4248871Y-61380683D01*
X4222791Y-61420969D01*
X4164697Y-61449838D01*
X4095965Y-61452760D01*
X4035827Y-61430088D01*
X4021363Y-61417291D01*
X3990693Y-61354969D01*
X3993405Y-61284512D01*
X4028666Y-61223167D01*
X4089503Y-61186841D01*
X4154572Y-61184583D01*
X4212378Y-61211791D01*
X4212378Y-61211791D01*
G37*
X4212378Y-61211791D02*
X4251431Y-61263868D01*
X4261500Y-61316336D01*
X4248871Y-61380683D01*
X4222791Y-61420969D01*
X4164697Y-61449838D01*
X4095965Y-61452760D01*
X4035827Y-61430088D01*
X4021363Y-61417291D01*
X3990693Y-61354969D01*
X3993405Y-61284512D01*
X4028666Y-61223167D01*
X4089503Y-61186841D01*
X4154572Y-61184583D01*
X4212378Y-61211791D01*
G36*
X11264934Y-61600435D02*
X11310891Y-61645154D01*
X11330656Y-61705777D01*
X11319754Y-61770923D01*
X11288833Y-61815833D01*
X11229922Y-61852736D01*
X11164719Y-61848839D01*
X11130083Y-61832873D01*
X11078400Y-61792206D01*
X11058075Y-61738593D01*
X11056324Y-61707989D01*
X11074749Y-61643998D01*
X11124752Y-61599625D01*
X11197166Y-61583000D01*
X11197261Y-61583000D01*
X11264934Y-61600435D01*
X11264934Y-61600435D01*
G37*
X11264934Y-61600435D02*
X11310891Y-61645154D01*
X11330656Y-61705777D01*
X11319754Y-61770923D01*
X11288833Y-61815833D01*
X11229922Y-61852736D01*
X11164719Y-61848839D01*
X11130083Y-61832873D01*
X11078400Y-61792206D01*
X11058075Y-61738593D01*
X11056324Y-61707989D01*
X11074749Y-61643998D01*
X11124752Y-61599625D01*
X11197166Y-61583000D01*
X11197261Y-61583000D01*
X11264934Y-61600435D01*
G36*
X3821474Y-61609750D02*
X3854041Y-61625998D01*
X3897228Y-61661963D01*
X3916366Y-61716232D01*
X3918907Y-61738600D01*
X3914755Y-61814668D01*
X3883971Y-61859591D01*
X3822287Y-61878166D01*
X3793729Y-61879333D01*
X3731097Y-61871980D01*
X3690843Y-61844262D01*
X3676395Y-61824776D01*
X3654031Y-61757219D01*
X3670341Y-61691022D01*
X3722428Y-61635547D01*
X3737904Y-61625988D01*
X3783868Y-61605500D01*
X3821474Y-61609750D01*
X3821474Y-61609750D01*
G37*
X3821474Y-61609750D02*
X3854041Y-61625998D01*
X3897228Y-61661963D01*
X3916366Y-61716232D01*
X3918907Y-61738600D01*
X3914755Y-61814668D01*
X3883971Y-61859591D01*
X3822287Y-61878166D01*
X3793729Y-61879333D01*
X3731097Y-61871980D01*
X3690843Y-61844262D01*
X3676395Y-61824776D01*
X3654031Y-61757219D01*
X3670341Y-61691022D01*
X3722428Y-61635547D01*
X3737904Y-61625988D01*
X3783868Y-61605500D01*
X3821474Y-61609750D01*
G36*
X11552922Y-62056017D02*
X11596610Y-62103392D01*
X11615854Y-62167122D01*
X11606189Y-62228963D01*
X11579704Y-62265302D01*
X11536593Y-62299919D01*
X11493329Y-62321275D01*
X11472663Y-62322491D01*
X11452557Y-62314590D01*
X11420817Y-62301893D01*
X11367782Y-62261405D01*
X11343354Y-62202447D01*
X11347275Y-62137518D01*
X11379289Y-62079113D01*
X11426104Y-62044957D01*
X11493264Y-62033654D01*
X11552922Y-62056017D01*
X11552922Y-62056017D01*
G37*
X11552922Y-62056017D02*
X11596610Y-62103392D01*
X11615854Y-62167122D01*
X11606189Y-62228963D01*
X11579704Y-62265302D01*
X11536593Y-62299919D01*
X11493329Y-62321275D01*
X11472663Y-62322491D01*
X11452557Y-62314590D01*
X11420817Y-62301893D01*
X11367782Y-62261405D01*
X11343354Y-62202447D01*
X11347275Y-62137518D01*
X11379289Y-62079113D01*
X11426104Y-62044957D01*
X11493264Y-62033654D01*
X11552922Y-62056017D01*
G36*
X3550600Y-62076474D02*
X3600623Y-62102783D01*
X3636061Y-62150463D01*
X3648095Y-62215708D01*
X3635506Y-62280031D01*
X3614404Y-62311738D01*
X3561403Y-62338845D01*
X3493527Y-62342926D01*
X3431072Y-62324516D01*
X3407530Y-62306291D01*
X3375405Y-62243381D01*
X3381212Y-62176460D01*
X3423664Y-62117461D01*
X3428271Y-62113703D01*
X3492548Y-62076420D01*
X3550600Y-62076474D01*
X3550600Y-62076474D01*
G37*
X3550600Y-62076474D02*
X3600623Y-62102783D01*
X3636061Y-62150463D01*
X3648095Y-62215708D01*
X3635506Y-62280031D01*
X3614404Y-62311738D01*
X3561403Y-62338845D01*
X3493527Y-62342926D01*
X3431072Y-62324516D01*
X3407530Y-62306291D01*
X3375405Y-62243381D01*
X3381212Y-62176460D01*
X3423664Y-62117461D01*
X3428271Y-62113703D01*
X3492548Y-62076420D01*
X3550600Y-62076474D01*
G36*
X11773756Y-62552949D02*
X11821875Y-62602082D01*
X11839165Y-62678078D01*
X11839166Y-62678841D01*
X11821569Y-62744394D01*
X11776562Y-62789202D01*
X11715826Y-62808778D01*
X11651040Y-62798631D01*
X11606333Y-62768333D01*
X11570008Y-62707496D01*
X11567749Y-62642428D01*
X11594957Y-62584621D01*
X11647034Y-62545569D01*
X11699502Y-62535500D01*
X11773756Y-62552949D01*
X11773756Y-62552949D01*
G37*
X11773756Y-62552949D02*
X11821875Y-62602082D01*
X11839165Y-62678078D01*
X11839166Y-62678841D01*
X11821569Y-62744394D01*
X11776562Y-62789202D01*
X11715826Y-62808778D01*
X11651040Y-62798631D01*
X11606333Y-62768333D01*
X11570008Y-62707496D01*
X11567749Y-62642428D01*
X11594957Y-62584621D01*
X11647034Y-62545569D01*
X11699502Y-62535500D01*
X11773756Y-62552949D01*
G36*
X3378413Y-62602552D02*
X3405632Y-62629890D01*
X3427238Y-62692322D01*
X3422565Y-62759438D01*
X3394415Y-62814316D01*
X3372171Y-62832009D01*
X3300972Y-62851887D01*
X3233083Y-62840486D01*
X3195863Y-62814291D01*
X3167941Y-62757946D01*
X3162966Y-62689207D01*
X3181114Y-62628119D01*
X3194095Y-62611095D01*
X3249882Y-62581323D01*
X3317277Y-62579004D01*
X3378413Y-62602552D01*
X3378413Y-62602552D01*
G37*
X3378413Y-62602552D02*
X3405632Y-62629890D01*
X3427238Y-62692322D01*
X3422565Y-62759438D01*
X3394415Y-62814316D01*
X3372171Y-62832009D01*
X3300972Y-62851887D01*
X3233083Y-62840486D01*
X3195863Y-62814291D01*
X3167941Y-62757946D01*
X3162966Y-62689207D01*
X3181114Y-62628119D01*
X3194095Y-62611095D01*
X3249882Y-62581323D01*
X3317277Y-62579004D01*
X3378413Y-62602552D01*
G36*
X11934007Y-63061255D02*
X11980365Y-63106402D01*
X12004974Y-63166766D01*
X12002823Y-63230170D01*
X11969791Y-63283636D01*
X11911697Y-63312504D01*
X11842965Y-63315427D01*
X11782827Y-63292755D01*
X11768363Y-63279958D01*
X11737755Y-63219327D01*
X11739883Y-63153290D01*
X11769452Y-63094057D01*
X11821165Y-63053840D01*
X11870916Y-63043500D01*
X11934007Y-63061255D01*
X11934007Y-63061255D01*
G37*
X11934007Y-63061255D02*
X11980365Y-63106402D01*
X12004974Y-63166766D01*
X12002823Y-63230170D01*
X11969791Y-63283636D01*
X11911697Y-63312504D01*
X11842965Y-63315427D01*
X11782827Y-63292755D01*
X11768363Y-63279958D01*
X11737755Y-63219327D01*
X11739883Y-63153290D01*
X11769452Y-63094057D01*
X11821165Y-63053840D01*
X11870916Y-63043500D01*
X11934007Y-63061255D01*
G36*
X3169600Y-63092474D02*
X3219623Y-63118783D01*
X3255061Y-63166463D01*
X3267095Y-63231708D01*
X3254506Y-63296031D01*
X3233404Y-63327738D01*
X3179144Y-63356453D01*
X3112323Y-63359776D01*
X3051430Y-63338929D01*
X3024450Y-63313957D01*
X2994296Y-63243032D01*
X3005548Y-63177961D01*
X3047271Y-63129703D01*
X3111548Y-63092420D01*
X3169600Y-63092474D01*
X3169600Y-63092474D01*
G37*
X3169600Y-63092474D02*
X3219623Y-63118783D01*
X3255061Y-63166463D01*
X3267095Y-63231708D01*
X3254506Y-63296031D01*
X3233404Y-63327738D01*
X3179144Y-63356453D01*
X3112323Y-63359776D01*
X3051430Y-63338929D01*
X3024450Y-63313957D01*
X2994296Y-63243032D01*
X3005548Y-63177961D01*
X3047271Y-63129703D01*
X3111548Y-63092420D01*
X3169600Y-63092474D01*
G36*
X11991672Y-63578247D02*
X12024095Y-63594488D01*
X12083190Y-63645465D01*
X12108497Y-63705889D01*
X12102287Y-63765789D01*
X12066828Y-63815195D01*
X12004391Y-63844136D01*
X11966423Y-63847833D01*
X11902937Y-63840740D01*
X11867022Y-63815969D01*
X11859809Y-63804522D01*
X11840302Y-63732103D01*
X11852201Y-63660680D01*
X11892076Y-63605219D01*
X11907958Y-63594493D01*
X11954100Y-63574001D01*
X11991672Y-63578247D01*
X11991672Y-63578247D01*
G37*
X11991672Y-63578247D02*
X12024095Y-63594488D01*
X12083190Y-63645465D01*
X12108497Y-63705889D01*
X12102287Y-63765789D01*
X12066828Y-63815195D01*
X12004391Y-63844136D01*
X11966423Y-63847833D01*
X11902937Y-63840740D01*
X11867022Y-63815969D01*
X11859809Y-63804522D01*
X11840302Y-63732103D01*
X11852201Y-63660680D01*
X11892076Y-63605219D01*
X11907958Y-63594493D01*
X11954100Y-63574001D01*
X11991672Y-63578247D01*
G36*
X3112738Y-63652223D02*
X3161468Y-63694117D01*
X3179127Y-63752437D01*
X3161786Y-63817770D01*
X3130045Y-63859379D01*
X3068575Y-63902870D01*
X3007665Y-63905535D01*
X2953876Y-63878383D01*
X2918308Y-63836918D01*
X2906885Y-63772478D01*
X2906833Y-63766200D01*
X2916348Y-63693192D01*
X2949376Y-63652320D01*
X3012644Y-63636859D01*
X3036866Y-63636167D01*
X3112738Y-63652223D01*
X3112738Y-63652223D01*
G37*
X3112738Y-63652223D02*
X3161468Y-63694117D01*
X3179127Y-63752437D01*
X3161786Y-63817770D01*
X3130045Y-63859379D01*
X3068575Y-63902870D01*
X3007665Y-63905535D01*
X2953876Y-63878383D01*
X2918308Y-63836918D01*
X2906885Y-63772478D01*
X2906833Y-63766200D01*
X2916348Y-63693192D01*
X2949376Y-63652320D01*
X3012644Y-63636859D01*
X3036866Y-63636167D01*
X3112738Y-63652223D01*
G36*
X12078409Y-64138893D02*
X12119581Y-64187203D01*
X12135289Y-64268877D01*
X12135500Y-64282062D01*
X12129497Y-64349557D01*
X12107669Y-64391223D01*
X12088456Y-64407550D01*
X12023595Y-64437175D01*
X11963780Y-64427354D01*
X11909770Y-64386028D01*
X11872919Y-64339645D01*
X11863728Y-64291072D01*
X11867916Y-64253806D01*
X11895092Y-64176975D01*
X11947142Y-64134023D01*
X12011033Y-64123000D01*
X12078409Y-64138893D01*
X12078409Y-64138893D01*
G37*
X12078409Y-64138893D02*
X12119581Y-64187203D01*
X12135289Y-64268877D01*
X12135500Y-64282062D01*
X12129497Y-64349557D01*
X12107669Y-64391223D01*
X12088456Y-64407550D01*
X12023595Y-64437175D01*
X11963780Y-64427354D01*
X11909770Y-64386028D01*
X11872919Y-64339645D01*
X11863728Y-64291072D01*
X11867916Y-64253806D01*
X11895092Y-64176975D01*
X11947142Y-64134023D01*
X12011033Y-64123000D01*
X12078409Y-64138893D01*
G36*
X3090891Y-64196689D02*
X3129749Y-64249653D01*
X3139666Y-64302605D01*
X3124251Y-64378342D01*
X3078526Y-64424567D01*
X3003275Y-64440495D01*
X3001771Y-64440500D01*
X2934292Y-64426711D01*
X2897450Y-64393457D01*
X2867397Y-64320656D01*
X2876984Y-64250533D01*
X2906833Y-64207667D01*
X2968033Y-64171048D01*
X3033185Y-64168938D01*
X3090891Y-64196689D01*
X3090891Y-64196689D01*
G37*
X3090891Y-64196689D02*
X3129749Y-64249653D01*
X3139666Y-64302605D01*
X3124251Y-64378342D01*
X3078526Y-64424567D01*
X3003275Y-64440495D01*
X3001771Y-64440500D01*
X2934292Y-64426711D01*
X2897450Y-64393457D01*
X2867397Y-64320656D01*
X2876984Y-64250533D01*
X2906833Y-64207667D01*
X2968033Y-64171048D01*
X3033185Y-64168938D01*
X3090891Y-64196689D01*
G36*
X12038566Y-64712208D02*
X12085897Y-64752867D01*
X12109884Y-64811353D01*
X12102362Y-64879504D01*
X12091802Y-64902316D01*
X12044936Y-64948533D01*
X11980788Y-64968077D01*
X11915365Y-64958891D01*
X11873637Y-64930340D01*
X11843489Y-64869404D01*
X11845258Y-64801003D01*
X11876474Y-64741166D01*
X11906517Y-64717026D01*
X11976051Y-64697540D01*
X12038566Y-64712208D01*
X12038566Y-64712208D01*
G37*
X12038566Y-64712208D02*
X12085897Y-64752867D01*
X12109884Y-64811353D01*
X12102362Y-64879504D01*
X12091802Y-64902316D01*
X12044936Y-64948533D01*
X11980788Y-64968077D01*
X11915365Y-64958891D01*
X11873637Y-64930340D01*
X11843489Y-64869404D01*
X11845258Y-64801003D01*
X11876474Y-64741166D01*
X11906517Y-64717026D01*
X11976051Y-64697540D01*
X12038566Y-64712208D01*
G36*
X3122563Y-64742609D02*
X3162499Y-64787644D01*
X3180835Y-64844252D01*
X3170335Y-64905060D01*
X3139666Y-64948500D01*
X3076259Y-64985432D01*
X3004452Y-64983013D01*
X2953876Y-64957883D01*
X2917278Y-64909288D01*
X2906596Y-64844413D01*
X2922544Y-64780992D01*
X2945541Y-64750697D01*
X3006846Y-64716760D01*
X3068266Y-64716522D01*
X3122563Y-64742609D01*
X3122563Y-64742609D01*
G37*
X3122563Y-64742609D02*
X3162499Y-64787644D01*
X3180835Y-64844252D01*
X3170335Y-64905060D01*
X3139666Y-64948500D01*
X3076259Y-64985432D01*
X3004452Y-64983013D01*
X2953876Y-64957883D01*
X2917278Y-64909288D01*
X2906596Y-64844413D01*
X2922544Y-64780992D01*
X2945541Y-64750697D01*
X3006846Y-64716760D01*
X3068266Y-64716522D01*
X3122563Y-64742609D01*
G36*
X11907144Y-65229249D02*
X11939708Y-65245493D01*
X11986873Y-65293723D01*
X12007034Y-65362149D01*
X11996759Y-65435804D01*
X11987856Y-65455522D01*
X11947773Y-65490787D01*
X11888382Y-65502450D01*
X11824992Y-65491273D01*
X11772914Y-65458019D01*
X11762062Y-65444276D01*
X11739698Y-65376719D01*
X11756008Y-65310522D01*
X11808094Y-65255047D01*
X11823571Y-65245488D01*
X11869536Y-65224999D01*
X11907144Y-65229249D01*
X11907144Y-65229249D01*
G37*
X11907144Y-65229249D02*
X11939708Y-65245493D01*
X11986873Y-65293723D01*
X12007034Y-65362149D01*
X11996759Y-65435804D01*
X11987856Y-65455522D01*
X11947773Y-65490787D01*
X11888382Y-65502450D01*
X11824992Y-65491273D01*
X11772914Y-65458019D01*
X11762062Y-65444276D01*
X11739698Y-65376719D01*
X11756008Y-65310522D01*
X11808094Y-65255047D01*
X11823571Y-65245488D01*
X11869536Y-65224999D01*
X11907144Y-65229249D01*
G36*
X3173958Y-65249495D02*
X3230772Y-65278758D01*
X3265759Y-65327310D01*
X3276172Y-65400506D01*
X3251699Y-65468051D01*
X3215872Y-65503801D01*
X3170035Y-65517176D01*
X3110153Y-65517140D01*
X3062300Y-65503793D01*
X3061346Y-65503203D01*
X3025853Y-65458759D01*
X3009611Y-65393334D01*
X3017188Y-65325653D01*
X3017689Y-65324190D01*
X3054619Y-65272051D01*
X3110975Y-65247206D01*
X3173958Y-65249495D01*
X3173958Y-65249495D01*
G37*
X3173958Y-65249495D02*
X3230772Y-65278758D01*
X3265759Y-65327310D01*
X3276172Y-65400506D01*
X3251699Y-65468051D01*
X3215872Y-65503801D01*
X3170035Y-65517176D01*
X3110153Y-65517140D01*
X3062300Y-65503793D01*
X3061346Y-65503203D01*
X3025853Y-65458759D01*
X3009611Y-65393334D01*
X3017188Y-65325653D01*
X3017689Y-65324190D01*
X3054619Y-65272051D01*
X3110975Y-65247206D01*
X3173958Y-65249495D01*
G36*
X11751843Y-65753945D02*
X11807535Y-65783542D01*
X11844411Y-65836322D01*
X11852505Y-65906394D01*
X11849900Y-65921482D01*
X11818475Y-65982704D01*
X11764397Y-66019852D01*
X11700522Y-66029132D01*
X11639704Y-66006748D01*
X11620197Y-65989291D01*
X11591328Y-65931198D01*
X11588406Y-65862465D01*
X11611078Y-65802327D01*
X11623875Y-65787864D01*
X11687301Y-65753421D01*
X11751843Y-65753945D01*
X11751843Y-65753945D01*
G37*
X11751843Y-65753945D02*
X11807535Y-65783542D01*
X11844411Y-65836322D01*
X11852505Y-65906394D01*
X11849900Y-65921482D01*
X11818475Y-65982704D01*
X11764397Y-66019852D01*
X11700522Y-66029132D01*
X11639704Y-66006748D01*
X11620197Y-65989291D01*
X11591328Y-65931198D01*
X11588406Y-65862465D01*
X11611078Y-65802327D01*
X11623875Y-65787864D01*
X11687301Y-65753421D01*
X11751843Y-65753945D01*
G36*
X3351265Y-65768547D02*
X3403649Y-65805134D01*
X3432993Y-65868521D01*
X3436000Y-65901000D01*
X3418222Y-65975120D01*
X3366617Y-66024400D01*
X3325940Y-66039452D01*
X3275901Y-66041062D01*
X3229882Y-66013505D01*
X3214815Y-65999239D01*
X3169873Y-65932948D01*
X3166063Y-65867922D01*
X3203315Y-65808346D01*
X3218125Y-65795506D01*
X3286028Y-65763694D01*
X3351265Y-65768547D01*
X3351265Y-65768547D01*
G37*
X3351265Y-65768547D02*
X3403649Y-65805134D01*
X3432993Y-65868521D01*
X3436000Y-65901000D01*
X3418222Y-65975120D01*
X3366617Y-66024400D01*
X3325940Y-66039452D01*
X3275901Y-66041062D01*
X3229882Y-66013505D01*
X3214815Y-65999239D01*
X3169873Y-65932948D01*
X3166063Y-65867922D01*
X3203315Y-65808346D01*
X3218125Y-65795506D01*
X3286028Y-65763694D01*
X3351265Y-65768547D01*
G36*
X11578378Y-66270624D02*
X11617431Y-66322701D01*
X11627500Y-66375169D01*
X11614871Y-66439517D01*
X11588791Y-66479803D01*
X11530697Y-66508671D01*
X11461965Y-66511594D01*
X11401827Y-66488922D01*
X11387363Y-66476125D01*
X11356693Y-66413802D01*
X11359405Y-66343345D01*
X11394666Y-66282000D01*
X11455503Y-66245675D01*
X11520572Y-66243416D01*
X11578378Y-66270624D01*
X11578378Y-66270624D01*
G37*
X11578378Y-66270624D02*
X11617431Y-66322701D01*
X11627500Y-66375169D01*
X11614871Y-66439517D01*
X11588791Y-66479803D01*
X11530697Y-66508671D01*
X11461965Y-66511594D01*
X11401827Y-66488922D01*
X11387363Y-66476125D01*
X11356693Y-66413802D01*
X11359405Y-66343345D01*
X11394666Y-66282000D01*
X11455503Y-66245675D01*
X11520572Y-66243416D01*
X11578378Y-66270624D01*
G36*
X3609397Y-66287775D02*
X3649332Y-66332810D01*
X3667669Y-66389419D01*
X3657168Y-66450226D01*
X3626500Y-66493667D01*
X3563092Y-66530598D01*
X3491286Y-66528179D01*
X3440709Y-66503050D01*
X3404111Y-66454455D01*
X3393430Y-66389580D01*
X3409377Y-66326159D01*
X3432375Y-66295864D01*
X3493680Y-66261927D01*
X3555100Y-66261689D01*
X3609397Y-66287775D01*
X3609397Y-66287775D01*
G37*
X3609397Y-66287775D02*
X3649332Y-66332810D01*
X3667669Y-66389419D01*
X3657168Y-66450226D01*
X3626500Y-66493667D01*
X3563092Y-66530598D01*
X3491286Y-66528179D01*
X3440709Y-66503050D01*
X3404111Y-66454455D01*
X3393430Y-66389580D01*
X3409377Y-66326159D01*
X3432375Y-66295864D01*
X3493680Y-66261927D01*
X3555100Y-66261689D01*
X3609397Y-66287775D01*
G36*
X11276563Y-66723039D02*
X11323895Y-66763696D01*
X11347883Y-66822181D01*
X11340364Y-66890332D01*
X11329802Y-66913149D01*
X11283793Y-66957784D01*
X11219268Y-66978473D01*
X11153066Y-66972602D01*
X11110428Y-66947238D01*
X11081570Y-66891719D01*
X11081354Y-66824489D01*
X11107163Y-66762387D01*
X11144517Y-66727864D01*
X11214049Y-66708374D01*
X11276563Y-66723039D01*
X11276563Y-66723039D01*
G37*
X11276563Y-66723039D02*
X11323895Y-66763696D01*
X11347883Y-66822181D01*
X11340364Y-66890332D01*
X11329802Y-66913149D01*
X11283793Y-66957784D01*
X11219268Y-66978473D01*
X11153066Y-66972602D01*
X11110428Y-66947238D01*
X11081570Y-66891719D01*
X11081354Y-66824489D01*
X11107163Y-66762387D01*
X11144517Y-66727864D01*
X11214049Y-66708374D01*
X11276563Y-66723039D01*
G36*
X3878589Y-66743949D02*
X3926709Y-66793082D01*
X3943998Y-66869078D01*
X3944000Y-66869841D01*
X3926839Y-66936712D01*
X3882851Y-66981002D01*
X3823278Y-66998648D01*
X3759364Y-66985586D01*
X3714856Y-66952677D01*
X3677295Y-66888635D01*
X3674745Y-66823723D01*
X3703035Y-66768482D01*
X3757997Y-66733449D01*
X3804336Y-66726500D01*
X3878589Y-66743949D01*
X3878589Y-66743949D01*
G37*
X3878589Y-66743949D02*
X3926709Y-66793082D01*
X3943998Y-66869078D01*
X3944000Y-66869841D01*
X3926839Y-66936712D01*
X3882851Y-66981002D01*
X3823278Y-66998648D01*
X3759364Y-66985586D01*
X3714856Y-66952677D01*
X3677295Y-66888635D01*
X3674745Y-66823723D01*
X3703035Y-66768482D01*
X3757997Y-66733449D01*
X3804336Y-66726500D01*
X3878589Y-66743949D01*
G36*
X10945295Y-67158039D02*
X10993698Y-67200767D01*
X11016537Y-67258613D01*
X11009057Y-67320640D01*
X10974958Y-67368803D01*
X10918612Y-67396725D01*
X10849874Y-67401700D01*
X10788786Y-67383552D01*
X10771761Y-67370571D01*
X10744093Y-67316543D01*
X10741814Y-67248060D01*
X10765341Y-67184846D01*
X10767769Y-67181395D01*
X10816884Y-67148794D01*
X10876083Y-67141367D01*
X10945295Y-67158039D01*
X10945295Y-67158039D01*
G37*
X10945295Y-67158039D02*
X10993698Y-67200767D01*
X11016537Y-67258613D01*
X11009057Y-67320640D01*
X10974958Y-67368803D01*
X10918612Y-67396725D01*
X10849874Y-67401700D01*
X10788786Y-67383552D01*
X10771761Y-67370571D01*
X10744093Y-67316543D01*
X10741814Y-67248060D01*
X10765341Y-67184846D01*
X10767769Y-67181395D01*
X10816884Y-67148794D01*
X10876083Y-67141367D01*
X10945295Y-67158039D01*
G36*
X4233172Y-67175745D02*
X4247636Y-67188542D01*
X4278244Y-67249173D01*
X4276116Y-67315210D01*
X4246547Y-67374442D01*
X4194834Y-67414660D01*
X4145083Y-67425000D01*
X4090332Y-67410278D01*
X4049833Y-67382667D01*
X4015570Y-67323688D01*
X4010647Y-67255867D01*
X4035380Y-67196391D01*
X4046208Y-67184864D01*
X4104302Y-67155995D01*
X4173034Y-67153073D01*
X4233172Y-67175745D01*
X4233172Y-67175745D01*
G37*
X4233172Y-67175745D02*
X4247636Y-67188542D01*
X4278244Y-67249173D01*
X4276116Y-67315210D01*
X4246547Y-67374442D01*
X4194834Y-67414660D01*
X4145083Y-67425000D01*
X4090332Y-67410278D01*
X4049833Y-67382667D01*
X4015570Y-67323688D01*
X4010647Y-67255867D01*
X4035380Y-67196391D01*
X4046208Y-67184864D01*
X4104302Y-67155995D01*
X4173034Y-67153073D01*
X4233172Y-67175745D01*
G36*
X10569477Y-67547523D02*
X10595625Y-67567774D01*
X10628672Y-67622290D01*
X10627757Y-67686372D01*
X10594211Y-67746208D01*
X10576895Y-67762130D01*
X10526058Y-67795748D01*
X10482394Y-67801718D01*
X10426924Y-67784408D01*
X10381716Y-67746897D01*
X10360359Y-67689715D01*
X10362281Y-67626684D01*
X10386906Y-67571625D01*
X10433659Y-67538362D01*
X10437197Y-67537350D01*
X10511554Y-67527707D01*
X10569477Y-67547523D01*
X10569477Y-67547523D01*
G37*
X10569477Y-67547523D02*
X10595625Y-67567774D01*
X10628672Y-67622290D01*
X10627757Y-67686372D01*
X10594211Y-67746208D01*
X10576895Y-67762130D01*
X10526058Y-67795748D01*
X10482394Y-67801718D01*
X10426924Y-67784408D01*
X10381716Y-67746897D01*
X10360359Y-67689715D01*
X10362281Y-67626684D01*
X10386906Y-67571625D01*
X10433659Y-67538362D01*
X10437197Y-67537350D01*
X10511554Y-67527707D01*
X10569477Y-67547523D01*
G36*
X4598340Y-67548384D02*
X4646637Y-67597510D01*
X4663666Y-67672094D01*
X4646231Y-67739767D01*
X4601512Y-67785725D01*
X4540889Y-67805490D01*
X4475743Y-67794588D01*
X4430833Y-67763667D01*
X4394508Y-67702829D01*
X4392249Y-67637761D01*
X4419457Y-67579955D01*
X4471534Y-67540902D01*
X4524002Y-67530833D01*
X4598340Y-67548384D01*
X4598340Y-67548384D01*
G37*
X4598340Y-67548384D02*
X4646637Y-67597510D01*
X4663666Y-67672094D01*
X4646231Y-67739767D01*
X4601512Y-67785725D01*
X4540889Y-67805490D01*
X4475743Y-67794588D01*
X4430833Y-67763667D01*
X4394508Y-67702829D01*
X4392249Y-67637761D01*
X4419457Y-67579955D01*
X4471534Y-67540902D01*
X4524002Y-67530833D01*
X4598340Y-67548384D01*
G36*
X10101375Y-67859418D02*
X10153562Y-67892203D01*
X10198441Y-67948512D01*
X10207876Y-68010045D01*
X10185826Y-68066552D01*
X10136250Y-68107786D01*
X10064199Y-68123500D01*
X10005293Y-68117086D01*
X9963432Y-68101325D01*
X9959566Y-68098100D01*
X9936344Y-68049107D01*
X9934145Y-67983535D01*
X9951071Y-67920397D01*
X9981209Y-67881283D01*
X10043049Y-67851991D01*
X10101375Y-67859418D01*
X10101375Y-67859418D01*
G37*
X10101375Y-67859418D02*
X10153562Y-67892203D01*
X10198441Y-67948512D01*
X10207876Y-68010045D01*
X10185826Y-68066552D01*
X10136250Y-68107786D01*
X10064199Y-68123500D01*
X10005293Y-68117086D01*
X9963432Y-68101325D01*
X9959566Y-68098100D01*
X9936344Y-68049107D01*
X9934145Y-67983535D01*
X9951071Y-67920397D01*
X9981209Y-67881283D01*
X10043049Y-67851991D01*
X10101375Y-67859418D01*
G36*
X5034946Y-67885951D02*
X5046058Y-67891411D01*
X5078211Y-67929864D01*
X5089482Y-67988643D01*
X5080320Y-68051510D01*
X5051174Y-68102226D01*
X5039956Y-68111716D01*
X4974202Y-68141483D01*
X4913746Y-68131056D01*
X4863787Y-68092712D01*
X4820296Y-68031242D01*
X4817631Y-67970332D01*
X4844783Y-67916543D01*
X4893820Y-67880049D01*
X4962387Y-67869205D01*
X5034946Y-67885951D01*
X5034946Y-67885951D01*
G37*
X5034946Y-67885951D02*
X5046058Y-67891411D01*
X5078211Y-67929864D01*
X5089482Y-67988643D01*
X5080320Y-68051510D01*
X5051174Y-68102226D01*
X5039956Y-68111716D01*
X4974202Y-68141483D01*
X4913746Y-68131056D01*
X4863787Y-68092712D01*
X4820296Y-68031242D01*
X4817631Y-67970332D01*
X4844783Y-67916543D01*
X4893820Y-67880049D01*
X4962387Y-67869205D01*
X5034946Y-67885951D01*
G36*
X9675882Y-68161150D02*
X9723464Y-68203495D01*
X9743211Y-68261042D01*
X9731269Y-68323130D01*
X9687895Y-68375964D01*
X9623618Y-68413247D01*
X9565566Y-68413192D01*
X9515543Y-68386883D01*
X9477430Y-68339269D01*
X9468500Y-68282562D01*
X9484007Y-68206719D01*
X9529735Y-68160350D01*
X9604314Y-68144667D01*
X9675882Y-68161150D01*
X9675882Y-68161150D01*
G37*
X9675882Y-68161150D02*
X9723464Y-68203495D01*
X9743211Y-68261042D01*
X9731269Y-68323130D01*
X9687895Y-68375964D01*
X9623618Y-68413247D01*
X9565566Y-68413192D01*
X9515543Y-68386883D01*
X9477430Y-68339269D01*
X9468500Y-68282562D01*
X9484007Y-68206719D01*
X9529735Y-68160350D01*
X9604314Y-68144667D01*
X9675882Y-68161150D01*
G36*
X5503982Y-68174847D02*
X5542600Y-68229481D01*
X5552666Y-68285928D01*
X5534810Y-68353408D01*
X5489015Y-68400175D01*
X5426945Y-68420479D01*
X5360262Y-68408568D01*
X5334747Y-68393375D01*
X5295610Y-68341131D01*
X5283916Y-68274330D01*
X5301163Y-68210828D01*
X5317628Y-68189205D01*
X5380730Y-68150279D01*
X5446437Y-68146970D01*
X5503982Y-68174847D01*
X5503982Y-68174847D01*
G37*
X5503982Y-68174847D02*
X5542600Y-68229481D01*
X5552666Y-68285928D01*
X5534810Y-68353408D01*
X5489015Y-68400175D01*
X5426945Y-68420479D01*
X5360262Y-68408568D01*
X5334747Y-68393375D01*
X5295610Y-68341131D01*
X5283916Y-68274330D01*
X5301163Y-68210828D01*
X5317628Y-68189205D01*
X5380730Y-68150279D01*
X5446437Y-68146970D01*
X5503982Y-68174847D01*
G36*
X9194516Y-68395368D02*
X9231482Y-68447117D01*
X9243327Y-68511435D01*
X9229338Y-68571658D01*
X9203398Y-68602746D01*
X9140166Y-68628827D01*
X9070597Y-68628595D01*
X9011858Y-68603547D01*
X8993450Y-68584457D01*
X8963683Y-68518702D01*
X8974110Y-68458246D01*
X9012454Y-68408288D01*
X9075121Y-68364692D01*
X9137034Y-68362783D01*
X9194516Y-68395368D01*
X9194516Y-68395368D01*
G37*
X9194516Y-68395368D02*
X9231482Y-68447117D01*
X9243327Y-68511435D01*
X9229338Y-68571658D01*
X9203398Y-68602746D01*
X9140166Y-68628827D01*
X9070597Y-68628595D01*
X9011858Y-68603547D01*
X8993450Y-68584457D01*
X8963683Y-68518702D01*
X8974110Y-68458246D01*
X9012454Y-68408288D01*
X9075121Y-68364692D01*
X9137034Y-68362783D01*
X9194516Y-68395368D01*
G36*
X5957026Y-68373442D02*
X6003374Y-68399006D01*
X6048462Y-68455748D01*
X6059891Y-68520634D01*
X6036452Y-68580815D01*
X6021958Y-68596469D01*
X5969580Y-68623753D01*
X5905433Y-68631744D01*
X5846065Y-68620898D01*
X5808026Y-68591671D01*
X5807411Y-68590558D01*
X5789348Y-68532252D01*
X5787450Y-68468061D01*
X5801253Y-68416642D01*
X5812076Y-68402960D01*
X5882800Y-68368352D01*
X5957026Y-68373442D01*
X5957026Y-68373442D01*
G37*
X5957026Y-68373442D02*
X6003374Y-68399006D01*
X6048462Y-68455748D01*
X6059891Y-68520634D01*
X6036452Y-68580815D01*
X6021958Y-68596469D01*
X5969580Y-68623753D01*
X5905433Y-68631744D01*
X5846065Y-68620898D01*
X5808026Y-68591671D01*
X5807411Y-68590558D01*
X5789348Y-68532252D01*
X5787450Y-68468061D01*
X5801253Y-68416642D01*
X5812076Y-68402960D01*
X5882800Y-68368352D01*
X5957026Y-68373442D01*
G36*
X8619970Y-68528257D02*
X8678636Y-68557099D01*
X8717927Y-68609469D01*
X8727666Y-68659625D01*
X8709999Y-68728780D01*
X8664164Y-68776174D01*
X8600908Y-68796705D01*
X8530980Y-68785273D01*
X8499543Y-68767883D01*
X8462945Y-68719288D01*
X8452263Y-68654413D01*
X8468211Y-68590992D01*
X8491208Y-68560697D01*
X8553602Y-68527828D01*
X8619970Y-68528257D01*
X8619970Y-68528257D01*
G37*
X8619970Y-68528257D02*
X8678636Y-68557099D01*
X8717927Y-68609469D01*
X8727666Y-68659625D01*
X8709999Y-68728780D01*
X8664164Y-68776174D01*
X8600908Y-68796705D01*
X8530980Y-68785273D01*
X8499543Y-68767883D01*
X8462945Y-68719288D01*
X8452263Y-68654413D01*
X8468211Y-68590992D01*
X8491208Y-68560697D01*
X8553602Y-68527828D01*
X8619970Y-68528257D01*
G36*
X6506331Y-68544182D02*
X6552198Y-68594434D01*
X6568666Y-68666928D01*
X6551231Y-68734601D01*
X6506512Y-68780558D01*
X6445889Y-68800323D01*
X6380743Y-68789421D01*
X6335833Y-68758500D01*
X6300557Y-68698445D01*
X6299719Y-68634020D01*
X6328388Y-68576419D01*
X6381633Y-68536837D01*
X6438386Y-68525667D01*
X6506331Y-68544182D01*
X6506331Y-68544182D01*
G37*
X6506331Y-68544182D02*
X6552198Y-68594434D01*
X6568666Y-68666928D01*
X6551231Y-68734601D01*
X6506512Y-68780558D01*
X6445889Y-68800323D01*
X6380743Y-68789421D01*
X6335833Y-68758500D01*
X6300557Y-68698445D01*
X6299719Y-68634020D01*
X6328388Y-68576419D01*
X6381633Y-68536837D01*
X6438386Y-68525667D01*
X6506331Y-68544182D01*
G36*
X8119381Y-68642084D02*
X8171485Y-68686621D01*
X8197584Y-68745478D01*
X8198500Y-68758500D01*
X8181126Y-68810447D01*
X8138599Y-68860790D01*
X8085305Y-68892808D01*
X8082083Y-68893781D01*
X8031739Y-68893630D01*
X7986833Y-68879250D01*
X7949280Y-68849665D01*
X7931447Y-68800913D01*
X7927577Y-68766758D01*
X7933682Y-68689886D01*
X7967776Y-68643825D01*
X8032869Y-68625206D01*
X8054759Y-68624444D01*
X8119381Y-68642084D01*
X8119381Y-68642084D01*
G37*
X8119381Y-68642084D02*
X8171485Y-68686621D01*
X8197584Y-68745478D01*
X8198500Y-68758500D01*
X8181126Y-68810447D01*
X8138599Y-68860790D01*
X8085305Y-68892808D01*
X8082083Y-68893781D01*
X8031739Y-68893630D01*
X7986833Y-68879250D01*
X7949280Y-68849665D01*
X7931447Y-68800913D01*
X7927577Y-68766758D01*
X7933682Y-68689886D01*
X7967776Y-68643825D01*
X8032869Y-68625206D01*
X8054759Y-68624444D01*
X8119381Y-68642084D01*
G36*
X7039993Y-68644741D02*
X7085669Y-68678005D01*
X7086049Y-68678543D01*
X7115816Y-68744297D01*
X7105389Y-68804753D01*
X7067045Y-68854712D01*
X7004378Y-68898307D01*
X6942465Y-68900217D01*
X6884983Y-68867632D01*
X6847739Y-68813455D01*
X6836676Y-68744254D01*
X6853783Y-68679354D01*
X6864063Y-68664378D01*
X6911071Y-68636771D01*
X6975754Y-68630611D01*
X7039993Y-68644741D01*
X7039993Y-68644741D01*
G37*
X7039993Y-68644741D02*
X7085669Y-68678005D01*
X7086049Y-68678543D01*
X7115816Y-68744297D01*
X7105389Y-68804753D01*
X7067045Y-68854712D01*
X7004378Y-68898307D01*
X6942465Y-68900217D01*
X6884983Y-68867632D01*
X6847739Y-68813455D01*
X6836676Y-68744254D01*
X6853783Y-68679354D01*
X6864063Y-68664378D01*
X6911071Y-68636771D01*
X6975754Y-68630611D01*
X7039993Y-68644741D01*
G36*
X7599045Y-68683624D02*
X7638097Y-68735701D01*
X7648166Y-68788169D01*
X7630717Y-68862423D01*
X7581584Y-68910542D01*
X7505588Y-68927832D01*
X7504825Y-68927833D01*
X7437159Y-68910698D01*
X7405950Y-68880790D01*
X7375897Y-68807989D01*
X7385484Y-68737867D01*
X7415333Y-68695000D01*
X7476170Y-68658675D01*
X7541238Y-68656416D01*
X7599045Y-68683624D01*
X7599045Y-68683624D01*
G37*
X7599045Y-68683624D02*
X7638097Y-68735701D01*
X7648166Y-68788169D01*
X7630717Y-68862423D01*
X7581584Y-68910542D01*
X7505588Y-68927832D01*
X7504825Y-68927833D01*
X7437159Y-68910698D01*
X7405950Y-68880790D01*
X7375897Y-68807989D01*
X7385484Y-68737867D01*
X7415333Y-68695000D01*
X7476170Y-68658675D01*
X7541238Y-68656416D01*
X7599045Y-68683624D01*
G36*
X7566854Y-69199424D02*
X7578619Y-69209047D01*
X7608558Y-69265679D01*
X7610122Y-69334362D01*
X7584529Y-69396872D01*
X7564682Y-69417965D01*
X7501313Y-69452572D01*
X7439798Y-69446986D01*
X7398876Y-69424050D01*
X7365378Y-69378725D01*
X7350999Y-69314607D01*
X7356895Y-69249817D01*
X7384223Y-69202473D01*
X7384711Y-69202064D01*
X7440097Y-69178866D01*
X7508048Y-69178247D01*
X7566854Y-69199424D01*
X7566854Y-69199424D01*
G37*
X7566854Y-69199424D02*
X7578619Y-69209047D01*
X7608558Y-69265679D01*
X7610122Y-69334362D01*
X7584529Y-69396872D01*
X7564682Y-69417965D01*
X7501313Y-69452572D01*
X7439798Y-69446986D01*
X7398876Y-69424050D01*
X7365378Y-69378725D01*
X7350999Y-69314607D01*
X7356895Y-69249817D01*
X7384223Y-69202473D01*
X7384711Y-69202064D01*
X7440097Y-69178866D01*
X7508048Y-69178247D01*
X7566854Y-69199424D01*
G36*
X7519985Y-69718849D02*
X7574330Y-69753606D01*
X7604833Y-69812703D01*
X7611071Y-69883124D01*
X7591903Y-69944644D01*
X7585602Y-69953289D01*
X7544338Y-69976144D01*
X7482575Y-69985427D01*
X7420149Y-69980424D01*
X7377233Y-69960767D01*
X7356041Y-69914592D01*
X7352639Y-69849962D01*
X7365825Y-69786255D01*
X7390541Y-69746030D01*
X7452408Y-69715111D01*
X7519985Y-69718849D01*
X7519985Y-69718849D01*
G37*
X7519985Y-69718849D02*
X7574330Y-69753606D01*
X7604833Y-69812703D01*
X7611071Y-69883124D01*
X7591903Y-69944644D01*
X7585602Y-69953289D01*
X7544338Y-69976144D01*
X7482575Y-69985427D01*
X7420149Y-69980424D01*
X7377233Y-69960767D01*
X7356041Y-69914592D01*
X7352639Y-69849962D01*
X7365825Y-69786255D01*
X7390541Y-69746030D01*
X7452408Y-69715111D01*
X7519985Y-69718849D01*
G36*
X7555863Y-70277327D02*
X7556884Y-70277963D01*
X7581906Y-70308009D01*
X7605556Y-70355855D01*
X7617862Y-70407878D01*
X7603010Y-70451410D01*
X7588912Y-70471841D01*
X7534973Y-70517094D01*
X7470807Y-70532964D01*
X7410689Y-70517535D01*
X7387793Y-70498819D01*
X7359253Y-70441931D01*
X7353911Y-70372969D01*
X7372027Y-70311714D01*
X7385095Y-70294595D01*
X7435087Y-70268858D01*
X7499981Y-70262330D01*
X7555863Y-70277327D01*
X7555863Y-70277327D01*
G37*
X7555863Y-70277327D02*
X7556884Y-70277963D01*
X7581906Y-70308009D01*
X7605556Y-70355855D01*
X7617862Y-70407878D01*
X7603010Y-70451410D01*
X7588912Y-70471841D01*
X7534973Y-70517094D01*
X7470807Y-70532964D01*
X7410689Y-70517535D01*
X7387793Y-70498819D01*
X7359253Y-70441931D01*
X7353911Y-70372969D01*
X7372027Y-70311714D01*
X7385095Y-70294595D01*
X7435087Y-70268858D01*
X7499981Y-70262330D01*
X7555863Y-70277327D01*
G36*
X7566854Y-70829257D02*
X7578619Y-70838881D01*
X7608558Y-70895512D01*
X7610122Y-70964195D01*
X7584529Y-71026705D01*
X7564682Y-71047798D01*
X7501313Y-71082405D01*
X7439798Y-71076819D01*
X7398876Y-71053883D01*
X7365378Y-71008558D01*
X7350999Y-70944441D01*
X7356895Y-70879650D01*
X7384223Y-70832306D01*
X7384711Y-70831897D01*
X7440097Y-70808700D01*
X7508048Y-70808080D01*
X7566854Y-70829257D01*
X7566854Y-70829257D01*
G37*
X7566854Y-70829257D02*
X7578619Y-70838881D01*
X7608558Y-70895512D01*
X7610122Y-70964195D01*
X7584529Y-71026705D01*
X7564682Y-71047798D01*
X7501313Y-71082405D01*
X7439798Y-71076819D01*
X7398876Y-71053883D01*
X7365378Y-71008558D01*
X7350999Y-70944441D01*
X7356895Y-70879650D01*
X7384223Y-70832306D01*
X7384711Y-70831897D01*
X7440097Y-70808700D01*
X7508048Y-70808080D01*
X7566854Y-70829257D01*
G36*
X7519985Y-71348682D02*
X7574330Y-71383440D01*
X7604833Y-71442536D01*
X7611071Y-71512957D01*
X7591903Y-71574477D01*
X7585602Y-71583122D01*
X7544338Y-71605978D01*
X7482575Y-71615260D01*
X7420149Y-71610257D01*
X7377233Y-71590600D01*
X7356041Y-71544426D01*
X7352639Y-71479796D01*
X7365825Y-71416088D01*
X7390541Y-71375864D01*
X7452408Y-71344944D01*
X7519985Y-71348682D01*
X7519985Y-71348682D01*
G37*
X7519985Y-71348682D02*
X7574330Y-71383440D01*
X7604833Y-71442536D01*
X7611071Y-71512957D01*
X7591903Y-71574477D01*
X7585602Y-71583122D01*
X7544338Y-71605978D01*
X7482575Y-71615260D01*
X7420149Y-71610257D01*
X7377233Y-71590600D01*
X7356041Y-71544426D01*
X7352639Y-71479796D01*
X7365825Y-71416088D01*
X7390541Y-71375864D01*
X7452408Y-71344944D01*
X7519985Y-71348682D01*
G36*
X7555863Y-71907160D02*
X7556884Y-71907796D01*
X7581906Y-71937843D01*
X7605556Y-71985688D01*
X7617862Y-72037711D01*
X7603010Y-72081244D01*
X7588912Y-72101674D01*
X7534973Y-72146927D01*
X7470807Y-72162797D01*
X7410689Y-72147369D01*
X7387793Y-72128652D01*
X7359253Y-72071764D01*
X7353911Y-72002802D01*
X7372027Y-71941547D01*
X7385095Y-71924428D01*
X7435087Y-71898691D01*
X7499981Y-71892163D01*
X7555863Y-71907160D01*
X7555863Y-71907160D01*
G37*
X7555863Y-71907160D02*
X7556884Y-71907796D01*
X7581906Y-71937843D01*
X7605556Y-71985688D01*
X7617862Y-72037711D01*
X7603010Y-72081244D01*
X7588912Y-72101674D01*
X7534973Y-72146927D01*
X7470807Y-72162797D01*
X7410689Y-72147369D01*
X7387793Y-72128652D01*
X7359253Y-72071764D01*
X7353911Y-72002802D01*
X7372027Y-71941547D01*
X7385095Y-71924428D01*
X7435087Y-71898691D01*
X7499981Y-71892163D01*
X7555863Y-71907160D01*
G36*
X7566854Y-72459090D02*
X7578619Y-72468714D01*
X7608558Y-72525346D01*
X7610122Y-72594028D01*
X7584529Y-72656539D01*
X7564682Y-72677632D01*
X7501313Y-72712238D01*
X7439798Y-72706652D01*
X7398876Y-72683716D01*
X7365378Y-72638391D01*
X7350999Y-72574274D01*
X7356895Y-72509484D01*
X7384223Y-72462139D01*
X7384711Y-72461730D01*
X7440097Y-72438533D01*
X7508048Y-72437914D01*
X7566854Y-72459090D01*
X7566854Y-72459090D01*
G37*
X7566854Y-72459090D02*
X7578619Y-72468714D01*
X7608558Y-72525346D01*
X7610122Y-72594028D01*
X7584529Y-72656539D01*
X7564682Y-72677632D01*
X7501313Y-72712238D01*
X7439798Y-72706652D01*
X7398876Y-72683716D01*
X7365378Y-72638391D01*
X7350999Y-72574274D01*
X7356895Y-72509484D01*
X7384223Y-72462139D01*
X7384711Y-72461730D01*
X7440097Y-72438533D01*
X7508048Y-72437914D01*
X7566854Y-72459090D01*
G36*
X7519985Y-72978516D02*
X7574330Y-73013273D01*
X7604833Y-73072369D01*
X7611071Y-73142791D01*
X7591903Y-73204310D01*
X7585602Y-73212955D01*
X7544338Y-73235811D01*
X7482575Y-73245093D01*
X7420149Y-73240090D01*
X7377233Y-73220433D01*
X7356041Y-73174259D01*
X7352639Y-73109629D01*
X7365825Y-73045922D01*
X7390541Y-73005697D01*
X7452408Y-72974777D01*
X7519985Y-72978516D01*
X7519985Y-72978516D01*
G37*
X7519985Y-72978516D02*
X7574330Y-73013273D01*
X7604833Y-73072369D01*
X7611071Y-73142791D01*
X7591903Y-73204310D01*
X7585602Y-73212955D01*
X7544338Y-73235811D01*
X7482575Y-73245093D01*
X7420149Y-73240090D01*
X7377233Y-73220433D01*
X7356041Y-73174259D01*
X7352639Y-73109629D01*
X7365825Y-73045922D01*
X7390541Y-73005697D01*
X7452408Y-72974777D01*
X7519985Y-72978516D01*
G36*
X7555863Y-73536993D02*
X7556884Y-73537630D01*
X7581906Y-73567676D01*
X7605556Y-73615522D01*
X7617862Y-73667545D01*
X7603010Y-73711077D01*
X7588912Y-73731507D01*
X7534973Y-73776760D01*
X7470807Y-73792630D01*
X7410689Y-73777202D01*
X7387793Y-73758485D01*
X7359253Y-73701598D01*
X7353911Y-73632635D01*
X7372027Y-73571381D01*
X7385095Y-73554262D01*
X7435087Y-73528525D01*
X7499981Y-73521997D01*
X7555863Y-73536993D01*
X7555863Y-73536993D01*
G37*
X7555863Y-73536993D02*
X7556884Y-73537630D01*
X7581906Y-73567676D01*
X7605556Y-73615522D01*
X7617862Y-73667545D01*
X7603010Y-73711077D01*
X7588912Y-73731507D01*
X7534973Y-73776760D01*
X7470807Y-73792630D01*
X7410689Y-73777202D01*
X7387793Y-73758485D01*
X7359253Y-73701598D01*
X7353911Y-73632635D01*
X7372027Y-73571381D01*
X7385095Y-73554262D01*
X7435087Y-73528525D01*
X7499981Y-73521997D01*
X7555863Y-73536993D01*
G36*
X7566854Y-74088924D02*
X7578619Y-74098547D01*
X7608558Y-74155179D01*
X7610122Y-74223862D01*
X7584529Y-74286372D01*
X7564682Y-74307465D01*
X7501313Y-74342072D01*
X7439798Y-74336486D01*
X7398876Y-74313550D01*
X7365378Y-74268225D01*
X7350999Y-74204107D01*
X7356895Y-74139317D01*
X7384223Y-74091973D01*
X7384711Y-74091564D01*
X7440097Y-74068366D01*
X7508048Y-74067747D01*
X7566854Y-74088924D01*
X7566854Y-74088924D01*
G37*
X7566854Y-74088924D02*
X7578619Y-74098547D01*
X7608558Y-74155179D01*
X7610122Y-74223862D01*
X7584529Y-74286372D01*
X7564682Y-74307465D01*
X7501313Y-74342072D01*
X7439798Y-74336486D01*
X7398876Y-74313550D01*
X7365378Y-74268225D01*
X7350999Y-74204107D01*
X7356895Y-74139317D01*
X7384223Y-74091973D01*
X7384711Y-74091564D01*
X7440097Y-74068366D01*
X7508048Y-74067747D01*
X7566854Y-74088924D01*
G36*
X7519985Y-74608349D02*
X7574330Y-74643106D01*
X7604833Y-74702203D01*
X7611071Y-74772624D01*
X7591903Y-74834144D01*
X7585602Y-74842789D01*
X7544338Y-74865644D01*
X7482575Y-74874927D01*
X7420149Y-74869924D01*
X7377233Y-74850267D01*
X7356041Y-74804092D01*
X7352639Y-74739462D01*
X7365825Y-74675755D01*
X7390541Y-74635530D01*
X7452408Y-74604611D01*
X7519985Y-74608349D01*
X7519985Y-74608349D01*
G37*
X7519985Y-74608349D02*
X7574330Y-74643106D01*
X7604833Y-74702203D01*
X7611071Y-74772624D01*
X7591903Y-74834144D01*
X7585602Y-74842789D01*
X7544338Y-74865644D01*
X7482575Y-74874927D01*
X7420149Y-74869924D01*
X7377233Y-74850267D01*
X7356041Y-74804092D01*
X7352639Y-74739462D01*
X7365825Y-74675755D01*
X7390541Y-74635530D01*
X7452408Y-74604611D01*
X7519985Y-74608349D01*
G36*
X7555863Y-75166827D02*
X7556884Y-75167463D01*
X7581906Y-75197509D01*
X7605556Y-75245355D01*
X7617862Y-75297378D01*
X7603010Y-75340910D01*
X7588912Y-75361341D01*
X7534973Y-75406594D01*
X7470807Y-75422464D01*
X7410689Y-75407035D01*
X7387793Y-75388319D01*
X7359253Y-75331431D01*
X7353911Y-75262469D01*
X7372027Y-75201214D01*
X7385095Y-75184095D01*
X7435087Y-75158358D01*
X7499981Y-75151830D01*
X7555863Y-75166827D01*
X7555863Y-75166827D01*
G37*
X7555863Y-75166827D02*
X7556884Y-75167463D01*
X7581906Y-75197509D01*
X7605556Y-75245355D01*
X7617862Y-75297378D01*
X7603010Y-75340910D01*
X7588912Y-75361341D01*
X7534973Y-75406594D01*
X7470807Y-75422464D01*
X7410689Y-75407035D01*
X7387793Y-75388319D01*
X7359253Y-75331431D01*
X7353911Y-75262469D01*
X7372027Y-75201214D01*
X7385095Y-75184095D01*
X7435087Y-75158358D01*
X7499981Y-75151830D01*
X7555863Y-75166827D01*
G36*
X7566854Y-75718757D02*
X7578619Y-75728381D01*
X7608558Y-75785012D01*
X7610122Y-75853695D01*
X7584529Y-75916205D01*
X7564682Y-75937298D01*
X7501313Y-75971905D01*
X7439798Y-75966319D01*
X7398876Y-75943383D01*
X7365378Y-75898058D01*
X7350999Y-75833941D01*
X7356895Y-75769150D01*
X7384223Y-75721806D01*
X7384711Y-75721397D01*
X7440097Y-75698200D01*
X7508048Y-75697580D01*
X7566854Y-75718757D01*
X7566854Y-75718757D01*
G37*
X7566854Y-75718757D02*
X7578619Y-75728381D01*
X7608558Y-75785012D01*
X7610122Y-75853695D01*
X7584529Y-75916205D01*
X7564682Y-75937298D01*
X7501313Y-75971905D01*
X7439798Y-75966319D01*
X7398876Y-75943383D01*
X7365378Y-75898058D01*
X7350999Y-75833941D01*
X7356895Y-75769150D01*
X7384223Y-75721806D01*
X7384711Y-75721397D01*
X7440097Y-75698200D01*
X7508048Y-75697580D01*
X7566854Y-75718757D01*
G36*
X7519985Y-76238182D02*
X7574330Y-76272940D01*
X7604833Y-76332036D01*
X7611071Y-76402457D01*
X7591903Y-76463977D01*
X7585602Y-76472622D01*
X7544338Y-76495478D01*
X7482575Y-76504760D01*
X7420149Y-76499757D01*
X7377233Y-76480100D01*
X7356041Y-76433926D01*
X7352639Y-76369296D01*
X7365825Y-76305588D01*
X7390541Y-76265364D01*
X7452408Y-76234444D01*
X7519985Y-76238182D01*
X7519985Y-76238182D01*
G37*
X7519985Y-76238182D02*
X7574330Y-76272940D01*
X7604833Y-76332036D01*
X7611071Y-76402457D01*
X7591903Y-76463977D01*
X7585602Y-76472622D01*
X7544338Y-76495478D01*
X7482575Y-76504760D01*
X7420149Y-76499757D01*
X7377233Y-76480100D01*
X7356041Y-76433926D01*
X7352639Y-76369296D01*
X7365825Y-76305588D01*
X7390541Y-76265364D01*
X7452408Y-76234444D01*
X7519985Y-76238182D01*
G36*
X7555863Y-76796660D02*
X7556884Y-76797296D01*
X7581906Y-76827343D01*
X7605556Y-76875188D01*
X7617862Y-76927211D01*
X7603010Y-76970744D01*
X7588912Y-76991174D01*
X7534973Y-77036427D01*
X7470807Y-77052297D01*
X7410689Y-77036869D01*
X7387793Y-77018152D01*
X7359253Y-76961264D01*
X7353911Y-76892302D01*
X7372027Y-76831047D01*
X7385095Y-76813928D01*
X7435087Y-76788191D01*
X7499981Y-76781663D01*
X7555863Y-76796660D01*
X7555863Y-76796660D01*
G37*
X7555863Y-76796660D02*
X7556884Y-76797296D01*
X7581906Y-76827343D01*
X7605556Y-76875188D01*
X7617862Y-76927211D01*
X7603010Y-76970744D01*
X7588912Y-76991174D01*
X7534973Y-77036427D01*
X7470807Y-77052297D01*
X7410689Y-77036869D01*
X7387793Y-77018152D01*
X7359253Y-76961264D01*
X7353911Y-76892302D01*
X7372027Y-76831047D01*
X7385095Y-76813928D01*
X7435087Y-76788191D01*
X7499981Y-76781663D01*
X7555863Y-76796660D01*
G36*
X7566854Y-77348590D02*
X7578619Y-77358214D01*
X7608558Y-77414846D01*
X7610122Y-77483528D01*
X7584529Y-77546039D01*
X7564682Y-77567132D01*
X7501313Y-77601738D01*
X7439798Y-77596152D01*
X7398876Y-77573216D01*
X7365378Y-77527891D01*
X7350999Y-77463774D01*
X7356895Y-77398984D01*
X7384223Y-77351639D01*
X7384711Y-77351230D01*
X7440097Y-77328033D01*
X7508048Y-77327414D01*
X7566854Y-77348590D01*
X7566854Y-77348590D01*
G37*
X7566854Y-77348590D02*
X7578619Y-77358214D01*
X7608558Y-77414846D01*
X7610122Y-77483528D01*
X7584529Y-77546039D01*
X7564682Y-77567132D01*
X7501313Y-77601738D01*
X7439798Y-77596152D01*
X7398876Y-77573216D01*
X7365378Y-77527891D01*
X7350999Y-77463774D01*
X7356895Y-77398984D01*
X7384223Y-77351639D01*
X7384711Y-77351230D01*
X7440097Y-77328033D01*
X7508048Y-77327414D01*
X7566854Y-77348590D01*
G36*
X7519985Y-77868016D02*
X7574330Y-77902773D01*
X7604833Y-77961869D01*
X7611071Y-78032291D01*
X7591903Y-78093810D01*
X7585602Y-78102455D01*
X7544338Y-78125311D01*
X7482575Y-78134593D01*
X7420149Y-78129590D01*
X7377233Y-78109933D01*
X7356041Y-78063759D01*
X7352639Y-77999129D01*
X7365825Y-77935422D01*
X7390541Y-77895197D01*
X7452408Y-77864277D01*
X7519985Y-77868016D01*
X7519985Y-77868016D01*
G37*
X7519985Y-77868016D02*
X7574330Y-77902773D01*
X7604833Y-77961869D01*
X7611071Y-78032291D01*
X7591903Y-78093810D01*
X7585602Y-78102455D01*
X7544338Y-78125311D01*
X7482575Y-78134593D01*
X7420149Y-78129590D01*
X7377233Y-78109933D01*
X7356041Y-78063759D01*
X7352639Y-77999129D01*
X7365825Y-77935422D01*
X7390541Y-77895197D01*
X7452408Y-77864277D01*
X7519985Y-77868016D01*
G36*
X7555863Y-78426493D02*
X7556884Y-78427130D01*
X7581906Y-78457176D01*
X7605556Y-78505022D01*
X7617862Y-78557045D01*
X7603010Y-78600577D01*
X7588912Y-78621007D01*
X7534973Y-78666260D01*
X7470807Y-78682130D01*
X7410689Y-78666702D01*
X7387793Y-78647985D01*
X7359253Y-78591098D01*
X7353911Y-78522135D01*
X7372027Y-78460881D01*
X7385095Y-78443762D01*
X7435087Y-78418025D01*
X7499981Y-78411497D01*
X7555863Y-78426493D01*
X7555863Y-78426493D01*
G37*
X7555863Y-78426493D02*
X7556884Y-78427130D01*
X7581906Y-78457176D01*
X7605556Y-78505022D01*
X7617862Y-78557045D01*
X7603010Y-78600577D01*
X7588912Y-78621007D01*
X7534973Y-78666260D01*
X7470807Y-78682130D01*
X7410689Y-78666702D01*
X7387793Y-78647985D01*
X7359253Y-78591098D01*
X7353911Y-78522135D01*
X7372027Y-78460881D01*
X7385095Y-78443762D01*
X7435087Y-78418025D01*
X7499981Y-78411497D01*
X7555863Y-78426493D01*
G36*
X7566854Y-78978424D02*
X7578619Y-78988047D01*
X7608558Y-79044679D01*
X7610122Y-79113362D01*
X7584529Y-79175872D01*
X7564682Y-79196965D01*
X7501313Y-79231572D01*
X7439798Y-79225986D01*
X7398876Y-79203050D01*
X7365378Y-79157725D01*
X7350999Y-79093607D01*
X7356895Y-79028817D01*
X7384223Y-78981473D01*
X7384711Y-78981064D01*
X7440097Y-78957866D01*
X7508048Y-78957247D01*
X7566854Y-78978424D01*
X7566854Y-78978424D01*
G37*
X7566854Y-78978424D02*
X7578619Y-78988047D01*
X7608558Y-79044679D01*
X7610122Y-79113362D01*
X7584529Y-79175872D01*
X7564682Y-79196965D01*
X7501313Y-79231572D01*
X7439798Y-79225986D01*
X7398876Y-79203050D01*
X7365378Y-79157725D01*
X7350999Y-79093607D01*
X7356895Y-79028817D01*
X7384223Y-78981473D01*
X7384711Y-78981064D01*
X7440097Y-78957866D01*
X7508048Y-78957247D01*
X7566854Y-78978424D01*
G36*
X7519985Y-79497849D02*
X7574330Y-79532606D01*
X7604833Y-79591703D01*
X7611071Y-79662124D01*
X7591903Y-79723644D01*
X7585602Y-79732289D01*
X7544338Y-79755144D01*
X7482575Y-79764427D01*
X7420149Y-79759424D01*
X7377233Y-79739767D01*
X7356041Y-79693592D01*
X7352639Y-79628962D01*
X7365825Y-79565255D01*
X7390541Y-79525030D01*
X7452408Y-79494111D01*
X7519985Y-79497849D01*
X7519985Y-79497849D01*
G37*
X7519985Y-79497849D02*
X7574330Y-79532606D01*
X7604833Y-79591703D01*
X7611071Y-79662124D01*
X7591903Y-79723644D01*
X7585602Y-79732289D01*
X7544338Y-79755144D01*
X7482575Y-79764427D01*
X7420149Y-79759424D01*
X7377233Y-79739767D01*
X7356041Y-79693592D01*
X7352639Y-79628962D01*
X7365825Y-79565255D01*
X7390541Y-79525030D01*
X7452408Y-79494111D01*
X7519985Y-79497849D01*
G36*
X7555863Y-80056327D02*
X7556884Y-80056963D01*
X7581906Y-80087009D01*
X7605556Y-80134855D01*
X7617862Y-80186878D01*
X7603010Y-80230410D01*
X7588912Y-80250841D01*
X7534973Y-80296094D01*
X7470807Y-80311964D01*
X7410689Y-80296535D01*
X7387793Y-80277819D01*
X7359253Y-80220931D01*
X7353911Y-80151969D01*
X7372027Y-80090714D01*
X7385095Y-80073595D01*
X7435087Y-80047858D01*
X7499981Y-80041330D01*
X7555863Y-80056327D01*
X7555863Y-80056327D01*
G37*
X7555863Y-80056327D02*
X7556884Y-80056963D01*
X7581906Y-80087009D01*
X7605556Y-80134855D01*
X7617862Y-80186878D01*
X7603010Y-80230410D01*
X7588912Y-80250841D01*
X7534973Y-80296094D01*
X7470807Y-80311964D01*
X7410689Y-80296535D01*
X7387793Y-80277819D01*
X7359253Y-80220931D01*
X7353911Y-80151969D01*
X7372027Y-80090714D01*
X7385095Y-80073595D01*
X7435087Y-80047858D01*
X7499981Y-80041330D01*
X7555863Y-80056327D01*
G36*
X7566854Y-80608257D02*
X7578619Y-80617881D01*
X7608558Y-80674512D01*
X7610122Y-80743195D01*
X7584529Y-80805705D01*
X7564682Y-80826798D01*
X7501313Y-80861405D01*
X7439798Y-80855819D01*
X7398876Y-80832883D01*
X7365378Y-80787558D01*
X7350999Y-80723441D01*
X7356895Y-80658650D01*
X7384223Y-80611306D01*
X7384711Y-80610897D01*
X7440097Y-80587700D01*
X7508048Y-80587080D01*
X7566854Y-80608257D01*
X7566854Y-80608257D01*
G37*
X7566854Y-80608257D02*
X7578619Y-80617881D01*
X7608558Y-80674512D01*
X7610122Y-80743195D01*
X7584529Y-80805705D01*
X7564682Y-80826798D01*
X7501313Y-80861405D01*
X7439798Y-80855819D01*
X7398876Y-80832883D01*
X7365378Y-80787558D01*
X7350999Y-80723441D01*
X7356895Y-80658650D01*
X7384223Y-80611306D01*
X7384711Y-80610897D01*
X7440097Y-80587700D01*
X7508048Y-80587080D01*
X7566854Y-80608257D01*
G36*
X7519985Y-81127682D02*
X7574330Y-81162440D01*
X7604833Y-81221536D01*
X7611071Y-81291957D01*
X7591903Y-81353477D01*
X7585602Y-81362122D01*
X7544338Y-81384978D01*
X7482575Y-81394260D01*
X7420149Y-81389257D01*
X7377233Y-81369600D01*
X7356041Y-81323426D01*
X7352639Y-81258796D01*
X7365825Y-81195088D01*
X7390541Y-81154864D01*
X7452408Y-81123944D01*
X7519985Y-81127682D01*
X7519985Y-81127682D01*
G37*
X7519985Y-81127682D02*
X7574330Y-81162440D01*
X7604833Y-81221536D01*
X7611071Y-81291957D01*
X7591903Y-81353477D01*
X7585602Y-81362122D01*
X7544338Y-81384978D01*
X7482575Y-81394260D01*
X7420149Y-81389257D01*
X7377233Y-81369600D01*
X7356041Y-81323426D01*
X7352639Y-81258796D01*
X7365825Y-81195088D01*
X7390541Y-81154864D01*
X7452408Y-81123944D01*
X7519985Y-81127682D01*
G36*
X7555863Y-81686160D02*
X7556884Y-81686796D01*
X7581906Y-81716843D01*
X7605556Y-81764688D01*
X7617862Y-81816711D01*
X7603010Y-81860244D01*
X7588912Y-81880674D01*
X7534973Y-81925927D01*
X7470807Y-81941797D01*
X7410689Y-81926369D01*
X7387793Y-81907652D01*
X7359253Y-81850764D01*
X7353911Y-81781802D01*
X7372027Y-81720547D01*
X7385095Y-81703428D01*
X7435087Y-81677691D01*
X7499981Y-81671163D01*
X7555863Y-81686160D01*
X7555863Y-81686160D01*
G37*
X7555863Y-81686160D02*
X7556884Y-81686796D01*
X7581906Y-81716843D01*
X7605556Y-81764688D01*
X7617862Y-81816711D01*
X7603010Y-81860244D01*
X7588912Y-81880674D01*
X7534973Y-81925927D01*
X7470807Y-81941797D01*
X7410689Y-81926369D01*
X7387793Y-81907652D01*
X7359253Y-81850764D01*
X7353911Y-81781802D01*
X7372027Y-81720547D01*
X7385095Y-81703428D01*
X7435087Y-81677691D01*
X7499981Y-81671163D01*
X7555863Y-81686160D01*
G36*
X7566854Y-82238090D02*
X7578619Y-82247714D01*
X7608558Y-82304346D01*
X7610122Y-82373028D01*
X7584529Y-82435539D01*
X7564682Y-82456632D01*
X7501313Y-82491238D01*
X7439798Y-82485652D01*
X7398876Y-82462716D01*
X7365378Y-82417391D01*
X7350999Y-82353274D01*
X7356895Y-82288484D01*
X7384223Y-82241139D01*
X7384711Y-82240730D01*
X7440097Y-82217533D01*
X7508048Y-82216914D01*
X7566854Y-82238090D01*
X7566854Y-82238090D01*
G37*
X7566854Y-82238090D02*
X7578619Y-82247714D01*
X7608558Y-82304346D01*
X7610122Y-82373028D01*
X7584529Y-82435539D01*
X7564682Y-82456632D01*
X7501313Y-82491238D01*
X7439798Y-82485652D01*
X7398876Y-82462716D01*
X7365378Y-82417391D01*
X7350999Y-82353274D01*
X7356895Y-82288484D01*
X7384223Y-82241139D01*
X7384711Y-82240730D01*
X7440097Y-82217533D01*
X7508048Y-82216914D01*
X7566854Y-82238090D01*
G36*
X7519985Y-82757516D02*
X7574330Y-82792273D01*
X7604833Y-82851369D01*
X7611071Y-82921791D01*
X7591903Y-82983310D01*
X7585602Y-82991955D01*
X7544338Y-83014811D01*
X7482575Y-83024093D01*
X7420149Y-83019090D01*
X7377233Y-82999433D01*
X7356041Y-82953259D01*
X7352639Y-82888629D01*
X7365825Y-82824922D01*
X7390541Y-82784697D01*
X7452408Y-82753777D01*
X7519985Y-82757516D01*
X7519985Y-82757516D01*
G37*
X7519985Y-82757516D02*
X7574330Y-82792273D01*
X7604833Y-82851369D01*
X7611071Y-82921791D01*
X7591903Y-82983310D01*
X7585602Y-82991955D01*
X7544338Y-83014811D01*
X7482575Y-83024093D01*
X7420149Y-83019090D01*
X7377233Y-82999433D01*
X7356041Y-82953259D01*
X7352639Y-82888629D01*
X7365825Y-82824922D01*
X7390541Y-82784697D01*
X7452408Y-82753777D01*
X7519985Y-82757516D01*
G36*
X7555863Y-83315993D02*
X7556884Y-83316630D01*
X7581906Y-83346676D01*
X7605556Y-83394522D01*
X7617862Y-83446545D01*
X7603010Y-83490077D01*
X7588912Y-83510507D01*
X7534973Y-83555760D01*
X7470807Y-83571630D01*
X7410689Y-83556202D01*
X7387793Y-83537485D01*
X7359253Y-83480598D01*
X7353911Y-83411635D01*
X7372027Y-83350381D01*
X7385095Y-83333262D01*
X7435087Y-83307525D01*
X7499981Y-83300997D01*
X7555863Y-83315993D01*
X7555863Y-83315993D01*
G37*
X7555863Y-83315993D02*
X7556884Y-83316630D01*
X7581906Y-83346676D01*
X7605556Y-83394522D01*
X7617862Y-83446545D01*
X7603010Y-83490077D01*
X7588912Y-83510507D01*
X7534973Y-83555760D01*
X7470807Y-83571630D01*
X7410689Y-83556202D01*
X7387793Y-83537485D01*
X7359253Y-83480598D01*
X7353911Y-83411635D01*
X7372027Y-83350381D01*
X7385095Y-83333262D01*
X7435087Y-83307525D01*
X7499981Y-83300997D01*
X7555863Y-83315993D01*
G36*
X7566854Y-83867924D02*
X7578619Y-83877547D01*
X7608558Y-83934179D01*
X7610122Y-84002862D01*
X7584529Y-84065372D01*
X7564682Y-84086465D01*
X7501313Y-84121072D01*
X7439798Y-84115486D01*
X7398876Y-84092550D01*
X7365378Y-84047225D01*
X7350999Y-83983107D01*
X7356895Y-83918317D01*
X7384223Y-83870973D01*
X7384711Y-83870564D01*
X7440097Y-83847366D01*
X7508048Y-83846747D01*
X7566854Y-83867924D01*
X7566854Y-83867924D01*
G37*
X7566854Y-83867924D02*
X7578619Y-83877547D01*
X7608558Y-83934179D01*
X7610122Y-84002862D01*
X7584529Y-84065372D01*
X7564682Y-84086465D01*
X7501313Y-84121072D01*
X7439798Y-84115486D01*
X7398876Y-84092550D01*
X7365378Y-84047225D01*
X7350999Y-83983107D01*
X7356895Y-83918317D01*
X7384223Y-83870973D01*
X7384711Y-83870564D01*
X7440097Y-83847366D01*
X7508048Y-83846747D01*
X7566854Y-83867924D01*
G36*
X7519985Y-84387349D02*
X7574330Y-84422106D01*
X7604833Y-84481203D01*
X7611071Y-84551624D01*
X7591903Y-84613144D01*
X7585602Y-84621789D01*
X7544338Y-84644644D01*
X7482575Y-84653927D01*
X7420149Y-84648924D01*
X7377233Y-84629267D01*
X7356041Y-84583092D01*
X7352639Y-84518462D01*
X7365825Y-84454755D01*
X7390541Y-84414530D01*
X7452408Y-84383611D01*
X7519985Y-84387349D01*
X7519985Y-84387349D01*
G37*
X7519985Y-84387349D02*
X7574330Y-84422106D01*
X7604833Y-84481203D01*
X7611071Y-84551624D01*
X7591903Y-84613144D01*
X7585602Y-84621789D01*
X7544338Y-84644644D01*
X7482575Y-84653927D01*
X7420149Y-84648924D01*
X7377233Y-84629267D01*
X7356041Y-84583092D01*
X7352639Y-84518462D01*
X7365825Y-84454755D01*
X7390541Y-84414530D01*
X7452408Y-84383611D01*
X7519985Y-84387349D01*
G36*
X7555863Y-84945827D02*
X7556884Y-84946463D01*
X7581906Y-84976509D01*
X7605556Y-85024355D01*
X7617862Y-85076378D01*
X7603010Y-85119910D01*
X7588912Y-85140341D01*
X7534973Y-85185594D01*
X7470807Y-85201464D01*
X7410689Y-85186035D01*
X7387793Y-85167319D01*
X7359253Y-85110431D01*
X7353911Y-85041469D01*
X7372027Y-84980214D01*
X7385095Y-84963095D01*
X7435087Y-84937358D01*
X7499981Y-84930830D01*
X7555863Y-84945827D01*
X7555863Y-84945827D01*
G37*
X7555863Y-84945827D02*
X7556884Y-84946463D01*
X7581906Y-84976509D01*
X7605556Y-85024355D01*
X7617862Y-85076378D01*
X7603010Y-85119910D01*
X7588912Y-85140341D01*
X7534973Y-85185594D01*
X7470807Y-85201464D01*
X7410689Y-85186035D01*
X7387793Y-85167319D01*
X7359253Y-85110431D01*
X7353911Y-85041469D01*
X7372027Y-84980214D01*
X7385095Y-84963095D01*
X7435087Y-84937358D01*
X7499981Y-84930830D01*
X7555863Y-84945827D01*
G36*
X7566854Y-85497757D02*
X7578619Y-85507381D01*
X7608558Y-85564012D01*
X7610122Y-85632695D01*
X7584529Y-85695205D01*
X7564682Y-85716298D01*
X7501313Y-85750905D01*
X7439798Y-85745319D01*
X7398876Y-85722383D01*
X7365378Y-85677058D01*
X7350999Y-85612941D01*
X7356895Y-85548150D01*
X7384223Y-85500806D01*
X7384711Y-85500397D01*
X7440097Y-85477200D01*
X7508048Y-85476580D01*
X7566854Y-85497757D01*
X7566854Y-85497757D01*
G37*
X7566854Y-85497757D02*
X7578619Y-85507381D01*
X7608558Y-85564012D01*
X7610122Y-85632695D01*
X7584529Y-85695205D01*
X7564682Y-85716298D01*
X7501313Y-85750905D01*
X7439798Y-85745319D01*
X7398876Y-85722383D01*
X7365378Y-85677058D01*
X7350999Y-85612941D01*
X7356895Y-85548150D01*
X7384223Y-85500806D01*
X7384711Y-85500397D01*
X7440097Y-85477200D01*
X7508048Y-85476580D01*
X7566854Y-85497757D01*
G36*
X7519985Y-86017182D02*
X7574330Y-86051940D01*
X7604833Y-86111036D01*
X7611071Y-86181457D01*
X7591903Y-86242977D01*
X7585602Y-86251622D01*
X7544338Y-86274478D01*
X7482575Y-86283760D01*
X7420149Y-86278757D01*
X7377233Y-86259100D01*
X7356041Y-86212926D01*
X7352639Y-86148296D01*
X7365825Y-86084588D01*
X7390541Y-86044364D01*
X7452408Y-86013444D01*
X7519985Y-86017182D01*
X7519985Y-86017182D01*
G37*
X7519985Y-86017182D02*
X7574330Y-86051940D01*
X7604833Y-86111036D01*
X7611071Y-86181457D01*
X7591903Y-86242977D01*
X7585602Y-86251622D01*
X7544338Y-86274478D01*
X7482575Y-86283760D01*
X7420149Y-86278757D01*
X7377233Y-86259100D01*
X7356041Y-86212926D01*
X7352639Y-86148296D01*
X7365825Y-86084588D01*
X7390541Y-86044364D01*
X7452408Y-86013444D01*
X7519985Y-86017182D01*
G36*
X7555863Y-86575660D02*
X7556884Y-86576296D01*
X7581906Y-86606343D01*
X7605556Y-86654188D01*
X7617862Y-86706211D01*
X7603010Y-86749744D01*
X7588912Y-86770174D01*
X7534973Y-86815427D01*
X7470807Y-86831297D01*
X7410689Y-86815869D01*
X7387793Y-86797152D01*
X7359253Y-86740264D01*
X7353911Y-86671302D01*
X7372027Y-86610047D01*
X7385095Y-86592928D01*
X7435087Y-86567191D01*
X7499981Y-86560663D01*
X7555863Y-86575660D01*
X7555863Y-86575660D01*
G37*
X7555863Y-86575660D02*
X7556884Y-86576296D01*
X7581906Y-86606343D01*
X7605556Y-86654188D01*
X7617862Y-86706211D01*
X7603010Y-86749744D01*
X7588912Y-86770174D01*
X7534973Y-86815427D01*
X7470807Y-86831297D01*
X7410689Y-86815869D01*
X7387793Y-86797152D01*
X7359253Y-86740264D01*
X7353911Y-86671302D01*
X7372027Y-86610047D01*
X7385095Y-86592928D01*
X7435087Y-86567191D01*
X7499981Y-86560663D01*
X7555863Y-86575660D01*
G36*
X7566854Y-87127590D02*
X7578619Y-87137214D01*
X7608558Y-87193846D01*
X7610122Y-87262528D01*
X7584529Y-87325039D01*
X7564682Y-87346132D01*
X7501313Y-87380738D01*
X7439798Y-87375152D01*
X7398876Y-87352216D01*
X7365378Y-87306891D01*
X7350999Y-87242774D01*
X7356895Y-87177984D01*
X7384223Y-87130639D01*
X7384711Y-87130230D01*
X7440097Y-87107033D01*
X7508048Y-87106414D01*
X7566854Y-87127590D01*
X7566854Y-87127590D01*
G37*
X7566854Y-87127590D02*
X7578619Y-87137214D01*
X7608558Y-87193846D01*
X7610122Y-87262528D01*
X7584529Y-87325039D01*
X7564682Y-87346132D01*
X7501313Y-87380738D01*
X7439798Y-87375152D01*
X7398876Y-87352216D01*
X7365378Y-87306891D01*
X7350999Y-87242774D01*
X7356895Y-87177984D01*
X7384223Y-87130639D01*
X7384711Y-87130230D01*
X7440097Y-87107033D01*
X7508048Y-87106414D01*
X7566854Y-87127590D01*
G36*
X7519985Y-87647016D02*
X7574330Y-87681773D01*
X7604833Y-87740869D01*
X7611071Y-87811291D01*
X7591903Y-87872810D01*
X7585602Y-87881455D01*
X7544338Y-87904311D01*
X7482575Y-87913593D01*
X7420149Y-87908590D01*
X7377233Y-87888933D01*
X7356041Y-87842759D01*
X7352639Y-87778129D01*
X7365825Y-87714422D01*
X7390541Y-87674197D01*
X7452408Y-87643277D01*
X7519985Y-87647016D01*
X7519985Y-87647016D01*
G37*
X7519985Y-87647016D02*
X7574330Y-87681773D01*
X7604833Y-87740869D01*
X7611071Y-87811291D01*
X7591903Y-87872810D01*
X7585602Y-87881455D01*
X7544338Y-87904311D01*
X7482575Y-87913593D01*
X7420149Y-87908590D01*
X7377233Y-87888933D01*
X7356041Y-87842759D01*
X7352639Y-87778129D01*
X7365825Y-87714422D01*
X7390541Y-87674197D01*
X7452408Y-87643277D01*
X7519985Y-87647016D01*
G36*
X7561509Y-88216204D02*
X7602806Y-88274748D01*
X7604283Y-88278818D01*
X7617085Y-88333127D01*
X7605563Y-88375046D01*
X7588430Y-88400654D01*
X7534094Y-88445982D01*
X7469505Y-88461059D01*
X7408829Y-88444149D01*
X7386391Y-88425437D01*
X7357844Y-88365338D01*
X7355723Y-88303087D01*
X7366569Y-88245093D01*
X7392642Y-88214036D01*
X7417652Y-88202720D01*
X7497820Y-88191391D01*
X7561509Y-88216204D01*
X7561509Y-88216204D01*
G37*
X7561509Y-88216204D02*
X7602806Y-88274748D01*
X7604283Y-88278818D01*
X7617085Y-88333127D01*
X7605563Y-88375046D01*
X7588430Y-88400654D01*
X7534094Y-88445982D01*
X7469505Y-88461059D01*
X7408829Y-88444149D01*
X7386391Y-88425437D01*
X7357844Y-88365338D01*
X7355723Y-88303087D01*
X7366569Y-88245093D01*
X7392642Y-88214036D01*
X7417652Y-88202720D01*
X7497820Y-88191391D01*
X7561509Y-88216204D01*
G36*
X7566854Y-88757424D02*
X7578619Y-88767047D01*
X7608558Y-88823679D01*
X7610122Y-88892362D01*
X7584529Y-88954872D01*
X7564682Y-88975965D01*
X7501313Y-89010572D01*
X7439798Y-89004986D01*
X7398876Y-88982050D01*
X7365378Y-88936725D01*
X7350999Y-88872607D01*
X7356895Y-88807817D01*
X7384223Y-88760473D01*
X7384711Y-88760064D01*
X7440097Y-88736866D01*
X7508048Y-88736247D01*
X7566854Y-88757424D01*
X7566854Y-88757424D01*
G37*
X7566854Y-88757424D02*
X7578619Y-88767047D01*
X7608558Y-88823679D01*
X7610122Y-88892362D01*
X7584529Y-88954872D01*
X7564682Y-88975965D01*
X7501313Y-89010572D01*
X7439798Y-89004986D01*
X7398876Y-88982050D01*
X7365378Y-88936725D01*
X7350999Y-88872607D01*
X7356895Y-88807817D01*
X7384223Y-88760473D01*
X7384711Y-88760064D01*
X7440097Y-88736866D01*
X7508048Y-88736247D01*
X7566854Y-88757424D01*
G36*
X7519985Y-89276849D02*
X7574330Y-89311606D01*
X7604833Y-89370703D01*
X7611071Y-89441124D01*
X7591903Y-89502644D01*
X7585602Y-89511289D01*
X7544338Y-89534144D01*
X7482575Y-89543427D01*
X7420149Y-89538424D01*
X7377233Y-89518767D01*
X7356041Y-89472592D01*
X7352639Y-89407962D01*
X7365825Y-89344255D01*
X7390541Y-89304030D01*
X7452408Y-89273111D01*
X7519985Y-89276849D01*
X7519985Y-89276849D01*
G37*
X7519985Y-89276849D02*
X7574330Y-89311606D01*
X7604833Y-89370703D01*
X7611071Y-89441124D01*
X7591903Y-89502644D01*
X7585602Y-89511289D01*
X7544338Y-89534144D01*
X7482575Y-89543427D01*
X7420149Y-89538424D01*
X7377233Y-89518767D01*
X7356041Y-89472592D01*
X7352639Y-89407962D01*
X7365825Y-89344255D01*
X7390541Y-89304030D01*
X7452408Y-89273111D01*
X7519985Y-89276849D01*
G36*
X7563577Y-89842852D02*
X7567499Y-89845792D01*
X7607451Y-89901787D01*
X7613379Y-89970346D01*
X7584160Y-90037397D01*
X7582892Y-90039030D01*
X7526730Y-90082892D01*
X7461839Y-90093488D01*
X7401769Y-90069660D01*
X7386863Y-90055791D01*
X7358941Y-89999446D01*
X7353966Y-89930707D01*
X7372114Y-89869619D01*
X7385095Y-89852595D01*
X7438065Y-89825374D01*
X7504832Y-89821855D01*
X7563577Y-89842852D01*
X7563577Y-89842852D01*
G37*
X7563577Y-89842852D02*
X7567499Y-89845792D01*
X7607451Y-89901787D01*
X7613379Y-89970346D01*
X7584160Y-90037397D01*
X7582892Y-90039030D01*
X7526730Y-90082892D01*
X7461839Y-90093488D01*
X7401769Y-90069660D01*
X7386863Y-90055791D01*
X7358941Y-89999446D01*
X7353966Y-89930707D01*
X7372114Y-89869619D01*
X7385095Y-89852595D01*
X7438065Y-89825374D01*
X7504832Y-89821855D01*
X7563577Y-89842852D01*
G36*
X7566854Y-90387257D02*
X7578619Y-90396881D01*
X7608558Y-90453512D01*
X7610122Y-90522195D01*
X7584529Y-90584705D01*
X7564682Y-90605798D01*
X7501313Y-90640405D01*
X7439798Y-90634819D01*
X7398876Y-90611883D01*
X7365378Y-90566558D01*
X7350999Y-90502441D01*
X7356895Y-90437650D01*
X7384223Y-90390306D01*
X7384711Y-90389897D01*
X7440097Y-90366700D01*
X7508048Y-90366080D01*
X7566854Y-90387257D01*
X7566854Y-90387257D01*
G37*
X7566854Y-90387257D02*
X7578619Y-90396881D01*
X7608558Y-90453512D01*
X7610122Y-90522195D01*
X7584529Y-90584705D01*
X7564682Y-90605798D01*
X7501313Y-90640405D01*
X7439798Y-90634819D01*
X7398876Y-90611883D01*
X7365378Y-90566558D01*
X7350999Y-90502441D01*
X7356895Y-90437650D01*
X7384223Y-90390306D01*
X7384711Y-90389897D01*
X7440097Y-90366700D01*
X7508048Y-90366080D01*
X7566854Y-90387257D01*
G36*
X7519985Y-90906682D02*
X7574330Y-90941440D01*
X7604833Y-91000536D01*
X7611071Y-91070957D01*
X7591903Y-91132477D01*
X7585602Y-91141122D01*
X7544338Y-91163978D01*
X7482575Y-91173260D01*
X7420149Y-91168257D01*
X7377233Y-91148600D01*
X7356041Y-91102426D01*
X7352639Y-91037796D01*
X7365825Y-90974088D01*
X7390541Y-90933864D01*
X7452408Y-90902944D01*
X7519985Y-90906682D01*
X7519985Y-90906682D01*
G37*
X7519985Y-90906682D02*
X7574330Y-90941440D01*
X7604833Y-91000536D01*
X7611071Y-91070957D01*
X7591903Y-91132477D01*
X7585602Y-91141122D01*
X7544338Y-91163978D01*
X7482575Y-91173260D01*
X7420149Y-91168257D01*
X7377233Y-91148600D01*
X7356041Y-91102426D01*
X7352639Y-91037796D01*
X7365825Y-90974088D01*
X7390541Y-90933864D01*
X7452408Y-90902944D01*
X7519985Y-90906682D01*
G36*
X7557737Y-91473562D02*
X7600419Y-91517918D01*
X7616690Y-91576831D01*
X7599680Y-91642097D01*
X7587693Y-91660833D01*
X7533817Y-91705830D01*
X7469367Y-91720708D01*
X7408728Y-91703734D01*
X7386391Y-91685103D01*
X7357844Y-91625005D01*
X7355723Y-91562753D01*
X7366293Y-91505249D01*
X7392076Y-91474249D01*
X7420625Y-91461341D01*
X7495515Y-91451968D01*
X7557737Y-91473562D01*
X7557737Y-91473562D01*
G37*
X7557737Y-91473562D02*
X7600419Y-91517918D01*
X7616690Y-91576831D01*
X7599680Y-91642097D01*
X7587693Y-91660833D01*
X7533817Y-91705830D01*
X7469367Y-91720708D01*
X7408728Y-91703734D01*
X7386391Y-91685103D01*
X7357844Y-91625005D01*
X7355723Y-91562753D01*
X7366293Y-91505249D01*
X7392076Y-91474249D01*
X7420625Y-91461341D01*
X7495515Y-91451968D01*
X7557737Y-91473562D01*
G36*
X7566854Y-92017090D02*
X7578619Y-92026714D01*
X7608558Y-92083346D01*
X7610122Y-92152028D01*
X7584529Y-92214539D01*
X7564682Y-92235632D01*
X7501313Y-92270238D01*
X7439798Y-92264652D01*
X7398876Y-92241716D01*
X7365378Y-92196391D01*
X7350999Y-92132274D01*
X7356895Y-92067484D01*
X7384223Y-92020139D01*
X7384711Y-92019730D01*
X7440097Y-91996533D01*
X7508048Y-91995914D01*
X7566854Y-92017090D01*
X7566854Y-92017090D01*
G37*
X7566854Y-92017090D02*
X7578619Y-92026714D01*
X7608558Y-92083346D01*
X7610122Y-92152028D01*
X7584529Y-92214539D01*
X7564682Y-92235632D01*
X7501313Y-92270238D01*
X7439798Y-92264652D01*
X7398876Y-92241716D01*
X7365378Y-92196391D01*
X7350999Y-92132274D01*
X7356895Y-92067484D01*
X7384223Y-92020139D01*
X7384711Y-92019730D01*
X7440097Y-91996533D01*
X7508048Y-91995914D01*
X7566854Y-92017090D01*
G36*
X7519985Y-92536516D02*
X7574330Y-92571273D01*
X7604833Y-92630369D01*
X7611071Y-92700791D01*
X7591903Y-92762310D01*
X7585602Y-92770955D01*
X7544338Y-92793811D01*
X7482575Y-92803093D01*
X7420149Y-92798090D01*
X7377233Y-92778433D01*
X7356041Y-92732259D01*
X7352639Y-92667629D01*
X7365825Y-92603922D01*
X7390541Y-92563697D01*
X7452408Y-92532777D01*
X7519985Y-92536516D01*
X7519985Y-92536516D01*
G37*
X7519985Y-92536516D02*
X7574330Y-92571273D01*
X7604833Y-92630369D01*
X7611071Y-92700791D01*
X7591903Y-92762310D01*
X7585602Y-92770955D01*
X7544338Y-92793811D01*
X7482575Y-92803093D01*
X7420149Y-92798090D01*
X7377233Y-92778433D01*
X7356041Y-92732259D01*
X7352639Y-92667629D01*
X7365825Y-92603922D01*
X7390541Y-92563697D01*
X7452408Y-92532777D01*
X7519985Y-92536516D01*
G36*
X7557737Y-93103395D02*
X7600419Y-93147751D01*
X7616690Y-93206664D01*
X7599680Y-93271930D01*
X7587693Y-93290667D01*
X7533817Y-93335663D01*
X7469367Y-93350542D01*
X7408728Y-93333567D01*
X7386391Y-93314937D01*
X7357844Y-93254838D01*
X7355723Y-93192587D01*
X7366293Y-93135083D01*
X7392076Y-93104082D01*
X7420625Y-93091174D01*
X7495515Y-93081801D01*
X7557737Y-93103395D01*
X7557737Y-93103395D01*
G37*
X7557737Y-93103395D02*
X7600419Y-93147751D01*
X7616690Y-93206664D01*
X7599680Y-93271930D01*
X7587693Y-93290667D01*
X7533817Y-93335663D01*
X7469367Y-93350542D01*
X7408728Y-93333567D01*
X7386391Y-93314937D01*
X7357844Y-93254838D01*
X7355723Y-93192587D01*
X7366293Y-93135083D01*
X7392076Y-93104082D01*
X7420625Y-93091174D01*
X7495515Y-93081801D01*
X7557737Y-93103395D01*
G36*
X7566854Y-93646924D02*
X7578619Y-93656547D01*
X7608558Y-93713179D01*
X7610122Y-93781862D01*
X7584529Y-93844372D01*
X7564682Y-93865465D01*
X7501313Y-93900072D01*
X7439798Y-93894486D01*
X7398876Y-93871550D01*
X7365378Y-93826225D01*
X7350999Y-93762107D01*
X7356895Y-93697317D01*
X7384223Y-93649973D01*
X7384711Y-93649564D01*
X7440097Y-93626366D01*
X7508048Y-93625747D01*
X7566854Y-93646924D01*
X7566854Y-93646924D01*
G37*
X7566854Y-93646924D02*
X7578619Y-93656547D01*
X7608558Y-93713179D01*
X7610122Y-93781862D01*
X7584529Y-93844372D01*
X7564682Y-93865465D01*
X7501313Y-93900072D01*
X7439798Y-93894486D01*
X7398876Y-93871550D01*
X7365378Y-93826225D01*
X7350999Y-93762107D01*
X7356895Y-93697317D01*
X7384223Y-93649973D01*
X7384711Y-93649564D01*
X7440097Y-93626366D01*
X7508048Y-93625747D01*
X7566854Y-93646924D01*
G36*
X7519985Y-94166349D02*
X7574330Y-94201106D01*
X7604833Y-94260203D01*
X7611071Y-94330624D01*
X7591903Y-94392144D01*
X7585602Y-94400789D01*
X7544338Y-94423644D01*
X7482575Y-94432927D01*
X7420149Y-94427924D01*
X7377233Y-94408267D01*
X7356041Y-94362092D01*
X7352639Y-94297462D01*
X7365825Y-94233755D01*
X7390541Y-94193530D01*
X7452408Y-94162611D01*
X7519985Y-94166349D01*
X7519985Y-94166349D01*
G37*
X7519985Y-94166349D02*
X7574330Y-94201106D01*
X7604833Y-94260203D01*
X7611071Y-94330624D01*
X7591903Y-94392144D01*
X7585602Y-94400789D01*
X7544338Y-94423644D01*
X7482575Y-94432927D01*
X7420149Y-94427924D01*
X7377233Y-94408267D01*
X7356041Y-94362092D01*
X7352639Y-94297462D01*
X7365825Y-94233755D01*
X7390541Y-94193530D01*
X7452408Y-94162611D01*
X7519985Y-94166349D01*
G36*
X7557737Y-94733229D02*
X7600419Y-94777585D01*
X7616690Y-94836498D01*
X7599680Y-94901763D01*
X7587693Y-94920500D01*
X7533817Y-94965497D01*
X7469367Y-94980375D01*
X7408728Y-94963401D01*
X7386391Y-94944770D01*
X7357844Y-94884671D01*
X7355723Y-94822420D01*
X7366293Y-94764916D01*
X7392076Y-94733915D01*
X7420625Y-94721008D01*
X7495515Y-94711635D01*
X7557737Y-94733229D01*
X7557737Y-94733229D01*
G37*
X7557737Y-94733229D02*
X7600419Y-94777585D01*
X7616690Y-94836498D01*
X7599680Y-94901763D01*
X7587693Y-94920500D01*
X7533817Y-94965497D01*
X7469367Y-94980375D01*
X7408728Y-94963401D01*
X7386391Y-94944770D01*
X7357844Y-94884671D01*
X7355723Y-94822420D01*
X7366293Y-94764916D01*
X7392076Y-94733915D01*
X7420625Y-94721008D01*
X7495515Y-94711635D01*
X7557737Y-94733229D01*
G36*
X7566854Y-95276757D02*
X7578619Y-95286381D01*
X7608558Y-95343012D01*
X7610122Y-95411695D01*
X7584529Y-95474205D01*
X7564682Y-95495298D01*
X7501313Y-95529905D01*
X7439798Y-95524319D01*
X7398876Y-95501383D01*
X7365378Y-95456058D01*
X7350999Y-95391941D01*
X7356895Y-95327150D01*
X7384223Y-95279806D01*
X7384711Y-95279397D01*
X7440097Y-95256200D01*
X7508048Y-95255580D01*
X7566854Y-95276757D01*
X7566854Y-95276757D01*
G37*
X7566854Y-95276757D02*
X7578619Y-95286381D01*
X7608558Y-95343012D01*
X7610122Y-95411695D01*
X7584529Y-95474205D01*
X7564682Y-95495298D01*
X7501313Y-95529905D01*
X7439798Y-95524319D01*
X7398876Y-95501383D01*
X7365378Y-95456058D01*
X7350999Y-95391941D01*
X7356895Y-95327150D01*
X7384223Y-95279806D01*
X7384711Y-95279397D01*
X7440097Y-95256200D01*
X7508048Y-95255580D01*
X7566854Y-95276757D01*
G36*
X7519985Y-95796182D02*
X7574330Y-95830940D01*
X7604833Y-95890036D01*
X7611071Y-95960457D01*
X7591903Y-96021977D01*
X7585602Y-96030622D01*
X7544338Y-96053478D01*
X7482575Y-96062760D01*
X7420149Y-96057757D01*
X7377233Y-96038100D01*
X7356041Y-95991926D01*
X7352639Y-95927296D01*
X7365825Y-95863588D01*
X7390541Y-95823364D01*
X7452408Y-95792444D01*
X7519985Y-95796182D01*
X7519985Y-95796182D01*
G37*
X7519985Y-95796182D02*
X7574330Y-95830940D01*
X7604833Y-95890036D01*
X7611071Y-95960457D01*
X7591903Y-96021977D01*
X7585602Y-96030622D01*
X7544338Y-96053478D01*
X7482575Y-96062760D01*
X7420149Y-96057757D01*
X7377233Y-96038100D01*
X7356041Y-95991926D01*
X7352639Y-95927296D01*
X7365825Y-95863588D01*
X7390541Y-95823364D01*
X7452408Y-95792444D01*
X7519985Y-95796182D01*
G36*
X7557737Y-96363062D02*
X7600419Y-96407418D01*
X7616690Y-96466331D01*
X7599680Y-96531597D01*
X7587693Y-96550333D01*
X7533817Y-96595330D01*
X7469367Y-96610208D01*
X7408728Y-96593234D01*
X7386391Y-96574603D01*
X7357844Y-96514505D01*
X7355723Y-96452253D01*
X7366293Y-96394749D01*
X7392076Y-96363749D01*
X7420625Y-96350841D01*
X7495515Y-96341468D01*
X7557737Y-96363062D01*
X7557737Y-96363062D01*
G37*
X7557737Y-96363062D02*
X7600419Y-96407418D01*
X7616690Y-96466331D01*
X7599680Y-96531597D01*
X7587693Y-96550333D01*
X7533817Y-96595330D01*
X7469367Y-96610208D01*
X7408728Y-96593234D01*
X7386391Y-96574603D01*
X7357844Y-96514505D01*
X7355723Y-96452253D01*
X7366293Y-96394749D01*
X7392076Y-96363749D01*
X7420625Y-96350841D01*
X7495515Y-96341468D01*
X7557737Y-96363062D01*
G36*
X7566854Y-96906590D02*
X7578619Y-96916214D01*
X7608558Y-96972846D01*
X7610122Y-97041528D01*
X7584529Y-97104039D01*
X7564682Y-97125132D01*
X7501313Y-97159738D01*
X7439798Y-97154152D01*
X7398876Y-97131216D01*
X7365378Y-97085891D01*
X7350999Y-97021774D01*
X7356895Y-96956984D01*
X7384223Y-96909639D01*
X7384711Y-96909230D01*
X7440097Y-96886033D01*
X7508048Y-96885414D01*
X7566854Y-96906590D01*
X7566854Y-96906590D01*
G37*
X7566854Y-96906590D02*
X7578619Y-96916214D01*
X7608558Y-96972846D01*
X7610122Y-97041528D01*
X7584529Y-97104039D01*
X7564682Y-97125132D01*
X7501313Y-97159738D01*
X7439798Y-97154152D01*
X7398876Y-97131216D01*
X7365378Y-97085891D01*
X7350999Y-97021774D01*
X7356895Y-96956984D01*
X7384223Y-96909639D01*
X7384711Y-96909230D01*
X7440097Y-96886033D01*
X7508048Y-96885414D01*
X7566854Y-96906590D01*
G36*
X7519985Y-97426016D02*
X7574330Y-97460773D01*
X7604833Y-97519869D01*
X7611071Y-97590291D01*
X7591903Y-97651810D01*
X7585602Y-97660455D01*
X7544338Y-97683311D01*
X7482575Y-97692593D01*
X7420149Y-97687590D01*
X7377233Y-97667933D01*
X7356041Y-97621759D01*
X7352639Y-97557129D01*
X7365825Y-97493422D01*
X7390541Y-97453197D01*
X7452408Y-97422277D01*
X7519985Y-97426016D01*
X7519985Y-97426016D01*
G37*
X7519985Y-97426016D02*
X7574330Y-97460773D01*
X7604833Y-97519869D01*
X7611071Y-97590291D01*
X7591903Y-97651810D01*
X7585602Y-97660455D01*
X7544338Y-97683311D01*
X7482575Y-97692593D01*
X7420149Y-97687590D01*
X7377233Y-97667933D01*
X7356041Y-97621759D01*
X7352639Y-97557129D01*
X7365825Y-97493422D01*
X7390541Y-97453197D01*
X7452408Y-97422277D01*
X7519985Y-97426016D01*
G36*
X7557737Y-97992895D02*
X7600419Y-98037251D01*
X7616690Y-98096164D01*
X7599680Y-98161430D01*
X7587693Y-98180167D01*
X7533817Y-98225163D01*
X7469367Y-98240042D01*
X7408728Y-98223067D01*
X7386391Y-98204437D01*
X7357844Y-98144338D01*
X7355723Y-98082087D01*
X7366293Y-98024583D01*
X7392076Y-97993582D01*
X7420625Y-97980674D01*
X7495515Y-97971301D01*
X7557737Y-97992895D01*
X7557737Y-97992895D01*
G37*
X7557737Y-97992895D02*
X7600419Y-98037251D01*
X7616690Y-98096164D01*
X7599680Y-98161430D01*
X7587693Y-98180167D01*
X7533817Y-98225163D01*
X7469367Y-98240042D01*
X7408728Y-98223067D01*
X7386391Y-98204437D01*
X7357844Y-98144338D01*
X7355723Y-98082087D01*
X7366293Y-98024583D01*
X7392076Y-97993582D01*
X7420625Y-97980674D01*
X7495515Y-97971301D01*
X7557737Y-97992895D01*
G36*
X7566854Y-98536424D02*
X7578619Y-98546047D01*
X7608558Y-98602679D01*
X7610122Y-98671362D01*
X7584529Y-98733872D01*
X7564682Y-98754965D01*
X7501313Y-98789572D01*
X7439798Y-98783986D01*
X7398876Y-98761050D01*
X7365378Y-98715725D01*
X7350999Y-98651607D01*
X7356895Y-98586817D01*
X7384223Y-98539473D01*
X7384711Y-98539064D01*
X7440097Y-98515866D01*
X7508048Y-98515247D01*
X7566854Y-98536424D01*
X7566854Y-98536424D01*
G37*
X7566854Y-98536424D02*
X7578619Y-98546047D01*
X7608558Y-98602679D01*
X7610122Y-98671362D01*
X7584529Y-98733872D01*
X7564682Y-98754965D01*
X7501313Y-98789572D01*
X7439798Y-98783986D01*
X7398876Y-98761050D01*
X7365378Y-98715725D01*
X7350999Y-98651607D01*
X7356895Y-98586817D01*
X7384223Y-98539473D01*
X7384711Y-98539064D01*
X7440097Y-98515866D01*
X7508048Y-98515247D01*
X7566854Y-98536424D01*
G36*
X7519985Y-99055849D02*
X7574330Y-99090606D01*
X7604833Y-99149703D01*
X7611071Y-99220124D01*
X7591903Y-99281644D01*
X7585602Y-99290289D01*
X7544338Y-99313144D01*
X7482575Y-99322427D01*
X7420149Y-99317424D01*
X7377233Y-99297767D01*
X7356041Y-99251592D01*
X7352639Y-99186962D01*
X7365825Y-99123255D01*
X7390541Y-99083030D01*
X7452408Y-99052111D01*
X7519985Y-99055849D01*
X7519985Y-99055849D01*
G37*
X7519985Y-99055849D02*
X7574330Y-99090606D01*
X7604833Y-99149703D01*
X7611071Y-99220124D01*
X7591903Y-99281644D01*
X7585602Y-99290289D01*
X7544338Y-99313144D01*
X7482575Y-99322427D01*
X7420149Y-99317424D01*
X7377233Y-99297767D01*
X7356041Y-99251592D01*
X7352639Y-99186962D01*
X7365825Y-99123255D01*
X7390541Y-99083030D01*
X7452408Y-99052111D01*
X7519985Y-99055849D01*
G36*
X7557737Y-99622729D02*
X7600419Y-99667085D01*
X7616690Y-99725998D01*
X7599680Y-99791263D01*
X7587693Y-99810000D01*
X7533817Y-99854997D01*
X7469367Y-99869875D01*
X7408728Y-99852901D01*
X7386391Y-99834270D01*
X7357844Y-99774171D01*
X7355723Y-99711920D01*
X7366293Y-99654416D01*
X7392076Y-99623415D01*
X7420625Y-99610508D01*
X7495515Y-99601135D01*
X7557737Y-99622729D01*
X7557737Y-99622729D01*
G37*
X7557737Y-99622729D02*
X7600419Y-99667085D01*
X7616690Y-99725998D01*
X7599680Y-99791263D01*
X7587693Y-99810000D01*
X7533817Y-99854997D01*
X7469367Y-99869875D01*
X7408728Y-99852901D01*
X7386391Y-99834270D01*
X7357844Y-99774171D01*
X7355723Y-99711920D01*
X7366293Y-99654416D01*
X7392076Y-99623415D01*
X7420625Y-99610508D01*
X7495515Y-99601135D01*
X7557737Y-99622729D01*
G36*
X7566854Y-100166257D02*
X7578619Y-100175881D01*
X7608558Y-100232512D01*
X7610122Y-100301195D01*
X7584529Y-100363705D01*
X7564682Y-100384798D01*
X7501313Y-100419405D01*
X7439798Y-100413819D01*
X7398876Y-100390883D01*
X7365378Y-100345558D01*
X7350999Y-100281441D01*
X7356895Y-100216650D01*
X7384223Y-100169306D01*
X7384711Y-100168897D01*
X7440097Y-100145700D01*
X7508048Y-100145080D01*
X7566854Y-100166257D01*
X7566854Y-100166257D01*
G37*
X7566854Y-100166257D02*
X7578619Y-100175881D01*
X7608558Y-100232512D01*
X7610122Y-100301195D01*
X7584529Y-100363705D01*
X7564682Y-100384798D01*
X7501313Y-100419405D01*
X7439798Y-100413819D01*
X7398876Y-100390883D01*
X7365378Y-100345558D01*
X7350999Y-100281441D01*
X7356895Y-100216650D01*
X7384223Y-100169306D01*
X7384711Y-100168897D01*
X7440097Y-100145700D01*
X7508048Y-100145080D01*
X7566854Y-100166257D01*
G36*
X7519985Y-100685682D02*
X7574330Y-100720440D01*
X7604833Y-100779536D01*
X7611071Y-100849957D01*
X7591903Y-100911477D01*
X7585602Y-100920122D01*
X7544338Y-100942978D01*
X7482575Y-100952260D01*
X7420149Y-100947257D01*
X7377233Y-100927600D01*
X7356041Y-100881426D01*
X7352639Y-100816796D01*
X7365825Y-100753088D01*
X7390541Y-100712864D01*
X7452408Y-100681944D01*
X7519985Y-100685682D01*
X7519985Y-100685682D01*
G37*
X7519985Y-100685682D02*
X7574330Y-100720440D01*
X7604833Y-100779536D01*
X7611071Y-100849957D01*
X7591903Y-100911477D01*
X7585602Y-100920122D01*
X7544338Y-100942978D01*
X7482575Y-100952260D01*
X7420149Y-100947257D01*
X7377233Y-100927600D01*
X7356041Y-100881426D01*
X7352639Y-100816796D01*
X7365825Y-100753088D01*
X7390541Y-100712864D01*
X7452408Y-100681944D01*
X7519985Y-100685682D01*
G36*
X7557737Y-101252562D02*
X7600419Y-101296918D01*
X7616690Y-101355831D01*
X7599680Y-101421097D01*
X7587693Y-101439833D01*
X7533817Y-101484830D01*
X7469367Y-101499708D01*
X7408728Y-101482734D01*
X7386391Y-101464103D01*
X7357844Y-101404005D01*
X7355723Y-101341753D01*
X7366293Y-101284249D01*
X7392076Y-101253249D01*
X7420625Y-101240341D01*
X7495515Y-101230968D01*
X7557737Y-101252562D01*
X7557737Y-101252562D01*
G37*
X7557737Y-101252562D02*
X7600419Y-101296918D01*
X7616690Y-101355831D01*
X7599680Y-101421097D01*
X7587693Y-101439833D01*
X7533817Y-101484830D01*
X7469367Y-101499708D01*
X7408728Y-101482734D01*
X7386391Y-101464103D01*
X7357844Y-101404005D01*
X7355723Y-101341753D01*
X7366293Y-101284249D01*
X7392076Y-101253249D01*
X7420625Y-101240341D01*
X7495515Y-101230968D01*
X7557737Y-101252562D01*
G36*
X7566854Y-101796090D02*
X7578619Y-101805714D01*
X7608558Y-101862346D01*
X7610122Y-101931028D01*
X7584529Y-101993539D01*
X7564682Y-102014632D01*
X7501313Y-102049238D01*
X7439798Y-102043652D01*
X7398876Y-102020716D01*
X7365378Y-101975391D01*
X7350999Y-101911274D01*
X7356895Y-101846484D01*
X7384223Y-101799139D01*
X7384711Y-101798730D01*
X7440097Y-101775533D01*
X7508048Y-101774914D01*
X7566854Y-101796090D01*
X7566854Y-101796090D01*
G37*
X7566854Y-101796090D02*
X7578619Y-101805714D01*
X7608558Y-101862346D01*
X7610122Y-101931028D01*
X7584529Y-101993539D01*
X7564682Y-102014632D01*
X7501313Y-102049238D01*
X7439798Y-102043652D01*
X7398876Y-102020716D01*
X7365378Y-101975391D01*
X7350999Y-101911274D01*
X7356895Y-101846484D01*
X7384223Y-101799139D01*
X7384711Y-101798730D01*
X7440097Y-101775533D01*
X7508048Y-101774914D01*
X7566854Y-101796090D01*
G36*
X7519985Y-102315516D02*
X7574330Y-102350273D01*
X7604833Y-102409369D01*
X7611071Y-102479791D01*
X7591903Y-102541310D01*
X7585602Y-102549955D01*
X7544338Y-102572811D01*
X7482575Y-102582093D01*
X7420149Y-102577090D01*
X7377233Y-102557433D01*
X7356041Y-102511259D01*
X7352639Y-102446629D01*
X7365825Y-102382922D01*
X7390541Y-102342697D01*
X7452408Y-102311777D01*
X7519985Y-102315516D01*
X7519985Y-102315516D01*
G37*
X7519985Y-102315516D02*
X7574330Y-102350273D01*
X7604833Y-102409369D01*
X7611071Y-102479791D01*
X7591903Y-102541310D01*
X7585602Y-102549955D01*
X7544338Y-102572811D01*
X7482575Y-102582093D01*
X7420149Y-102577090D01*
X7377233Y-102557433D01*
X7356041Y-102511259D01*
X7352639Y-102446629D01*
X7365825Y-102382922D01*
X7390541Y-102342697D01*
X7452408Y-102311777D01*
X7519985Y-102315516D01*
G36*
X7557737Y-102882395D02*
X7600419Y-102926751D01*
X7616690Y-102985664D01*
X7599680Y-103050930D01*
X7587693Y-103069667D01*
X7533817Y-103114663D01*
X7469367Y-103129542D01*
X7408728Y-103112567D01*
X7386391Y-103093937D01*
X7357844Y-103033838D01*
X7355723Y-102971587D01*
X7366293Y-102914083D01*
X7392076Y-102883082D01*
X7420625Y-102870174D01*
X7495515Y-102860801D01*
X7557737Y-102882395D01*
X7557737Y-102882395D01*
G37*
X7557737Y-102882395D02*
X7600419Y-102926751D01*
X7616690Y-102985664D01*
X7599680Y-103050930D01*
X7587693Y-103069667D01*
X7533817Y-103114663D01*
X7469367Y-103129542D01*
X7408728Y-103112567D01*
X7386391Y-103093937D01*
X7357844Y-103033838D01*
X7355723Y-102971587D01*
X7366293Y-102914083D01*
X7392076Y-102883082D01*
X7420625Y-102870174D01*
X7495515Y-102860801D01*
X7557737Y-102882395D01*
G36*
X7566854Y-103425924D02*
X7578619Y-103435547D01*
X7608558Y-103492179D01*
X7610122Y-103560862D01*
X7584529Y-103623372D01*
X7564682Y-103644465D01*
X7501313Y-103679072D01*
X7439798Y-103673486D01*
X7398876Y-103650550D01*
X7365378Y-103605225D01*
X7350999Y-103541107D01*
X7356895Y-103476317D01*
X7384223Y-103428973D01*
X7384711Y-103428564D01*
X7440097Y-103405366D01*
X7508048Y-103404747D01*
X7566854Y-103425924D01*
X7566854Y-103425924D01*
G37*
X7566854Y-103425924D02*
X7578619Y-103435547D01*
X7608558Y-103492179D01*
X7610122Y-103560862D01*
X7584529Y-103623372D01*
X7564682Y-103644465D01*
X7501313Y-103679072D01*
X7439798Y-103673486D01*
X7398876Y-103650550D01*
X7365378Y-103605225D01*
X7350999Y-103541107D01*
X7356895Y-103476317D01*
X7384223Y-103428973D01*
X7384711Y-103428564D01*
X7440097Y-103405366D01*
X7508048Y-103404747D01*
X7566854Y-103425924D01*
G36*
X7519985Y-103945349D02*
X7574330Y-103980106D01*
X7604833Y-104039203D01*
X7611071Y-104109624D01*
X7591903Y-104171144D01*
X7585602Y-104179789D01*
X7544338Y-104202644D01*
X7482575Y-104211927D01*
X7420149Y-104206924D01*
X7377233Y-104187267D01*
X7356041Y-104141092D01*
X7352639Y-104076462D01*
X7365825Y-104012755D01*
X7390541Y-103972530D01*
X7452408Y-103941611D01*
X7519985Y-103945349D01*
X7519985Y-103945349D01*
G37*
X7519985Y-103945349D02*
X7574330Y-103980106D01*
X7604833Y-104039203D01*
X7611071Y-104109624D01*
X7591903Y-104171144D01*
X7585602Y-104179789D01*
X7544338Y-104202644D01*
X7482575Y-104211927D01*
X7420149Y-104206924D01*
X7377233Y-104187267D01*
X7356041Y-104141092D01*
X7352639Y-104076462D01*
X7365825Y-104012755D01*
X7390541Y-103972530D01*
X7452408Y-103941611D01*
X7519985Y-103945349D01*
G36*
X7557737Y-104512229D02*
X7600419Y-104556585D01*
X7616690Y-104615498D01*
X7599680Y-104680763D01*
X7587693Y-104699500D01*
X7533817Y-104744497D01*
X7469367Y-104759375D01*
X7408728Y-104742401D01*
X7386391Y-104723770D01*
X7357844Y-104663671D01*
X7355723Y-104601420D01*
X7366293Y-104543916D01*
X7392076Y-104512915D01*
X7420625Y-104500008D01*
X7495515Y-104490635D01*
X7557737Y-104512229D01*
X7557737Y-104512229D01*
G37*
X7557737Y-104512229D02*
X7600419Y-104556585D01*
X7616690Y-104615498D01*
X7599680Y-104680763D01*
X7587693Y-104699500D01*
X7533817Y-104744497D01*
X7469367Y-104759375D01*
X7408728Y-104742401D01*
X7386391Y-104723770D01*
X7357844Y-104663671D01*
X7355723Y-104601420D01*
X7366293Y-104543916D01*
X7392076Y-104512915D01*
X7420625Y-104500008D01*
X7495515Y-104490635D01*
X7557737Y-104512229D01*
G36*
X7566854Y-105055757D02*
X7578619Y-105065381D01*
X7608558Y-105122012D01*
X7610122Y-105190695D01*
X7584529Y-105253205D01*
X7564682Y-105274298D01*
X7501313Y-105308905D01*
X7439798Y-105303319D01*
X7398876Y-105280383D01*
X7365378Y-105235058D01*
X7350999Y-105170941D01*
X7356895Y-105106150D01*
X7384223Y-105058806D01*
X7384711Y-105058397D01*
X7440097Y-105035200D01*
X7508048Y-105034580D01*
X7566854Y-105055757D01*
X7566854Y-105055757D01*
G37*
X7566854Y-105055757D02*
X7578619Y-105065381D01*
X7608558Y-105122012D01*
X7610122Y-105190695D01*
X7584529Y-105253205D01*
X7564682Y-105274298D01*
X7501313Y-105308905D01*
X7439798Y-105303319D01*
X7398876Y-105280383D01*
X7365378Y-105235058D01*
X7350999Y-105170941D01*
X7356895Y-105106150D01*
X7384223Y-105058806D01*
X7384711Y-105058397D01*
X7440097Y-105035200D01*
X7508048Y-105034580D01*
X7566854Y-105055757D01*
G36*
X7519985Y-105575182D02*
X7574330Y-105609940D01*
X7604833Y-105669036D01*
X7611071Y-105739457D01*
X7591903Y-105800977D01*
X7585602Y-105809622D01*
X7544338Y-105832478D01*
X7482575Y-105841760D01*
X7420149Y-105836757D01*
X7377233Y-105817100D01*
X7356041Y-105770926D01*
X7352639Y-105706296D01*
X7365825Y-105642588D01*
X7390541Y-105602364D01*
X7452408Y-105571444D01*
X7519985Y-105575182D01*
X7519985Y-105575182D01*
G37*
X7519985Y-105575182D02*
X7574330Y-105609940D01*
X7604833Y-105669036D01*
X7611071Y-105739457D01*
X7591903Y-105800977D01*
X7585602Y-105809622D01*
X7544338Y-105832478D01*
X7482575Y-105841760D01*
X7420149Y-105836757D01*
X7377233Y-105817100D01*
X7356041Y-105770926D01*
X7352639Y-105706296D01*
X7365825Y-105642588D01*
X7390541Y-105602364D01*
X7452408Y-105571444D01*
X7519985Y-105575182D01*
G36*
X7557737Y-106142062D02*
X7600419Y-106186418D01*
X7616690Y-106245331D01*
X7599680Y-106310597D01*
X7587693Y-106329333D01*
X7533817Y-106374330D01*
X7469367Y-106389208D01*
X7408728Y-106372234D01*
X7386391Y-106353603D01*
X7357844Y-106293505D01*
X7355723Y-106231253D01*
X7366293Y-106173749D01*
X7392076Y-106142749D01*
X7420625Y-106129841D01*
X7495515Y-106120468D01*
X7557737Y-106142062D01*
X7557737Y-106142062D01*
G37*
X7557737Y-106142062D02*
X7600419Y-106186418D01*
X7616690Y-106245331D01*
X7599680Y-106310597D01*
X7587693Y-106329333D01*
X7533817Y-106374330D01*
X7469367Y-106389208D01*
X7408728Y-106372234D01*
X7386391Y-106353603D01*
X7357844Y-106293505D01*
X7355723Y-106231253D01*
X7366293Y-106173749D01*
X7392076Y-106142749D01*
X7420625Y-106129841D01*
X7495515Y-106120468D01*
X7557737Y-106142062D01*
G36*
X8486755Y-105478475D02*
X8527676Y-105518535D01*
X8554657Y-105565378D01*
X8558333Y-105585099D01*
X8547158Y-105611896D01*
X8515537Y-105669433D01*
X8466324Y-105753242D01*
X8402377Y-105858857D01*
X8326549Y-105981811D01*
X8241696Y-106117637D01*
X8150675Y-106261867D01*
X8056339Y-106410036D01*
X7961545Y-106557675D01*
X7869148Y-106700318D01*
X7782003Y-106833497D01*
X7702967Y-106952747D01*
X7634893Y-107053599D01*
X7580638Y-107131587D01*
X7543057Y-107182243D01*
X7525431Y-107200970D01*
X7489621Y-107213246D01*
X7478833Y-107215358D01*
X7452515Y-107208429D01*
X7432372Y-107200970D01*
X7413285Y-107180316D01*
X7374818Y-107128102D01*
X7319823Y-107048795D01*
X7251156Y-106946859D01*
X7171669Y-106826761D01*
X7084216Y-106692965D01*
X6991651Y-106549937D01*
X6896827Y-106402142D01*
X6802598Y-106254047D01*
X6711818Y-106110115D01*
X6627340Y-105974813D01*
X6552017Y-105852606D01*
X6488704Y-105747959D01*
X6440254Y-105665339D01*
X6409521Y-105609209D01*
X6399333Y-105584450D01*
X6414708Y-105540433D01*
X6450952Y-105495371D01*
X6493239Y-105465583D01*
X6511040Y-105461500D01*
X6533123Y-105465489D01*
X6557934Y-105479673D01*
X6587961Y-105507373D01*
X6625688Y-105551913D01*
X6673602Y-105616615D01*
X6734189Y-105704801D01*
X6809936Y-105819796D01*
X6903329Y-105964920D01*
X6992000Y-106104285D01*
X7094944Y-106266081D01*
X7178065Y-106395270D01*
X7243819Y-106495241D01*
X7294660Y-106569385D01*
X7333043Y-106621092D01*
X7361422Y-106653752D01*
X7382252Y-106670755D01*
X7397989Y-106675491D01*
X7404750Y-106674307D01*
X7455216Y-106662482D01*
X7478833Y-106660290D01*
X7525289Y-106666803D01*
X7552916Y-106674307D01*
X7567019Y-106674457D01*
X7584982Y-106664045D01*
X7609259Y-106639680D01*
X7642306Y-106597973D01*
X7686577Y-106535532D01*
X7744526Y-106448969D01*
X7818610Y-106334893D01*
X7911281Y-106189914D01*
X7965666Y-106104285D01*
X8074892Y-105932785D01*
X8164493Y-105794061D01*
X8236953Y-105684791D01*
X8294760Y-105601653D01*
X8340400Y-105541323D01*
X8376359Y-105500480D01*
X8405122Y-105475799D01*
X8429177Y-105463959D01*
X8446626Y-105461500D01*
X8486755Y-105478475D01*
X8486755Y-105478475D01*
G37*
X8486755Y-105478475D02*
X8527676Y-105518535D01*
X8554657Y-105565378D01*
X8558333Y-105585099D01*
X8547158Y-105611896D01*
X8515537Y-105669433D01*
X8466324Y-105753242D01*
X8402377Y-105858857D01*
X8326549Y-105981811D01*
X8241696Y-106117637D01*
X8150675Y-106261867D01*
X8056339Y-106410036D01*
X7961545Y-106557675D01*
X7869148Y-106700318D01*
X7782003Y-106833497D01*
X7702967Y-106952747D01*
X7634893Y-107053599D01*
X7580638Y-107131587D01*
X7543057Y-107182243D01*
X7525431Y-107200970D01*
X7489621Y-107213246D01*
X7478833Y-107215358D01*
X7452515Y-107208429D01*
X7432372Y-107200970D01*
X7413285Y-107180316D01*
X7374818Y-107128102D01*
X7319823Y-107048795D01*
X7251156Y-106946859D01*
X7171669Y-106826761D01*
X7084216Y-106692965D01*
X6991651Y-106549937D01*
X6896827Y-106402142D01*
X6802598Y-106254047D01*
X6711818Y-106110115D01*
X6627340Y-105974813D01*
X6552017Y-105852606D01*
X6488704Y-105747959D01*
X6440254Y-105665339D01*
X6409521Y-105609209D01*
X6399333Y-105584450D01*
X6414708Y-105540433D01*
X6450952Y-105495371D01*
X6493239Y-105465583D01*
X6511040Y-105461500D01*
X6533123Y-105465489D01*
X6557934Y-105479673D01*
X6587961Y-105507373D01*
X6625688Y-105551913D01*
X6673602Y-105616615D01*
X6734189Y-105704801D01*
X6809936Y-105819796D01*
X6903329Y-105964920D01*
X6992000Y-106104285D01*
X7094944Y-106266081D01*
X7178065Y-106395270D01*
X7243819Y-106495241D01*
X7294660Y-106569385D01*
X7333043Y-106621092D01*
X7361422Y-106653752D01*
X7382252Y-106670755D01*
X7397989Y-106675491D01*
X7404750Y-106674307D01*
X7455216Y-106662482D01*
X7478833Y-106660290D01*
X7525289Y-106666803D01*
X7552916Y-106674307D01*
X7567019Y-106674457D01*
X7584982Y-106664045D01*
X7609259Y-106639680D01*
X7642306Y-106597973D01*
X7686577Y-106535532D01*
X7744526Y-106448969D01*
X7818610Y-106334893D01*
X7911281Y-106189914D01*
X7965666Y-106104285D01*
X8074892Y-105932785D01*
X8164493Y-105794061D01*
X8236953Y-105684791D01*
X8294760Y-105601653D01*
X8340400Y-105541323D01*
X8376359Y-105500480D01*
X8405122Y-105475799D01*
X8429177Y-105463959D01*
X8446626Y-105461500D01*
X8486755Y-105478475D01*
G36*
X7839269Y-107400467D02*
X8034046Y-107410564D01*
X8203240Y-107425908D01*
X8282412Y-107436688D01*
X8742334Y-107530216D01*
X9184976Y-107661447D01*
X9608721Y-107828755D01*
X10011953Y-108030514D01*
X10393057Y-108265098D01*
X10750417Y-108530882D01*
X11082418Y-108826239D01*
X11387444Y-109149545D01*
X11663879Y-109499173D01*
X11910108Y-109873498D01*
X12124515Y-110270893D01*
X12305484Y-110689735D01*
X12451400Y-111128395D01*
X12560648Y-111585250D01*
X12594124Y-111775286D01*
X12611171Y-111917270D01*
X12623477Y-112091096D01*
X12631039Y-112286536D01*
X12633854Y-112493363D01*
X12631918Y-112701351D01*
X12625231Y-112900273D01*
X12613788Y-113079904D01*
X12597587Y-113230015D01*
X12594519Y-113250833D01*
X12501512Y-113722186D01*
X12371098Y-114174113D01*
X12203528Y-114606116D01*
X11999050Y-115017699D01*
X11757913Y-115408364D01*
X11480368Y-115777613D01*
X11166663Y-116124950D01*
X11140893Y-116150894D01*
X10796877Y-116465385D01*
X10428949Y-116745471D01*
X10039247Y-116990117D01*
X9629905Y-117198291D01*
X9203060Y-117368959D01*
X8760846Y-117501087D01*
X8305401Y-117593642D01*
X8101993Y-117621489D01*
X7977084Y-117632689D01*
X7822977Y-117641289D01*
X7651732Y-117647088D01*
X7475408Y-117649887D01*
X7306064Y-117649485D01*
X7155759Y-117645683D01*
X7044916Y-117639031D01*
X6591137Y-117578599D01*
X6146721Y-117477534D01*
X5714042Y-117336956D01*
X5295475Y-117157986D01*
X4893398Y-116941745D01*
X4510184Y-116689351D01*
X4148209Y-116401926D01*
X3869665Y-116141647D01*
X3550554Y-115793260D01*
X3269963Y-115427600D01*
X3027551Y-115043973D01*
X2822980Y-114641687D01*
X2655910Y-114220047D01*
X2526002Y-113778360D01*
X2432916Y-113315932D01*
X2410369Y-113159791D01*
X2393767Y-112991027D01*
X2383212Y-112792869D01*
X2379108Y-112597096D01*
X2655521Y-112597096D01*
X2658057Y-112784015D01*
X2666089Y-112948793D01*
X2672270Y-113019518D01*
X2739414Y-113462101D01*
X2845979Y-113892277D01*
X2990311Y-114307880D01*
X3170756Y-114706744D01*
X3385660Y-115086705D01*
X3633367Y-115445596D01*
X3912225Y-115781253D01*
X4220577Y-116091509D01*
X4556771Y-116374201D01*
X4919152Y-116627161D01*
X5306065Y-116848225D01*
X5715857Y-117035228D01*
X5750793Y-117049130D01*
X6013059Y-117141176D01*
X6302553Y-117223127D01*
X6604690Y-117291519D01*
X6904889Y-117342890D01*
X7076666Y-117363965D01*
X7166134Y-117369922D01*
X7286741Y-117373466D01*
X7427367Y-117374692D01*
X7576891Y-117373693D01*
X7724193Y-117370565D01*
X7858153Y-117365401D01*
X7967651Y-117358295D01*
X7989882Y-117356228D01*
X8431168Y-117290653D01*
X8863487Y-117184558D01*
X9283953Y-117039321D01*
X9689682Y-116856314D01*
X10077787Y-116636914D01*
X10445383Y-116382495D01*
X10789585Y-116094434D01*
X10940087Y-115950187D01*
X11219773Y-115647404D01*
X11466166Y-115330340D01*
X11685092Y-114990740D01*
X11882381Y-114620350D01*
X11889557Y-114605500D01*
X12028848Y-114290900D01*
X12141884Y-113977131D01*
X12232596Y-113651489D01*
X12304921Y-113301272D01*
X12318850Y-113219083D01*
X12336852Y-113073159D01*
X12349445Y-112895941D01*
X12356635Y-112698122D01*
X12358428Y-112490394D01*
X12354829Y-112283450D01*
X12345843Y-112087981D01*
X12331478Y-111914680D01*
X12318101Y-111811500D01*
X12227391Y-111365203D01*
X12098918Y-110935267D01*
X11934420Y-110523512D01*
X11735632Y-110131757D01*
X11504290Y-109761821D01*
X11242132Y-109415524D01*
X10950892Y-109094684D01*
X10632307Y-108801122D01*
X10288113Y-108536655D01*
X9920047Y-108303103D01*
X9529844Y-108102287D01*
X9119241Y-107936023D01*
X8689974Y-107806133D01*
X8441916Y-107749928D01*
X8174046Y-107704390D01*
X7906714Y-107676204D01*
X7622757Y-107663765D01*
X7510583Y-107662833D01*
X7055601Y-107683519D01*
X6610159Y-107745033D01*
X6176182Y-107846560D01*
X5755591Y-107987288D01*
X5350312Y-108166402D01*
X4962267Y-108383087D01*
X4593381Y-108636529D01*
X4245576Y-108925915D01*
X4027660Y-109137075D01*
X3723865Y-109478275D01*
X3457534Y-109838542D01*
X3228240Y-110218704D01*
X3035559Y-110619593D01*
X2879066Y-111042038D01*
X2758337Y-111486872D01*
X2713503Y-111705667D01*
X2693607Y-111842459D01*
X2677524Y-112010719D01*
X2665591Y-112199727D01*
X2658145Y-112398760D01*
X2655521Y-112597096D01*
X2379108Y-112597096D01*
X2378703Y-112577822D01*
X2380241Y-112358390D01*
X2387826Y-112147079D01*
X2401459Y-111956393D01*
X2410335Y-111874368D01*
X2487207Y-111422326D01*
X2603512Y-110982439D01*
X2757599Y-110557027D01*
X2947817Y-110148412D01*
X3172515Y-109758914D01*
X3430044Y-109390855D01*
X3718751Y-109046556D01*
X4036987Y-108728338D01*
X4383100Y-108438522D01*
X4755440Y-108179429D01*
X5152356Y-107953381D01*
X5224583Y-107917215D01*
X5523549Y-107779722D01*
X5812956Y-107666853D01*
X6106394Y-107574196D01*
X6417457Y-107497340D01*
X6674487Y-107446699D01*
X6819841Y-107426579D01*
X6997590Y-107411344D01*
X7198069Y-107401055D01*
X7411618Y-107395772D01*
X7628572Y-107395556D01*
X7839269Y-107400467D01*
X7839269Y-107400467D01*
G37*
X7839269Y-107400467D02*
X8034046Y-107410564D01*
X8203240Y-107425908D01*
X8282412Y-107436688D01*
X8742334Y-107530216D01*
X9184976Y-107661447D01*
X9608721Y-107828755D01*
X10011953Y-108030514D01*
X10393057Y-108265098D01*
X10750417Y-108530882D01*
X11082418Y-108826239D01*
X11387444Y-109149545D01*
X11663879Y-109499173D01*
X11910108Y-109873498D01*
X12124515Y-110270893D01*
X12305484Y-110689735D01*
X12451400Y-111128395D01*
X12560648Y-111585250D01*
X12594124Y-111775286D01*
X12611171Y-111917270D01*
X12623477Y-112091096D01*
X12631039Y-112286536D01*
X12633854Y-112493363D01*
X12631918Y-112701351D01*
X12625231Y-112900273D01*
X12613788Y-113079904D01*
X12597587Y-113230015D01*
X12594519Y-113250833D01*
X12501512Y-113722186D01*
X12371098Y-114174113D01*
X12203528Y-114606116D01*
X11999050Y-115017699D01*
X11757913Y-115408364D01*
X11480368Y-115777613D01*
X11166663Y-116124950D01*
X11140893Y-116150894D01*
X10796877Y-116465385D01*
X10428949Y-116745471D01*
X10039247Y-116990117D01*
X9629905Y-117198291D01*
X9203060Y-117368959D01*
X8760846Y-117501087D01*
X8305401Y-117593642D01*
X8101993Y-117621489D01*
X7977084Y-117632689D01*
X7822977Y-117641289D01*
X7651732Y-117647088D01*
X7475408Y-117649887D01*
X7306064Y-117649485D01*
X7155759Y-117645683D01*
X7044916Y-117639031D01*
X6591137Y-117578599D01*
X6146721Y-117477534D01*
X5714042Y-117336956D01*
X5295475Y-117157986D01*
X4893398Y-116941745D01*
X4510184Y-116689351D01*
X4148209Y-116401926D01*
X3869665Y-116141647D01*
X3550554Y-115793260D01*
X3269963Y-115427600D01*
X3027551Y-115043973D01*
X2822980Y-114641687D01*
X2655910Y-114220047D01*
X2526002Y-113778360D01*
X2432916Y-113315932D01*
X2410369Y-113159791D01*
X2393767Y-112991027D01*
X2383212Y-112792869D01*
X2379108Y-112597096D01*
X2655521Y-112597096D01*
X2658057Y-112784015D01*
X2666089Y-112948793D01*
X2672270Y-113019518D01*
X2739414Y-113462101D01*
X2845979Y-113892277D01*
X2990311Y-114307880D01*
X3170756Y-114706744D01*
X3385660Y-115086705D01*
X3633367Y-115445596D01*
X3912225Y-115781253D01*
X4220577Y-116091509D01*
X4556771Y-116374201D01*
X4919152Y-116627161D01*
X5306065Y-116848225D01*
X5715857Y-117035228D01*
X5750793Y-117049130D01*
X6013059Y-117141176D01*
X6302553Y-117223127D01*
X6604690Y-117291519D01*
X6904889Y-117342890D01*
X7076666Y-117363965D01*
X7166134Y-117369922D01*
X7286741Y-117373466D01*
X7427367Y-117374692D01*
X7576891Y-117373693D01*
X7724193Y-117370565D01*
X7858153Y-117365401D01*
X7967651Y-117358295D01*
X7989882Y-117356228D01*
X8431168Y-117290653D01*
X8863487Y-117184558D01*
X9283953Y-117039321D01*
X9689682Y-116856314D01*
X10077787Y-116636914D01*
X10445383Y-116382495D01*
X10789585Y-116094434D01*
X10940087Y-115950187D01*
X11219773Y-115647404D01*
X11466166Y-115330340D01*
X11685092Y-114990740D01*
X11882381Y-114620350D01*
X11889557Y-114605500D01*
X12028848Y-114290900D01*
X12141884Y-113977131D01*
X12232596Y-113651489D01*
X12304921Y-113301272D01*
X12318850Y-113219083D01*
X12336852Y-113073159D01*
X12349445Y-112895941D01*
X12356635Y-112698122D01*
X12358428Y-112490394D01*
X12354829Y-112283450D01*
X12345843Y-112087981D01*
X12331478Y-111914680D01*
X12318101Y-111811500D01*
X12227391Y-111365203D01*
X12098918Y-110935267D01*
X11934420Y-110523512D01*
X11735632Y-110131757D01*
X11504290Y-109761821D01*
X11242132Y-109415524D01*
X10950892Y-109094684D01*
X10632307Y-108801122D01*
X10288113Y-108536655D01*
X9920047Y-108303103D01*
X9529844Y-108102287D01*
X9119241Y-107936023D01*
X8689974Y-107806133D01*
X8441916Y-107749928D01*
X8174046Y-107704390D01*
X7906714Y-107676204D01*
X7622757Y-107663765D01*
X7510583Y-107662833D01*
X7055601Y-107683519D01*
X6610159Y-107745033D01*
X6176182Y-107846560D01*
X5755591Y-107987288D01*
X5350312Y-108166402D01*
X4962267Y-108383087D01*
X4593381Y-108636529D01*
X4245576Y-108925915D01*
X4027660Y-109137075D01*
X3723865Y-109478275D01*
X3457534Y-109838542D01*
X3228240Y-110218704D01*
X3035559Y-110619593D01*
X2879066Y-111042038D01*
X2758337Y-111486872D01*
X2713503Y-111705667D01*
X2693607Y-111842459D01*
X2677524Y-112010719D01*
X2665591Y-112199727D01*
X2658145Y-112398760D01*
X2655521Y-112597096D01*
X2379108Y-112597096D01*
X2378703Y-112577822D01*
X2380241Y-112358390D01*
X2387826Y-112147079D01*
X2401459Y-111956393D01*
X2410335Y-111874368D01*
X2487207Y-111422326D01*
X2603512Y-110982439D01*
X2757599Y-110557027D01*
X2947817Y-110148412D01*
X3172515Y-109758914D01*
X3430044Y-109390855D01*
X3718751Y-109046556D01*
X4036987Y-108728338D01*
X4383100Y-108438522D01*
X4755440Y-108179429D01*
X5152356Y-107953381D01*
X5224583Y-107917215D01*
X5523549Y-107779722D01*
X5812956Y-107666853D01*
X6106394Y-107574196D01*
X6417457Y-107497340D01*
X6674487Y-107446699D01*
X6819841Y-107426579D01*
X6997590Y-107411344D01*
X7198069Y-107401055D01*
X7411618Y-107395772D01*
X7628572Y-107395556D01*
X7839269Y-107400467D01*
G36*
X7240708Y-118669618D02*
X7424075Y-118670578D01*
X7583764Y-118673273D01*
X7715491Y-118677551D01*
X7814973Y-118683256D01*
X7877926Y-118690236D01*
X7890590Y-118692966D01*
X7986023Y-118739224D01*
X8067918Y-118815158D01*
X8123627Y-118908120D01*
X8132700Y-118935076D01*
X8142366Y-118994142D01*
X8149349Y-119085186D01*
X8153649Y-119197938D01*
X8155269Y-119322129D01*
X8154211Y-119447490D01*
X8150477Y-119563749D01*
X8144067Y-119660638D01*
X8134985Y-119727886D01*
X8132557Y-119737939D01*
X8104703Y-119798843D01*
X8057727Y-119867033D01*
X8002424Y-119929535D01*
X7949587Y-119973374D01*
X7927745Y-119984150D01*
X7924896Y-120002826D01*
X7939832Y-120052443D01*
X7973190Y-120134583D01*
X8025609Y-120250827D01*
X8091786Y-120390431D01*
X8148951Y-120509587D01*
X8199305Y-120615401D01*
X8240136Y-120702104D01*
X8268735Y-120763927D01*
X8282389Y-120795103D01*
X8283166Y-120797596D01*
X8263474Y-120801634D01*
X8210293Y-120804854D01*
X8132463Y-120806862D01*
X8065763Y-120807333D01*
X7848359Y-120807333D01*
X7648166Y-120405167D01*
X7447973Y-120003000D01*
X7076666Y-120003000D01*
X7076666Y-120807333D01*
X6674500Y-120807333D01*
X6674500Y-119050500D01*
X7076666Y-119050500D01*
X7076666Y-119622000D01*
X7393421Y-119622000D01*
X7516202Y-119621603D01*
X7603386Y-119619870D01*
X7661710Y-119615986D01*
X7697907Y-119609137D01*
X7718713Y-119598509D01*
X7730862Y-119583288D01*
X7732088Y-119581058D01*
X7741640Y-119542690D01*
X7749084Y-119473739D01*
X7753369Y-119385941D01*
X7754000Y-119336250D01*
X7753929Y-119232233D01*
X7749783Y-119157070D01*
X7735663Y-119106084D01*
X7705669Y-119074602D01*
X7653901Y-119057947D01*
X7574461Y-119051445D01*
X7461448Y-119050419D01*
X7393421Y-119050500D01*
X7076666Y-119050500D01*
X6674500Y-119050500D01*
X6674500Y-118669500D01*
X7240708Y-118669618D01*
X7240708Y-118669618D01*
G37*
X7240708Y-118669618D02*
X7424075Y-118670578D01*
X7583764Y-118673273D01*
X7715491Y-118677551D01*
X7814973Y-118683256D01*
X7877926Y-118690236D01*
X7890590Y-118692966D01*
X7986023Y-118739224D01*
X8067918Y-118815158D01*
X8123627Y-118908120D01*
X8132700Y-118935076D01*
X8142366Y-118994142D01*
X8149349Y-119085186D01*
X8153649Y-119197938D01*
X8155269Y-119322129D01*
X8154211Y-119447490D01*
X8150477Y-119563749D01*
X8144067Y-119660638D01*
X8134985Y-119727886D01*
X8132557Y-119737939D01*
X8104703Y-119798843D01*
X8057727Y-119867033D01*
X8002424Y-119929535D01*
X7949587Y-119973374D01*
X7927745Y-119984150D01*
X7924896Y-120002826D01*
X7939832Y-120052443D01*
X7973190Y-120134583D01*
X8025609Y-120250827D01*
X8091786Y-120390431D01*
X8148951Y-120509587D01*
X8199305Y-120615401D01*
X8240136Y-120702104D01*
X8268735Y-120763927D01*
X8282389Y-120795103D01*
X8283166Y-120797596D01*
X8263474Y-120801634D01*
X8210293Y-120804854D01*
X8132463Y-120806862D01*
X8065763Y-120807333D01*
X7848359Y-120807333D01*
X7648166Y-120405167D01*
X7447973Y-120003000D01*
X7076666Y-120003000D01*
X7076666Y-120807333D01*
X6674500Y-120807333D01*
X6674500Y-119050500D01*
X7076666Y-119050500D01*
X7076666Y-119622000D01*
X7393421Y-119622000D01*
X7516202Y-119621603D01*
X7603386Y-119619870D01*
X7661710Y-119615986D01*
X7697907Y-119609137D01*
X7718713Y-119598509D01*
X7730862Y-119583288D01*
X7732088Y-119581058D01*
X7741640Y-119542690D01*
X7749084Y-119473739D01*
X7753369Y-119385941D01*
X7754000Y-119336250D01*
X7753929Y-119232233D01*
X7749783Y-119157070D01*
X7735663Y-119106084D01*
X7705669Y-119074602D01*
X7653901Y-119057947D01*
X7574461Y-119051445D01*
X7461448Y-119050419D01*
X7393421Y-119050500D01*
X7076666Y-119050500D01*
X6674500Y-119050500D01*
X6674500Y-118669500D01*
X7240708Y-118669618D01*
D11*
X7500000Y-15980000D03*
X7500000Y-112500000D03*
X7500000Y-100435000D03*
X7500000Y-88370000D03*
X7500000Y-76305000D03*
X7500000Y-64240000D03*
X7500000Y-52175000D03*
X7500000Y-28045000D03*
D12*
X7500000Y-125500000D03*
X7500000Y-3000000D03*
D11*
X7500000Y-40110000D03*
M02*
