G04 #@! TF.GenerationSoftware,KiCad,Pcbnew,(2018-02-10 revision a04965c)-master*
G04 #@! TF.CreationDate,2018-04-09T10:07:04-05:00*
G04 #@! TF.ProjectId,pcb_panel,7063625F70616E656C2E6B696361645F,rev?*
G04 #@! TF.SameCoordinates,Original*
G04 #@! TF.FileFunction,Copper,L2,Bot,Signal*
G04 #@! TF.FilePolarity,Positive*
%FSLAX46Y46*%
G04 Gerber Fmt 4.6, Leading zero omitted, Abs format (unit mm)*
G04 Created by KiCad (PCBNEW (2018-02-10 revision a04965c)-master) date Monday, April 09, 2018 at 10:07:04 AM*
%MOMM*%
%LPD*%
G01*
G04 APERTURE LIST*
%ADD10C,6.200000*%
%ADD11C,3.200000*%
%ADD12C,0.254000*%
G04 APERTURE END LIST*
D10*
X7500000Y-15980000D03*
X7500000Y-112500000D03*
X7500000Y-100435000D03*
X7500000Y-88370000D03*
X7500000Y-76305000D03*
X7500000Y-64240000D03*
X7500000Y-52175000D03*
X7500000Y-28045000D03*
D11*
X7500000Y-125500000D03*
X7500000Y-3000000D03*
D10*
X7500000Y-40110000D03*
D12*
G36*
X14265001Y-127765000D02*
X735000Y-127765000D01*
X735000Y-125092346D01*
X5257974Y-125092346D01*
X5265000Y-125518390D01*
X5265000Y-125944569D01*
X5272320Y-125962240D01*
X5272635Y-125981363D01*
X5584640Y-126734610D01*
X5594347Y-126739682D01*
X5605259Y-126766026D01*
X6233974Y-127394741D01*
X6260318Y-127405653D01*
X6265390Y-127415360D01*
X6661708Y-127571914D01*
X7055431Y-127735000D01*
X7074560Y-127735000D01*
X7092346Y-127742026D01*
X7518390Y-127735000D01*
X7944569Y-127735000D01*
X7962240Y-127727680D01*
X7981363Y-127727365D01*
X8734610Y-127415360D01*
X8739682Y-127405653D01*
X8766026Y-127394741D01*
X9394741Y-126766026D01*
X9405653Y-126739682D01*
X9415360Y-126734610D01*
X9571914Y-126338292D01*
X9735000Y-125944569D01*
X9735000Y-125925440D01*
X9742026Y-125907654D01*
X9735000Y-125481610D01*
X9735000Y-125055431D01*
X9727680Y-125037760D01*
X9727365Y-125018637D01*
X9415360Y-124265390D01*
X9405653Y-124260318D01*
X9394741Y-124233974D01*
X8766026Y-123605259D01*
X8739682Y-123594347D01*
X8734610Y-123584640D01*
X8338292Y-123428086D01*
X7944569Y-123265000D01*
X7925440Y-123265000D01*
X7907654Y-123257974D01*
X7481610Y-123265000D01*
X7055431Y-123265000D01*
X7037760Y-123272320D01*
X7018637Y-123272635D01*
X6265390Y-123584640D01*
X6260318Y-123594347D01*
X6233974Y-123605259D01*
X5605259Y-124233974D01*
X5594347Y-124260318D01*
X5584640Y-124265390D01*
X5428086Y-124661708D01*
X5265000Y-125055431D01*
X5265000Y-125074560D01*
X5257974Y-125092346D01*
X735000Y-125092346D01*
X735000Y-113230835D01*
X3760671Y-113230835D01*
X3765000Y-113241463D01*
X3765000Y-113252938D01*
X4045061Y-113929065D01*
X4321162Y-114606944D01*
X4333490Y-114625394D01*
X4333620Y-114625708D01*
X4333860Y-114625948D01*
X4346188Y-114644398D01*
X4368982Y-114661070D01*
X5348930Y-115641018D01*
X5365602Y-115663812D01*
X5376178Y-115668266D01*
X5384292Y-115676380D01*
X6060425Y-115956444D01*
X6734985Y-116240541D01*
X6746461Y-116240609D01*
X6757062Y-116245000D01*
X7488900Y-116245000D01*
X8220835Y-116249329D01*
X8231463Y-116245000D01*
X8242938Y-116245000D01*
X8919065Y-115964939D01*
X9596944Y-115688838D01*
X9615394Y-115676510D01*
X9615708Y-115676380D01*
X9615948Y-115676140D01*
X9634398Y-115663812D01*
X9651070Y-115641018D01*
X10631018Y-114661070D01*
X10653812Y-114644398D01*
X10658266Y-114633822D01*
X10666380Y-114625708D01*
X10946444Y-113949575D01*
X11230541Y-113275015D01*
X11230609Y-113263539D01*
X11235000Y-113252938D01*
X11235000Y-112521100D01*
X11239329Y-111789165D01*
X11235000Y-111778537D01*
X11235000Y-111767062D01*
X10954939Y-111090935D01*
X10678838Y-110413056D01*
X10666510Y-110394606D01*
X10666380Y-110394292D01*
X10666140Y-110394052D01*
X10653812Y-110375602D01*
X10631018Y-110358930D01*
X9651070Y-109378982D01*
X9634398Y-109356188D01*
X9623822Y-109351734D01*
X9615708Y-109343620D01*
X8939575Y-109063556D01*
X8265015Y-108779459D01*
X8253539Y-108779391D01*
X8242938Y-108775000D01*
X7511100Y-108775000D01*
X6779165Y-108770671D01*
X6768537Y-108775000D01*
X6757062Y-108775000D01*
X6080935Y-109055061D01*
X5403056Y-109331162D01*
X5384606Y-109343490D01*
X5384292Y-109343620D01*
X5384052Y-109343860D01*
X5365602Y-109356188D01*
X5348930Y-109378982D01*
X4368982Y-110358930D01*
X4346188Y-110375602D01*
X4341734Y-110386178D01*
X4333620Y-110394292D01*
X4053556Y-111070425D01*
X3769459Y-111744985D01*
X3769391Y-111756461D01*
X3765000Y-111767062D01*
X3765000Y-112498900D01*
X3760671Y-113230835D01*
X735000Y-113230835D01*
X735000Y-101165835D01*
X3760671Y-101165835D01*
X3765000Y-101176463D01*
X3765000Y-101187938D01*
X4045061Y-101864065D01*
X4321162Y-102541944D01*
X4333490Y-102560394D01*
X4333620Y-102560708D01*
X4333860Y-102560948D01*
X4346188Y-102579398D01*
X4368982Y-102596070D01*
X5348930Y-103576018D01*
X5365602Y-103598812D01*
X5376178Y-103603266D01*
X5384292Y-103611380D01*
X6060425Y-103891444D01*
X6734985Y-104175541D01*
X6746461Y-104175609D01*
X6757062Y-104180000D01*
X7488900Y-104180000D01*
X8220835Y-104184329D01*
X8231463Y-104180000D01*
X8242938Y-104180000D01*
X8919065Y-103899939D01*
X9596944Y-103623838D01*
X9615394Y-103611510D01*
X9615708Y-103611380D01*
X9615948Y-103611140D01*
X9634398Y-103598812D01*
X9651070Y-103576018D01*
X10631018Y-102596070D01*
X10653812Y-102579398D01*
X10658266Y-102568822D01*
X10666380Y-102560708D01*
X10946444Y-101884575D01*
X11230541Y-101210015D01*
X11230609Y-101198539D01*
X11235000Y-101187938D01*
X11235000Y-100456100D01*
X11239329Y-99724165D01*
X11235000Y-99713537D01*
X11235000Y-99702062D01*
X10954939Y-99025935D01*
X10678838Y-98348056D01*
X10666510Y-98329606D01*
X10666380Y-98329292D01*
X10666140Y-98329052D01*
X10653812Y-98310602D01*
X10631018Y-98293930D01*
X9651070Y-97313982D01*
X9634398Y-97291188D01*
X9623822Y-97286734D01*
X9615708Y-97278620D01*
X8939575Y-96998556D01*
X8265015Y-96714459D01*
X8253539Y-96714391D01*
X8242938Y-96710000D01*
X7511100Y-96710000D01*
X6779165Y-96705671D01*
X6768537Y-96710000D01*
X6757062Y-96710000D01*
X6080935Y-96990061D01*
X5403056Y-97266162D01*
X5384606Y-97278490D01*
X5384292Y-97278620D01*
X5384052Y-97278860D01*
X5365602Y-97291188D01*
X5348930Y-97313982D01*
X4368982Y-98293930D01*
X4346188Y-98310602D01*
X4341734Y-98321178D01*
X4333620Y-98329292D01*
X4053556Y-99005425D01*
X3769459Y-99679985D01*
X3769391Y-99691461D01*
X3765000Y-99702062D01*
X3765000Y-100433900D01*
X3760671Y-101165835D01*
X735000Y-101165835D01*
X735000Y-89100835D01*
X3760671Y-89100835D01*
X3765000Y-89111463D01*
X3765000Y-89122938D01*
X4045061Y-89799065D01*
X4321162Y-90476944D01*
X4333490Y-90495394D01*
X4333620Y-90495708D01*
X4333860Y-90495948D01*
X4346188Y-90514398D01*
X4368982Y-90531070D01*
X5348930Y-91511018D01*
X5365602Y-91533812D01*
X5376178Y-91538266D01*
X5384292Y-91546380D01*
X6060425Y-91826444D01*
X6734985Y-92110541D01*
X6746461Y-92110609D01*
X6757062Y-92115000D01*
X7488900Y-92115000D01*
X8220835Y-92119329D01*
X8231463Y-92115000D01*
X8242938Y-92115000D01*
X8919065Y-91834939D01*
X9596944Y-91558838D01*
X9615394Y-91546510D01*
X9615708Y-91546380D01*
X9615948Y-91546140D01*
X9634398Y-91533812D01*
X9651070Y-91511018D01*
X10631018Y-90531070D01*
X10653812Y-90514398D01*
X10658266Y-90503822D01*
X10666380Y-90495708D01*
X10946444Y-89819575D01*
X11230541Y-89145015D01*
X11230609Y-89133539D01*
X11235000Y-89122938D01*
X11235000Y-88391100D01*
X11239329Y-87659165D01*
X11235000Y-87648537D01*
X11235000Y-87637062D01*
X10954939Y-86960935D01*
X10678838Y-86283056D01*
X10666510Y-86264606D01*
X10666380Y-86264292D01*
X10666140Y-86264052D01*
X10653812Y-86245602D01*
X10631018Y-86228930D01*
X9651070Y-85248982D01*
X9634398Y-85226188D01*
X9623822Y-85221734D01*
X9615708Y-85213620D01*
X8939575Y-84933556D01*
X8265015Y-84649459D01*
X8253539Y-84649391D01*
X8242938Y-84645000D01*
X7511100Y-84645000D01*
X6779165Y-84640671D01*
X6768537Y-84645000D01*
X6757062Y-84645000D01*
X6080935Y-84925061D01*
X5403056Y-85201162D01*
X5384606Y-85213490D01*
X5384292Y-85213620D01*
X5384052Y-85213860D01*
X5365602Y-85226188D01*
X5348930Y-85248982D01*
X4368982Y-86228930D01*
X4346188Y-86245602D01*
X4341734Y-86256178D01*
X4333620Y-86264292D01*
X4053556Y-86940425D01*
X3769459Y-87614985D01*
X3769391Y-87626461D01*
X3765000Y-87637062D01*
X3765000Y-88368900D01*
X3760671Y-89100835D01*
X735000Y-89100835D01*
X735000Y-77035835D01*
X3760671Y-77035835D01*
X3765000Y-77046463D01*
X3765000Y-77057938D01*
X4045061Y-77734065D01*
X4321162Y-78411944D01*
X4333490Y-78430394D01*
X4333620Y-78430708D01*
X4333860Y-78430948D01*
X4346188Y-78449398D01*
X4368982Y-78466070D01*
X5348930Y-79446018D01*
X5365602Y-79468812D01*
X5376178Y-79473266D01*
X5384292Y-79481380D01*
X6060425Y-79761444D01*
X6734985Y-80045541D01*
X6746461Y-80045609D01*
X6757062Y-80050000D01*
X7488900Y-80050000D01*
X8220835Y-80054329D01*
X8231463Y-80050000D01*
X8242938Y-80050000D01*
X8919065Y-79769939D01*
X9596944Y-79493838D01*
X9615394Y-79481510D01*
X9615708Y-79481380D01*
X9615948Y-79481140D01*
X9634398Y-79468812D01*
X9651070Y-79446018D01*
X10631018Y-78466070D01*
X10653812Y-78449398D01*
X10658266Y-78438822D01*
X10666380Y-78430708D01*
X10946444Y-77754575D01*
X11230541Y-77080015D01*
X11230609Y-77068539D01*
X11235000Y-77057938D01*
X11235000Y-76326100D01*
X11239329Y-75594165D01*
X11235000Y-75583537D01*
X11235000Y-75572062D01*
X10954939Y-74895935D01*
X10678838Y-74218056D01*
X10666510Y-74199606D01*
X10666380Y-74199292D01*
X10666140Y-74199052D01*
X10653812Y-74180602D01*
X10631018Y-74163930D01*
X9651070Y-73183982D01*
X9634398Y-73161188D01*
X9623822Y-73156734D01*
X9615708Y-73148620D01*
X8939575Y-72868556D01*
X8265015Y-72584459D01*
X8253539Y-72584391D01*
X8242938Y-72580000D01*
X7511100Y-72580000D01*
X6779165Y-72575671D01*
X6768537Y-72580000D01*
X6757062Y-72580000D01*
X6080935Y-72860061D01*
X5403056Y-73136162D01*
X5384606Y-73148490D01*
X5384292Y-73148620D01*
X5384052Y-73148860D01*
X5365602Y-73161188D01*
X5348930Y-73183982D01*
X4368982Y-74163930D01*
X4346188Y-74180602D01*
X4341734Y-74191178D01*
X4333620Y-74199292D01*
X4053556Y-74875425D01*
X3769459Y-75549985D01*
X3769391Y-75561461D01*
X3765000Y-75572062D01*
X3765000Y-76303900D01*
X3760671Y-77035835D01*
X735000Y-77035835D01*
X735000Y-64970835D01*
X3760671Y-64970835D01*
X3765000Y-64981463D01*
X3765000Y-64992938D01*
X4045061Y-65669065D01*
X4321162Y-66346944D01*
X4333490Y-66365394D01*
X4333620Y-66365708D01*
X4333860Y-66365948D01*
X4346188Y-66384398D01*
X4368982Y-66401070D01*
X5348930Y-67381018D01*
X5365602Y-67403812D01*
X5376178Y-67408266D01*
X5384292Y-67416380D01*
X6060425Y-67696444D01*
X6734985Y-67980541D01*
X6746461Y-67980609D01*
X6757062Y-67985000D01*
X7488900Y-67985000D01*
X8220835Y-67989329D01*
X8231463Y-67985000D01*
X8242938Y-67985000D01*
X8919065Y-67704939D01*
X9596944Y-67428838D01*
X9615394Y-67416510D01*
X9615708Y-67416380D01*
X9615948Y-67416140D01*
X9634398Y-67403812D01*
X9651070Y-67381018D01*
X10631018Y-66401070D01*
X10653812Y-66384398D01*
X10658266Y-66373822D01*
X10666380Y-66365708D01*
X10946444Y-65689575D01*
X11230541Y-65015015D01*
X11230609Y-65003539D01*
X11235000Y-64992938D01*
X11235000Y-64261100D01*
X11239329Y-63529165D01*
X11235000Y-63518537D01*
X11235000Y-63507062D01*
X10954939Y-62830935D01*
X10678838Y-62153056D01*
X10666510Y-62134606D01*
X10666380Y-62134292D01*
X10666140Y-62134052D01*
X10653812Y-62115602D01*
X10631018Y-62098930D01*
X9651070Y-61118982D01*
X9634398Y-61096188D01*
X9623822Y-61091734D01*
X9615708Y-61083620D01*
X8939575Y-60803556D01*
X8265015Y-60519459D01*
X8253539Y-60519391D01*
X8242938Y-60515000D01*
X7511100Y-60515000D01*
X6779165Y-60510671D01*
X6768537Y-60515000D01*
X6757062Y-60515000D01*
X6080935Y-60795061D01*
X5403056Y-61071162D01*
X5384606Y-61083490D01*
X5384292Y-61083620D01*
X5384052Y-61083860D01*
X5365602Y-61096188D01*
X5348930Y-61118982D01*
X4368982Y-62098930D01*
X4346188Y-62115602D01*
X4341734Y-62126178D01*
X4333620Y-62134292D01*
X4053556Y-62810425D01*
X3769459Y-63484985D01*
X3769391Y-63496461D01*
X3765000Y-63507062D01*
X3765000Y-64238900D01*
X3760671Y-64970835D01*
X735000Y-64970835D01*
X735000Y-52905835D01*
X3760671Y-52905835D01*
X3765000Y-52916463D01*
X3765000Y-52927938D01*
X4045061Y-53604065D01*
X4321162Y-54281944D01*
X4333490Y-54300394D01*
X4333620Y-54300708D01*
X4333860Y-54300948D01*
X4346188Y-54319398D01*
X4368982Y-54336070D01*
X5348930Y-55316018D01*
X5365602Y-55338812D01*
X5376178Y-55343266D01*
X5384292Y-55351380D01*
X6060425Y-55631444D01*
X6734985Y-55915541D01*
X6746461Y-55915609D01*
X6757062Y-55920000D01*
X7488900Y-55920000D01*
X8220835Y-55924329D01*
X8231463Y-55920000D01*
X8242938Y-55920000D01*
X8919065Y-55639939D01*
X9596944Y-55363838D01*
X9615394Y-55351510D01*
X9615708Y-55351380D01*
X9615948Y-55351140D01*
X9634398Y-55338812D01*
X9651070Y-55316018D01*
X10631018Y-54336070D01*
X10653812Y-54319398D01*
X10658266Y-54308822D01*
X10666380Y-54300708D01*
X10946444Y-53624575D01*
X11230541Y-52950015D01*
X11230609Y-52938539D01*
X11235000Y-52927938D01*
X11235000Y-52196100D01*
X11239329Y-51464165D01*
X11235000Y-51453537D01*
X11235000Y-51442062D01*
X10954939Y-50765935D01*
X10678838Y-50088056D01*
X10666510Y-50069606D01*
X10666380Y-50069292D01*
X10666140Y-50069052D01*
X10653812Y-50050602D01*
X10631018Y-50033930D01*
X9651070Y-49053982D01*
X9634398Y-49031188D01*
X9623822Y-49026734D01*
X9615708Y-49018620D01*
X8939575Y-48738556D01*
X8265015Y-48454459D01*
X8253539Y-48454391D01*
X8242938Y-48450000D01*
X7511100Y-48450000D01*
X6779165Y-48445671D01*
X6768537Y-48450000D01*
X6757062Y-48450000D01*
X6080935Y-48730061D01*
X5403056Y-49006162D01*
X5384606Y-49018490D01*
X5384292Y-49018620D01*
X5384052Y-49018860D01*
X5365602Y-49031188D01*
X5348930Y-49053982D01*
X4368982Y-50033930D01*
X4346188Y-50050602D01*
X4341734Y-50061178D01*
X4333620Y-50069292D01*
X4053556Y-50745425D01*
X3769459Y-51419985D01*
X3769391Y-51431461D01*
X3765000Y-51442062D01*
X3765000Y-52173900D01*
X3760671Y-52905835D01*
X735000Y-52905835D01*
X735000Y-40840835D01*
X3760671Y-40840835D01*
X3765000Y-40851463D01*
X3765000Y-40862938D01*
X4045061Y-41539065D01*
X4321162Y-42216944D01*
X4333490Y-42235394D01*
X4333620Y-42235708D01*
X4333860Y-42235948D01*
X4346188Y-42254398D01*
X4368982Y-42271070D01*
X5348930Y-43251018D01*
X5365602Y-43273812D01*
X5376178Y-43278266D01*
X5384292Y-43286380D01*
X6060425Y-43566444D01*
X6734985Y-43850541D01*
X6746461Y-43850609D01*
X6757062Y-43855000D01*
X7488900Y-43855000D01*
X8220835Y-43859329D01*
X8231463Y-43855000D01*
X8242938Y-43855000D01*
X8919065Y-43574939D01*
X9596944Y-43298838D01*
X9615394Y-43286510D01*
X9615708Y-43286380D01*
X9615948Y-43286140D01*
X9634398Y-43273812D01*
X9651070Y-43251018D01*
X10631018Y-42271070D01*
X10653812Y-42254398D01*
X10658266Y-42243822D01*
X10666380Y-42235708D01*
X10946444Y-41559575D01*
X11230541Y-40885015D01*
X11230609Y-40873539D01*
X11235000Y-40862938D01*
X11235000Y-40131100D01*
X11239329Y-39399165D01*
X11235000Y-39388537D01*
X11235000Y-39377062D01*
X10954939Y-38700935D01*
X10678838Y-38023056D01*
X10666510Y-38004606D01*
X10666380Y-38004292D01*
X10666140Y-38004052D01*
X10653812Y-37985602D01*
X10631018Y-37968930D01*
X9651070Y-36988982D01*
X9634398Y-36966188D01*
X9623822Y-36961734D01*
X9615708Y-36953620D01*
X8939575Y-36673556D01*
X8265015Y-36389459D01*
X8253539Y-36389391D01*
X8242938Y-36385000D01*
X7511100Y-36385000D01*
X6779165Y-36380671D01*
X6768537Y-36385000D01*
X6757062Y-36385000D01*
X6080935Y-36665061D01*
X5403056Y-36941162D01*
X5384606Y-36953490D01*
X5384292Y-36953620D01*
X5384052Y-36953860D01*
X5365602Y-36966188D01*
X5348930Y-36988982D01*
X4368982Y-37968930D01*
X4346188Y-37985602D01*
X4341734Y-37996178D01*
X4333620Y-38004292D01*
X4053556Y-38680425D01*
X3769459Y-39354985D01*
X3769391Y-39366461D01*
X3765000Y-39377062D01*
X3765000Y-40108900D01*
X3760671Y-40840835D01*
X735000Y-40840835D01*
X735000Y-28775835D01*
X3760671Y-28775835D01*
X3765000Y-28786463D01*
X3765000Y-28797938D01*
X4045061Y-29474065D01*
X4321162Y-30151944D01*
X4333490Y-30170394D01*
X4333620Y-30170708D01*
X4333860Y-30170948D01*
X4346188Y-30189398D01*
X4368982Y-30206070D01*
X5348930Y-31186018D01*
X5365602Y-31208812D01*
X5376178Y-31213266D01*
X5384292Y-31221380D01*
X6060425Y-31501444D01*
X6734985Y-31785541D01*
X6746461Y-31785609D01*
X6757062Y-31790000D01*
X7488900Y-31790000D01*
X8220835Y-31794329D01*
X8231463Y-31790000D01*
X8242938Y-31790000D01*
X8919065Y-31509939D01*
X9596944Y-31233838D01*
X9615394Y-31221510D01*
X9615708Y-31221380D01*
X9615948Y-31221140D01*
X9634398Y-31208812D01*
X9651070Y-31186018D01*
X10631018Y-30206070D01*
X10653812Y-30189398D01*
X10658266Y-30178822D01*
X10666380Y-30170708D01*
X10946444Y-29494575D01*
X11230541Y-28820015D01*
X11230609Y-28808539D01*
X11235000Y-28797938D01*
X11235000Y-28066100D01*
X11239329Y-27334165D01*
X11235000Y-27323537D01*
X11235000Y-27312062D01*
X10954939Y-26635935D01*
X10678838Y-25958056D01*
X10666510Y-25939606D01*
X10666380Y-25939292D01*
X10666140Y-25939052D01*
X10653812Y-25920602D01*
X10631018Y-25903930D01*
X9651070Y-24923982D01*
X9634398Y-24901188D01*
X9623822Y-24896734D01*
X9615708Y-24888620D01*
X8939575Y-24608556D01*
X8265015Y-24324459D01*
X8253539Y-24324391D01*
X8242938Y-24320000D01*
X7511100Y-24320000D01*
X6779165Y-24315671D01*
X6768537Y-24320000D01*
X6757062Y-24320000D01*
X6080935Y-24600061D01*
X5403056Y-24876162D01*
X5384606Y-24888490D01*
X5384292Y-24888620D01*
X5384052Y-24888860D01*
X5365602Y-24901188D01*
X5348930Y-24923982D01*
X4368982Y-25903930D01*
X4346188Y-25920602D01*
X4341734Y-25931178D01*
X4333620Y-25939292D01*
X4053556Y-26615425D01*
X3769459Y-27289985D01*
X3769391Y-27301461D01*
X3765000Y-27312062D01*
X3765000Y-28043900D01*
X3760671Y-28775835D01*
X735000Y-28775835D01*
X735000Y-16710835D01*
X3760671Y-16710835D01*
X3765000Y-16721463D01*
X3765000Y-16732938D01*
X4045061Y-17409065D01*
X4321162Y-18086944D01*
X4333490Y-18105394D01*
X4333620Y-18105708D01*
X4333860Y-18105948D01*
X4346188Y-18124398D01*
X4368982Y-18141070D01*
X5348930Y-19121018D01*
X5365602Y-19143812D01*
X5376178Y-19148266D01*
X5384292Y-19156380D01*
X6060425Y-19436444D01*
X6734985Y-19720541D01*
X6746461Y-19720609D01*
X6757062Y-19725000D01*
X7488900Y-19725000D01*
X8220835Y-19729329D01*
X8231463Y-19725000D01*
X8242938Y-19725000D01*
X8919065Y-19444939D01*
X9596944Y-19168838D01*
X9615394Y-19156510D01*
X9615708Y-19156380D01*
X9615948Y-19156140D01*
X9634398Y-19143812D01*
X9651070Y-19121018D01*
X10631018Y-18141070D01*
X10653812Y-18124398D01*
X10658266Y-18113822D01*
X10666380Y-18105708D01*
X10946444Y-17429575D01*
X11230541Y-16755015D01*
X11230609Y-16743539D01*
X11235000Y-16732938D01*
X11235000Y-16001100D01*
X11239329Y-15269165D01*
X11235000Y-15258537D01*
X11235000Y-15247062D01*
X10954939Y-14570935D01*
X10678838Y-13893056D01*
X10666510Y-13874606D01*
X10666380Y-13874292D01*
X10666140Y-13874052D01*
X10653812Y-13855602D01*
X10631018Y-13838930D01*
X9651070Y-12858982D01*
X9634398Y-12836188D01*
X9623822Y-12831734D01*
X9615708Y-12823620D01*
X8939575Y-12543556D01*
X8265015Y-12259459D01*
X8253539Y-12259391D01*
X8242938Y-12255000D01*
X7511100Y-12255000D01*
X6779165Y-12250671D01*
X6768537Y-12255000D01*
X6757062Y-12255000D01*
X6080935Y-12535061D01*
X5403056Y-12811162D01*
X5384606Y-12823490D01*
X5384292Y-12823620D01*
X5384052Y-12823860D01*
X5365602Y-12836188D01*
X5348930Y-12858982D01*
X4368982Y-13838930D01*
X4346188Y-13855602D01*
X4341734Y-13866178D01*
X4333620Y-13874292D01*
X4053556Y-14550425D01*
X3769459Y-15224985D01*
X3769391Y-15236461D01*
X3765000Y-15247062D01*
X3765000Y-15978900D01*
X3760671Y-16710835D01*
X735000Y-16710835D01*
X735000Y-2592346D01*
X5257974Y-2592346D01*
X5265000Y-3018390D01*
X5265000Y-3444569D01*
X5272320Y-3462240D01*
X5272635Y-3481363D01*
X5584640Y-4234610D01*
X5594347Y-4239682D01*
X5605259Y-4266026D01*
X6233974Y-4894741D01*
X6260318Y-4905653D01*
X6265390Y-4915360D01*
X6661708Y-5071914D01*
X7055431Y-5235000D01*
X7074560Y-5235000D01*
X7092346Y-5242026D01*
X7518390Y-5235000D01*
X7944569Y-5235000D01*
X7962240Y-5227680D01*
X7981363Y-5227365D01*
X8734610Y-4915360D01*
X8739682Y-4905653D01*
X8766026Y-4894741D01*
X9394741Y-4266026D01*
X9405653Y-4239682D01*
X9415360Y-4234610D01*
X9571914Y-3838292D01*
X9735000Y-3444569D01*
X9735000Y-3425440D01*
X9742026Y-3407654D01*
X9735000Y-2981610D01*
X9735000Y-2555431D01*
X9727680Y-2537760D01*
X9727365Y-2518637D01*
X9415360Y-1765390D01*
X9405653Y-1760318D01*
X9394741Y-1733974D01*
X8766026Y-1105259D01*
X8739682Y-1094347D01*
X8734610Y-1084640D01*
X8338292Y-928086D01*
X7944569Y-765000D01*
X7925440Y-765000D01*
X7907654Y-757974D01*
X7481610Y-765000D01*
X7055431Y-765000D01*
X7037760Y-772320D01*
X7018637Y-772635D01*
X6265390Y-1084640D01*
X6260318Y-1094347D01*
X6233974Y-1105259D01*
X5605259Y-1733974D01*
X5594347Y-1760318D01*
X5584640Y-1765390D01*
X5428086Y-2161708D01*
X5265000Y-2555431D01*
X5265000Y-2574560D01*
X5257974Y-2592346D01*
X735000Y-2592346D01*
X735000Y-735000D01*
X14265000Y-735000D01*
X14265001Y-127765000D01*
X14265001Y-127765000D01*
G37*
X14265001Y-127765000D02*
X735000Y-127765000D01*
X735000Y-125092346D01*
X5257974Y-125092346D01*
X5265000Y-125518390D01*
X5265000Y-125944569D01*
X5272320Y-125962240D01*
X5272635Y-125981363D01*
X5584640Y-126734610D01*
X5594347Y-126739682D01*
X5605259Y-126766026D01*
X6233974Y-127394741D01*
X6260318Y-127405653D01*
X6265390Y-127415360D01*
X6661708Y-127571914D01*
X7055431Y-127735000D01*
X7074560Y-127735000D01*
X7092346Y-127742026D01*
X7518390Y-127735000D01*
X7944569Y-127735000D01*
X7962240Y-127727680D01*
X7981363Y-127727365D01*
X8734610Y-127415360D01*
X8739682Y-127405653D01*
X8766026Y-127394741D01*
X9394741Y-126766026D01*
X9405653Y-126739682D01*
X9415360Y-126734610D01*
X9571914Y-126338292D01*
X9735000Y-125944569D01*
X9735000Y-125925440D01*
X9742026Y-125907654D01*
X9735000Y-125481610D01*
X9735000Y-125055431D01*
X9727680Y-125037760D01*
X9727365Y-125018637D01*
X9415360Y-124265390D01*
X9405653Y-124260318D01*
X9394741Y-124233974D01*
X8766026Y-123605259D01*
X8739682Y-123594347D01*
X8734610Y-123584640D01*
X8338292Y-123428086D01*
X7944569Y-123265000D01*
X7925440Y-123265000D01*
X7907654Y-123257974D01*
X7481610Y-123265000D01*
X7055431Y-123265000D01*
X7037760Y-123272320D01*
X7018637Y-123272635D01*
X6265390Y-123584640D01*
X6260318Y-123594347D01*
X6233974Y-123605259D01*
X5605259Y-124233974D01*
X5594347Y-124260318D01*
X5584640Y-124265390D01*
X5428086Y-124661708D01*
X5265000Y-125055431D01*
X5265000Y-125074560D01*
X5257974Y-125092346D01*
X735000Y-125092346D01*
X735000Y-113230835D01*
X3760671Y-113230835D01*
X3765000Y-113241463D01*
X3765000Y-113252938D01*
X4045061Y-113929065D01*
X4321162Y-114606944D01*
X4333490Y-114625394D01*
X4333620Y-114625708D01*
X4333860Y-114625948D01*
X4346188Y-114644398D01*
X4368982Y-114661070D01*
X5348930Y-115641018D01*
X5365602Y-115663812D01*
X5376178Y-115668266D01*
X5384292Y-115676380D01*
X6060425Y-115956444D01*
X6734985Y-116240541D01*
X6746461Y-116240609D01*
X6757062Y-116245000D01*
X7488900Y-116245000D01*
X8220835Y-116249329D01*
X8231463Y-116245000D01*
X8242938Y-116245000D01*
X8919065Y-115964939D01*
X9596944Y-115688838D01*
X9615394Y-115676510D01*
X9615708Y-115676380D01*
X9615948Y-115676140D01*
X9634398Y-115663812D01*
X9651070Y-115641018D01*
X10631018Y-114661070D01*
X10653812Y-114644398D01*
X10658266Y-114633822D01*
X10666380Y-114625708D01*
X10946444Y-113949575D01*
X11230541Y-113275015D01*
X11230609Y-113263539D01*
X11235000Y-113252938D01*
X11235000Y-112521100D01*
X11239329Y-111789165D01*
X11235000Y-111778537D01*
X11235000Y-111767062D01*
X10954939Y-111090935D01*
X10678838Y-110413056D01*
X10666510Y-110394606D01*
X10666380Y-110394292D01*
X10666140Y-110394052D01*
X10653812Y-110375602D01*
X10631018Y-110358930D01*
X9651070Y-109378982D01*
X9634398Y-109356188D01*
X9623822Y-109351734D01*
X9615708Y-109343620D01*
X8939575Y-109063556D01*
X8265015Y-108779459D01*
X8253539Y-108779391D01*
X8242938Y-108775000D01*
X7511100Y-108775000D01*
X6779165Y-108770671D01*
X6768537Y-108775000D01*
X6757062Y-108775000D01*
X6080935Y-109055061D01*
X5403056Y-109331162D01*
X5384606Y-109343490D01*
X5384292Y-109343620D01*
X5384052Y-109343860D01*
X5365602Y-109356188D01*
X5348930Y-109378982D01*
X4368982Y-110358930D01*
X4346188Y-110375602D01*
X4341734Y-110386178D01*
X4333620Y-110394292D01*
X4053556Y-111070425D01*
X3769459Y-111744985D01*
X3769391Y-111756461D01*
X3765000Y-111767062D01*
X3765000Y-112498900D01*
X3760671Y-113230835D01*
X735000Y-113230835D01*
X735000Y-101165835D01*
X3760671Y-101165835D01*
X3765000Y-101176463D01*
X3765000Y-101187938D01*
X4045061Y-101864065D01*
X4321162Y-102541944D01*
X4333490Y-102560394D01*
X4333620Y-102560708D01*
X4333860Y-102560948D01*
X4346188Y-102579398D01*
X4368982Y-102596070D01*
X5348930Y-103576018D01*
X5365602Y-103598812D01*
X5376178Y-103603266D01*
X5384292Y-103611380D01*
X6060425Y-103891444D01*
X6734985Y-104175541D01*
X6746461Y-104175609D01*
X6757062Y-104180000D01*
X7488900Y-104180000D01*
X8220835Y-104184329D01*
X8231463Y-104180000D01*
X8242938Y-104180000D01*
X8919065Y-103899939D01*
X9596944Y-103623838D01*
X9615394Y-103611510D01*
X9615708Y-103611380D01*
X9615948Y-103611140D01*
X9634398Y-103598812D01*
X9651070Y-103576018D01*
X10631018Y-102596070D01*
X10653812Y-102579398D01*
X10658266Y-102568822D01*
X10666380Y-102560708D01*
X10946444Y-101884575D01*
X11230541Y-101210015D01*
X11230609Y-101198539D01*
X11235000Y-101187938D01*
X11235000Y-100456100D01*
X11239329Y-99724165D01*
X11235000Y-99713537D01*
X11235000Y-99702062D01*
X10954939Y-99025935D01*
X10678838Y-98348056D01*
X10666510Y-98329606D01*
X10666380Y-98329292D01*
X10666140Y-98329052D01*
X10653812Y-98310602D01*
X10631018Y-98293930D01*
X9651070Y-97313982D01*
X9634398Y-97291188D01*
X9623822Y-97286734D01*
X9615708Y-97278620D01*
X8939575Y-96998556D01*
X8265015Y-96714459D01*
X8253539Y-96714391D01*
X8242938Y-96710000D01*
X7511100Y-96710000D01*
X6779165Y-96705671D01*
X6768537Y-96710000D01*
X6757062Y-96710000D01*
X6080935Y-96990061D01*
X5403056Y-97266162D01*
X5384606Y-97278490D01*
X5384292Y-97278620D01*
X5384052Y-97278860D01*
X5365602Y-97291188D01*
X5348930Y-97313982D01*
X4368982Y-98293930D01*
X4346188Y-98310602D01*
X4341734Y-98321178D01*
X4333620Y-98329292D01*
X4053556Y-99005425D01*
X3769459Y-99679985D01*
X3769391Y-99691461D01*
X3765000Y-99702062D01*
X3765000Y-100433900D01*
X3760671Y-101165835D01*
X735000Y-101165835D01*
X735000Y-89100835D01*
X3760671Y-89100835D01*
X3765000Y-89111463D01*
X3765000Y-89122938D01*
X4045061Y-89799065D01*
X4321162Y-90476944D01*
X4333490Y-90495394D01*
X4333620Y-90495708D01*
X4333860Y-90495948D01*
X4346188Y-90514398D01*
X4368982Y-90531070D01*
X5348930Y-91511018D01*
X5365602Y-91533812D01*
X5376178Y-91538266D01*
X5384292Y-91546380D01*
X6060425Y-91826444D01*
X6734985Y-92110541D01*
X6746461Y-92110609D01*
X6757062Y-92115000D01*
X7488900Y-92115000D01*
X8220835Y-92119329D01*
X8231463Y-92115000D01*
X8242938Y-92115000D01*
X8919065Y-91834939D01*
X9596944Y-91558838D01*
X9615394Y-91546510D01*
X9615708Y-91546380D01*
X9615948Y-91546140D01*
X9634398Y-91533812D01*
X9651070Y-91511018D01*
X10631018Y-90531070D01*
X10653812Y-90514398D01*
X10658266Y-90503822D01*
X10666380Y-90495708D01*
X10946444Y-89819575D01*
X11230541Y-89145015D01*
X11230609Y-89133539D01*
X11235000Y-89122938D01*
X11235000Y-88391100D01*
X11239329Y-87659165D01*
X11235000Y-87648537D01*
X11235000Y-87637062D01*
X10954939Y-86960935D01*
X10678838Y-86283056D01*
X10666510Y-86264606D01*
X10666380Y-86264292D01*
X10666140Y-86264052D01*
X10653812Y-86245602D01*
X10631018Y-86228930D01*
X9651070Y-85248982D01*
X9634398Y-85226188D01*
X9623822Y-85221734D01*
X9615708Y-85213620D01*
X8939575Y-84933556D01*
X8265015Y-84649459D01*
X8253539Y-84649391D01*
X8242938Y-84645000D01*
X7511100Y-84645000D01*
X6779165Y-84640671D01*
X6768537Y-84645000D01*
X6757062Y-84645000D01*
X6080935Y-84925061D01*
X5403056Y-85201162D01*
X5384606Y-85213490D01*
X5384292Y-85213620D01*
X5384052Y-85213860D01*
X5365602Y-85226188D01*
X5348930Y-85248982D01*
X4368982Y-86228930D01*
X4346188Y-86245602D01*
X4341734Y-86256178D01*
X4333620Y-86264292D01*
X4053556Y-86940425D01*
X3769459Y-87614985D01*
X3769391Y-87626461D01*
X3765000Y-87637062D01*
X3765000Y-88368900D01*
X3760671Y-89100835D01*
X735000Y-89100835D01*
X735000Y-77035835D01*
X3760671Y-77035835D01*
X3765000Y-77046463D01*
X3765000Y-77057938D01*
X4045061Y-77734065D01*
X4321162Y-78411944D01*
X4333490Y-78430394D01*
X4333620Y-78430708D01*
X4333860Y-78430948D01*
X4346188Y-78449398D01*
X4368982Y-78466070D01*
X5348930Y-79446018D01*
X5365602Y-79468812D01*
X5376178Y-79473266D01*
X5384292Y-79481380D01*
X6060425Y-79761444D01*
X6734985Y-80045541D01*
X6746461Y-80045609D01*
X6757062Y-80050000D01*
X7488900Y-80050000D01*
X8220835Y-80054329D01*
X8231463Y-80050000D01*
X8242938Y-80050000D01*
X8919065Y-79769939D01*
X9596944Y-79493838D01*
X9615394Y-79481510D01*
X9615708Y-79481380D01*
X9615948Y-79481140D01*
X9634398Y-79468812D01*
X9651070Y-79446018D01*
X10631018Y-78466070D01*
X10653812Y-78449398D01*
X10658266Y-78438822D01*
X10666380Y-78430708D01*
X10946444Y-77754575D01*
X11230541Y-77080015D01*
X11230609Y-77068539D01*
X11235000Y-77057938D01*
X11235000Y-76326100D01*
X11239329Y-75594165D01*
X11235000Y-75583537D01*
X11235000Y-75572062D01*
X10954939Y-74895935D01*
X10678838Y-74218056D01*
X10666510Y-74199606D01*
X10666380Y-74199292D01*
X10666140Y-74199052D01*
X10653812Y-74180602D01*
X10631018Y-74163930D01*
X9651070Y-73183982D01*
X9634398Y-73161188D01*
X9623822Y-73156734D01*
X9615708Y-73148620D01*
X8939575Y-72868556D01*
X8265015Y-72584459D01*
X8253539Y-72584391D01*
X8242938Y-72580000D01*
X7511100Y-72580000D01*
X6779165Y-72575671D01*
X6768537Y-72580000D01*
X6757062Y-72580000D01*
X6080935Y-72860061D01*
X5403056Y-73136162D01*
X5384606Y-73148490D01*
X5384292Y-73148620D01*
X5384052Y-73148860D01*
X5365602Y-73161188D01*
X5348930Y-73183982D01*
X4368982Y-74163930D01*
X4346188Y-74180602D01*
X4341734Y-74191178D01*
X4333620Y-74199292D01*
X4053556Y-74875425D01*
X3769459Y-75549985D01*
X3769391Y-75561461D01*
X3765000Y-75572062D01*
X3765000Y-76303900D01*
X3760671Y-77035835D01*
X735000Y-77035835D01*
X735000Y-64970835D01*
X3760671Y-64970835D01*
X3765000Y-64981463D01*
X3765000Y-64992938D01*
X4045061Y-65669065D01*
X4321162Y-66346944D01*
X4333490Y-66365394D01*
X4333620Y-66365708D01*
X4333860Y-66365948D01*
X4346188Y-66384398D01*
X4368982Y-66401070D01*
X5348930Y-67381018D01*
X5365602Y-67403812D01*
X5376178Y-67408266D01*
X5384292Y-67416380D01*
X6060425Y-67696444D01*
X6734985Y-67980541D01*
X6746461Y-67980609D01*
X6757062Y-67985000D01*
X7488900Y-67985000D01*
X8220835Y-67989329D01*
X8231463Y-67985000D01*
X8242938Y-67985000D01*
X8919065Y-67704939D01*
X9596944Y-67428838D01*
X9615394Y-67416510D01*
X9615708Y-67416380D01*
X9615948Y-67416140D01*
X9634398Y-67403812D01*
X9651070Y-67381018D01*
X10631018Y-66401070D01*
X10653812Y-66384398D01*
X10658266Y-66373822D01*
X10666380Y-66365708D01*
X10946444Y-65689575D01*
X11230541Y-65015015D01*
X11230609Y-65003539D01*
X11235000Y-64992938D01*
X11235000Y-64261100D01*
X11239329Y-63529165D01*
X11235000Y-63518537D01*
X11235000Y-63507062D01*
X10954939Y-62830935D01*
X10678838Y-62153056D01*
X10666510Y-62134606D01*
X10666380Y-62134292D01*
X10666140Y-62134052D01*
X10653812Y-62115602D01*
X10631018Y-62098930D01*
X9651070Y-61118982D01*
X9634398Y-61096188D01*
X9623822Y-61091734D01*
X9615708Y-61083620D01*
X8939575Y-60803556D01*
X8265015Y-60519459D01*
X8253539Y-60519391D01*
X8242938Y-60515000D01*
X7511100Y-60515000D01*
X6779165Y-60510671D01*
X6768537Y-60515000D01*
X6757062Y-60515000D01*
X6080935Y-60795061D01*
X5403056Y-61071162D01*
X5384606Y-61083490D01*
X5384292Y-61083620D01*
X5384052Y-61083860D01*
X5365602Y-61096188D01*
X5348930Y-61118982D01*
X4368982Y-62098930D01*
X4346188Y-62115602D01*
X4341734Y-62126178D01*
X4333620Y-62134292D01*
X4053556Y-62810425D01*
X3769459Y-63484985D01*
X3769391Y-63496461D01*
X3765000Y-63507062D01*
X3765000Y-64238900D01*
X3760671Y-64970835D01*
X735000Y-64970835D01*
X735000Y-52905835D01*
X3760671Y-52905835D01*
X3765000Y-52916463D01*
X3765000Y-52927938D01*
X4045061Y-53604065D01*
X4321162Y-54281944D01*
X4333490Y-54300394D01*
X4333620Y-54300708D01*
X4333860Y-54300948D01*
X4346188Y-54319398D01*
X4368982Y-54336070D01*
X5348930Y-55316018D01*
X5365602Y-55338812D01*
X5376178Y-55343266D01*
X5384292Y-55351380D01*
X6060425Y-55631444D01*
X6734985Y-55915541D01*
X6746461Y-55915609D01*
X6757062Y-55920000D01*
X7488900Y-55920000D01*
X8220835Y-55924329D01*
X8231463Y-55920000D01*
X8242938Y-55920000D01*
X8919065Y-55639939D01*
X9596944Y-55363838D01*
X9615394Y-55351510D01*
X9615708Y-55351380D01*
X9615948Y-55351140D01*
X9634398Y-55338812D01*
X9651070Y-55316018D01*
X10631018Y-54336070D01*
X10653812Y-54319398D01*
X10658266Y-54308822D01*
X10666380Y-54300708D01*
X10946444Y-53624575D01*
X11230541Y-52950015D01*
X11230609Y-52938539D01*
X11235000Y-52927938D01*
X11235000Y-52196100D01*
X11239329Y-51464165D01*
X11235000Y-51453537D01*
X11235000Y-51442062D01*
X10954939Y-50765935D01*
X10678838Y-50088056D01*
X10666510Y-50069606D01*
X10666380Y-50069292D01*
X10666140Y-50069052D01*
X10653812Y-50050602D01*
X10631018Y-50033930D01*
X9651070Y-49053982D01*
X9634398Y-49031188D01*
X9623822Y-49026734D01*
X9615708Y-49018620D01*
X8939575Y-48738556D01*
X8265015Y-48454459D01*
X8253539Y-48454391D01*
X8242938Y-48450000D01*
X7511100Y-48450000D01*
X6779165Y-48445671D01*
X6768537Y-48450000D01*
X6757062Y-48450000D01*
X6080935Y-48730061D01*
X5403056Y-49006162D01*
X5384606Y-49018490D01*
X5384292Y-49018620D01*
X5384052Y-49018860D01*
X5365602Y-49031188D01*
X5348930Y-49053982D01*
X4368982Y-50033930D01*
X4346188Y-50050602D01*
X4341734Y-50061178D01*
X4333620Y-50069292D01*
X4053556Y-50745425D01*
X3769459Y-51419985D01*
X3769391Y-51431461D01*
X3765000Y-51442062D01*
X3765000Y-52173900D01*
X3760671Y-52905835D01*
X735000Y-52905835D01*
X735000Y-40840835D01*
X3760671Y-40840835D01*
X3765000Y-40851463D01*
X3765000Y-40862938D01*
X4045061Y-41539065D01*
X4321162Y-42216944D01*
X4333490Y-42235394D01*
X4333620Y-42235708D01*
X4333860Y-42235948D01*
X4346188Y-42254398D01*
X4368982Y-42271070D01*
X5348930Y-43251018D01*
X5365602Y-43273812D01*
X5376178Y-43278266D01*
X5384292Y-43286380D01*
X6060425Y-43566444D01*
X6734985Y-43850541D01*
X6746461Y-43850609D01*
X6757062Y-43855000D01*
X7488900Y-43855000D01*
X8220835Y-43859329D01*
X8231463Y-43855000D01*
X8242938Y-43855000D01*
X8919065Y-43574939D01*
X9596944Y-43298838D01*
X9615394Y-43286510D01*
X9615708Y-43286380D01*
X9615948Y-43286140D01*
X9634398Y-43273812D01*
X9651070Y-43251018D01*
X10631018Y-42271070D01*
X10653812Y-42254398D01*
X10658266Y-42243822D01*
X10666380Y-42235708D01*
X10946444Y-41559575D01*
X11230541Y-40885015D01*
X11230609Y-40873539D01*
X11235000Y-40862938D01*
X11235000Y-40131100D01*
X11239329Y-39399165D01*
X11235000Y-39388537D01*
X11235000Y-39377062D01*
X10954939Y-38700935D01*
X10678838Y-38023056D01*
X10666510Y-38004606D01*
X10666380Y-38004292D01*
X10666140Y-38004052D01*
X10653812Y-37985602D01*
X10631018Y-37968930D01*
X9651070Y-36988982D01*
X9634398Y-36966188D01*
X9623822Y-36961734D01*
X9615708Y-36953620D01*
X8939575Y-36673556D01*
X8265015Y-36389459D01*
X8253539Y-36389391D01*
X8242938Y-36385000D01*
X7511100Y-36385000D01*
X6779165Y-36380671D01*
X6768537Y-36385000D01*
X6757062Y-36385000D01*
X6080935Y-36665061D01*
X5403056Y-36941162D01*
X5384606Y-36953490D01*
X5384292Y-36953620D01*
X5384052Y-36953860D01*
X5365602Y-36966188D01*
X5348930Y-36988982D01*
X4368982Y-37968930D01*
X4346188Y-37985602D01*
X4341734Y-37996178D01*
X4333620Y-38004292D01*
X4053556Y-38680425D01*
X3769459Y-39354985D01*
X3769391Y-39366461D01*
X3765000Y-39377062D01*
X3765000Y-40108900D01*
X3760671Y-40840835D01*
X735000Y-40840835D01*
X735000Y-28775835D01*
X3760671Y-28775835D01*
X3765000Y-28786463D01*
X3765000Y-28797938D01*
X4045061Y-29474065D01*
X4321162Y-30151944D01*
X4333490Y-30170394D01*
X4333620Y-30170708D01*
X4333860Y-30170948D01*
X4346188Y-30189398D01*
X4368982Y-30206070D01*
X5348930Y-31186018D01*
X5365602Y-31208812D01*
X5376178Y-31213266D01*
X5384292Y-31221380D01*
X6060425Y-31501444D01*
X6734985Y-31785541D01*
X6746461Y-31785609D01*
X6757062Y-31790000D01*
X7488900Y-31790000D01*
X8220835Y-31794329D01*
X8231463Y-31790000D01*
X8242938Y-31790000D01*
X8919065Y-31509939D01*
X9596944Y-31233838D01*
X9615394Y-31221510D01*
X9615708Y-31221380D01*
X9615948Y-31221140D01*
X9634398Y-31208812D01*
X9651070Y-31186018D01*
X10631018Y-30206070D01*
X10653812Y-30189398D01*
X10658266Y-30178822D01*
X10666380Y-30170708D01*
X10946444Y-29494575D01*
X11230541Y-28820015D01*
X11230609Y-28808539D01*
X11235000Y-28797938D01*
X11235000Y-28066100D01*
X11239329Y-27334165D01*
X11235000Y-27323537D01*
X11235000Y-27312062D01*
X10954939Y-26635935D01*
X10678838Y-25958056D01*
X10666510Y-25939606D01*
X10666380Y-25939292D01*
X10666140Y-25939052D01*
X10653812Y-25920602D01*
X10631018Y-25903930D01*
X9651070Y-24923982D01*
X9634398Y-24901188D01*
X9623822Y-24896734D01*
X9615708Y-24888620D01*
X8939575Y-24608556D01*
X8265015Y-24324459D01*
X8253539Y-24324391D01*
X8242938Y-24320000D01*
X7511100Y-24320000D01*
X6779165Y-24315671D01*
X6768537Y-24320000D01*
X6757062Y-24320000D01*
X6080935Y-24600061D01*
X5403056Y-24876162D01*
X5384606Y-24888490D01*
X5384292Y-24888620D01*
X5384052Y-24888860D01*
X5365602Y-24901188D01*
X5348930Y-24923982D01*
X4368982Y-25903930D01*
X4346188Y-25920602D01*
X4341734Y-25931178D01*
X4333620Y-25939292D01*
X4053556Y-26615425D01*
X3769459Y-27289985D01*
X3769391Y-27301461D01*
X3765000Y-27312062D01*
X3765000Y-28043900D01*
X3760671Y-28775835D01*
X735000Y-28775835D01*
X735000Y-16710835D01*
X3760671Y-16710835D01*
X3765000Y-16721463D01*
X3765000Y-16732938D01*
X4045061Y-17409065D01*
X4321162Y-18086944D01*
X4333490Y-18105394D01*
X4333620Y-18105708D01*
X4333860Y-18105948D01*
X4346188Y-18124398D01*
X4368982Y-18141070D01*
X5348930Y-19121018D01*
X5365602Y-19143812D01*
X5376178Y-19148266D01*
X5384292Y-19156380D01*
X6060425Y-19436444D01*
X6734985Y-19720541D01*
X6746461Y-19720609D01*
X6757062Y-19725000D01*
X7488900Y-19725000D01*
X8220835Y-19729329D01*
X8231463Y-19725000D01*
X8242938Y-19725000D01*
X8919065Y-19444939D01*
X9596944Y-19168838D01*
X9615394Y-19156510D01*
X9615708Y-19156380D01*
X9615948Y-19156140D01*
X9634398Y-19143812D01*
X9651070Y-19121018D01*
X10631018Y-18141070D01*
X10653812Y-18124398D01*
X10658266Y-18113822D01*
X10666380Y-18105708D01*
X10946444Y-17429575D01*
X11230541Y-16755015D01*
X11230609Y-16743539D01*
X11235000Y-16732938D01*
X11235000Y-16001100D01*
X11239329Y-15269165D01*
X11235000Y-15258537D01*
X11235000Y-15247062D01*
X10954939Y-14570935D01*
X10678838Y-13893056D01*
X10666510Y-13874606D01*
X10666380Y-13874292D01*
X10666140Y-13874052D01*
X10653812Y-13855602D01*
X10631018Y-13838930D01*
X9651070Y-12858982D01*
X9634398Y-12836188D01*
X9623822Y-12831734D01*
X9615708Y-12823620D01*
X8939575Y-12543556D01*
X8265015Y-12259459D01*
X8253539Y-12259391D01*
X8242938Y-12255000D01*
X7511100Y-12255000D01*
X6779165Y-12250671D01*
X6768537Y-12255000D01*
X6757062Y-12255000D01*
X6080935Y-12535061D01*
X5403056Y-12811162D01*
X5384606Y-12823490D01*
X5384292Y-12823620D01*
X5384052Y-12823860D01*
X5365602Y-12836188D01*
X5348930Y-12858982D01*
X4368982Y-13838930D01*
X4346188Y-13855602D01*
X4341734Y-13866178D01*
X4333620Y-13874292D01*
X4053556Y-14550425D01*
X3769459Y-15224985D01*
X3769391Y-15236461D01*
X3765000Y-15247062D01*
X3765000Y-15978900D01*
X3760671Y-16710835D01*
X735000Y-16710835D01*
X735000Y-2592346D01*
X5257974Y-2592346D01*
X5265000Y-3018390D01*
X5265000Y-3444569D01*
X5272320Y-3462240D01*
X5272635Y-3481363D01*
X5584640Y-4234610D01*
X5594347Y-4239682D01*
X5605259Y-4266026D01*
X6233974Y-4894741D01*
X6260318Y-4905653D01*
X6265390Y-4915360D01*
X6661708Y-5071914D01*
X7055431Y-5235000D01*
X7074560Y-5235000D01*
X7092346Y-5242026D01*
X7518390Y-5235000D01*
X7944569Y-5235000D01*
X7962240Y-5227680D01*
X7981363Y-5227365D01*
X8734610Y-4915360D01*
X8739682Y-4905653D01*
X8766026Y-4894741D01*
X9394741Y-4266026D01*
X9405653Y-4239682D01*
X9415360Y-4234610D01*
X9571914Y-3838292D01*
X9735000Y-3444569D01*
X9735000Y-3425440D01*
X9742026Y-3407654D01*
X9735000Y-2981610D01*
X9735000Y-2555431D01*
X9727680Y-2537760D01*
X9727365Y-2518637D01*
X9415360Y-1765390D01*
X9405653Y-1760318D01*
X9394741Y-1733974D01*
X8766026Y-1105259D01*
X8739682Y-1094347D01*
X8734610Y-1084640D01*
X8338292Y-928086D01*
X7944569Y-765000D01*
X7925440Y-765000D01*
X7907654Y-757974D01*
X7481610Y-765000D01*
X7055431Y-765000D01*
X7037760Y-772320D01*
X7018637Y-772635D01*
X6265390Y-1084640D01*
X6260318Y-1094347D01*
X6233974Y-1105259D01*
X5605259Y-1733974D01*
X5594347Y-1760318D01*
X5584640Y-1765390D01*
X5428086Y-2161708D01*
X5265000Y-2555431D01*
X5265000Y-2574560D01*
X5257974Y-2592346D01*
X735000Y-2592346D01*
X735000Y-735000D01*
X14265000Y-735000D01*
X14265001Y-127765000D01*
M02*
